<?xml version="1.0" encoding="UTF-8"?>
<svg xmlns="http://www.w3.org/2000/svg" xmlns:xlink="http://www.w3.org/1999/xlink" width="32pt" height="32pt" viewBox="0 0 32 32" version="1.1">
<defs>
<linearGradient id="linear0" gradientUnits="userSpaceOnUse" x1="0" y1="0" x2="32" y2="32" >
<stop offset="0" style="stop-color:rgb(96.078431%,96.078431%,96.078431%);stop-opacity:1;"/>
<stop offset="1" style="stop-color:rgb(38.431373%,38.431373%,38.431373%);stop-opacity:1;"/>
</linearGradient>
</defs>
<g id="surface8722">
<path style="fill:none;stroke-width:4;stroke-linecap:butt;stroke-linejoin:round;stroke:url(#linear0);stroke-miterlimit:10;" d="M 4 2 L 28 2 L 28 30 L 4 30 Z M 4 2 "/>
<path style=" stroke:none;fill-rule:evenodd;fill:rgb(67.058824%,67.058824%,67.058824%);fill-opacity:1;" d="M 4 2 L 28 2 L 28 30 L 4 30 Z M 4 2 "/>
<path style=" stroke:none;fill-rule:evenodd;fill:rgb(41.176471%,41.176471%,41.176471%);fill-opacity:1;" d="M 5 3 L 27 3 L 27 11 L 5 11 Z M 5 3 "/>
<path style="fill:none;stroke-width:1;stroke-linecap:butt;stroke-linejoin:miter;stroke:rgb(96.078431%,96.078431%,96.078431%);stroke-opacity:1;stroke-miterlimit:10;" d="M 22 4 L 25 4 L 25 10 L 22 10 Z M 22 4 "/>
<path style="fill-rule:evenodd;fill:rgb(82.745098%,82.745098%,82.745098%);fill-opacity:1;stroke-width:2;stroke-linecap:butt;stroke-linejoin:round;stroke:rgb(82.745098%,82.745098%,82.745098%);stroke-opacity:1;stroke-miterlimit:10;" d="M 6 14 L 8 14 L 8 16 L 6 16 Z M 6 14 "/>
<path style="fill-rule:evenodd;fill:rgb(82.745098%,82.745098%,82.745098%);fill-opacity:1;stroke-width:2;stroke-linecap:butt;stroke-linejoin:round;stroke:rgb(82.745098%,82.745098%,82.745098%);stroke-opacity:1;stroke-miterlimit:10;" d="M 12 14 L 14 14 L 14 16 L 12 16 Z M 12 14 "/>
<path style="fill-rule:evenodd;fill:rgb(82.745098%,82.745098%,82.745098%);fill-opacity:1;stroke-width:2;stroke-linecap:butt;stroke-linejoin:round;stroke:rgb(82.745098%,82.745098%,82.745098%);stroke-opacity:1;stroke-miterlimit:10;" d="M 18 14 L 20 14 L 20 16 L 18 16 Z M 18 14 "/>
<path style="fill-rule:evenodd;fill:rgb(82.745098%,82.745098%,82.745098%);fill-opacity:1;stroke-width:2;stroke-linecap:butt;stroke-linejoin:round;stroke:rgb(82.745098%,82.745098%,82.745098%);stroke-opacity:1;stroke-miterlimit:10;" d="M 24 14 L 26 14 L 26 16 L 24 16 Z M 24 14 "/>
<path style="fill-rule:evenodd;fill:rgb(82.745098%,82.745098%,82.745098%);fill-opacity:1;stroke-width:2;stroke-linecap:butt;stroke-linejoin:round;stroke:rgb(82.745098%,82.745098%,82.745098%);stroke-opacity:1;stroke-miterlimit:10;" d="M 6 20 L 8 20 L 8 22 L 6 22 Z M 6 20 "/>
<path style="fill-rule:evenodd;fill:rgb(82.745098%,82.745098%,82.745098%);fill-opacity:1;stroke-width:2;stroke-linecap:butt;stroke-linejoin:round;stroke:rgb(82.745098%,82.745098%,82.745098%);stroke-opacity:1;stroke-miterlimit:10;" d="M 12 20 L 14 20 L 14 22 L 12 22 Z M 12 20 "/>
<path style="fill-rule:evenodd;fill:rgb(82.745098%,82.745098%,82.745098%);fill-opacity:1;stroke-width:2;stroke-linecap:butt;stroke-linejoin:round;stroke:rgb(82.745098%,82.745098%,82.745098%);stroke-opacity:1;stroke-miterlimit:10;" d="M 18 20 L 20 20 L 20 22 L 18 22 Z M 18 20 "/>
<path style="fill-rule:evenodd;fill:rgb(82.745098%,82.745098%,82.745098%);fill-opacity:1;stroke-width:2;stroke-linecap:butt;stroke-linejoin:round;stroke:rgb(82.745098%,82.745098%,82.745098%);stroke-opacity:1;stroke-miterlimit:10;" d="M 24 20 L 26 20 L 26 22 L 24 22 Z M 24 20 "/>
<path style="fill-rule:evenodd;fill:rgb(82.745098%,82.745098%,82.745098%);fill-opacity:1;stroke-width:2;stroke-linecap:butt;stroke-linejoin:round;stroke:rgb(82.745098%,82.745098%,82.745098%);stroke-opacity:1;stroke-miterlimit:10;" d="M 6 26 L 8 26 L 8 28 L 6 28 Z M 6 26 "/>
<path style="fill-rule:evenodd;fill:rgb(82.745098%,82.745098%,82.745098%);fill-opacity:1;stroke-width:2;stroke-linecap:butt;stroke-linejoin:round;stroke:rgb(82.745098%,82.745098%,82.745098%);stroke-opacity:1;stroke-miterlimit:10;" d="M 12 26 L 14 26 L 14 28 L 12 28 Z M 12 26 "/>
<path style="fill-rule:evenodd;fill:rgb(82.745098%,82.745098%,82.745098%);fill-opacity:1;stroke-width:2;stroke-linecap:butt;stroke-linejoin:round;stroke:rgb(82.745098%,82.745098%,82.745098%);stroke-opacity:1;stroke-miterlimit:10;" d="M 18 26 L 20 26 L 20 28 L 18 28 Z M 18 26 "/>
<path style="fill-rule:evenodd;fill:rgb(82.745098%,82.745098%,82.745098%);fill-opacity:1;stroke-width:2;stroke-linecap:butt;stroke-linejoin:round;stroke:rgb(82.745098%,82.745098%,82.745098%);stroke-opacity:1;stroke-miterlimit:10;" d="M 24 26 L 26 26 L 26 28 L 24 28 Z M 24 26 "/>
</g>
</svg>
