<?xml version="1.0" encoding="UTF-8"?>
<svg xmlns="http://www.w3.org/2000/svg" xmlns:xlink="http://www.w3.org/1999/xlink" width="32pt" height="32pt" viewBox="0 0 32 32" version="1.1">
<defs>
<linearGradient id="linear0" gradientUnits="userSpaceOnUse" x1="0" y1="2" x2="0" y2="30" >
<stop offset="0" style="stop-color:rgb(100%,100%,100%);stop-opacity:1;"/>
<stop offset="1" style="stop-color:rgb(85.098039%,85.098039%,85.098039%);stop-opacity:1;"/>
</linearGradient>
<linearGradient id="linear1" gradientUnits="userSpaceOnUse" x1="4" y1="2" x2="28" y2="30" >
<stop offset="0" style="stop-color:rgb(11.764706%,56.470588%,100%);stop-opacity:1;"/>
<stop offset="1" style="stop-color:rgb(4.705882%,22.745098%,40%);stop-opacity:1;"/>
</linearGradient>
<linearGradient id="linear2" gradientUnits="userSpaceOnUse" x1="4" y1="2" x2="28" y2="30" >
<stop offset="0" style="stop-color:rgb(11.764706%,56.470588%,100%);stop-opacity:1;"/>
<stop offset="1" style="stop-color:rgb(4.705882%,22.745098%,40%);stop-opacity:1;"/>
</linearGradient>
<linearGradient id="linear3" gradientUnits="userSpaceOnUse" x1="4" y1="2" x2="28" y2="30" >
<stop offset="0" style="stop-color:rgb(66.27451%,66.27451%,66.27451%);stop-opacity:1;"/>
<stop offset="1" style="stop-color:rgb(32.941176%,32.941176%,32.941176%);stop-opacity:1;"/>
</linearGradient>
<linearGradient id="linear4" gradientUnits="userSpaceOnUse" x1="16" y1="16" x2="32" y2="32" >
<stop offset="0" style="stop-color:rgb(100%,27.058824%,0%);stop-opacity:1;"/>
<stop offset="1" style="stop-color:rgb(50.196078%,13.333333%,0%);stop-opacity:1;"/>
</linearGradient>
</defs>
<g id="surface8630">
<path style=" stroke:none;fill-rule:evenodd;fill:rgb(74.901961%,74.901961%,74.901961%);fill-opacity:1;" d="M 17.5 3.5 L 23.5 3.5 L 29.5 9.5 L 29.5 28.5 C 29.5 30.15625 28.15625 31.5 26.5 31.5 L 8.5 31.5 C 6.84375 31.5 5.5 30.15625 5.5 28.5 L 5.5 6.5 C 5.5 4.84375 6.84375 3.5 8.5 3.5 Z M 17.5 3.5 "/>
<path style="fill-rule:evenodd;fill:url(#linear0);stroke-width:1;stroke-linecap:butt;stroke-linejoin:bevel;stroke:url(#linear1);stroke-miterlimit:10;" d="M 16 2 L 22 2 L 28 8 L 28 28 C 28 29.105469 27.105469 30 26 30 L 6 30 C 4.894531 30 4 29.105469 4 28 L 4 4 C 4 2.894531 4.894531 2 6 2 Z M 16 2 "/>
<path style="fill:none;stroke-width:1;stroke-linecap:butt;stroke-linejoin:bevel;stroke:url(#linear2);stroke-miterlimit:10;" d="M 22 2 L 22 8 L 28 8 "/>
<path style="fill:none;stroke-width:1;stroke-linecap:butt;stroke-linejoin:miter;stroke:url(#linear3);stroke-miterlimit:10;" d="M 7 9 L 19 9 M 7 13 L 24 13 M 7 17 L 14 17 M 7 21 L 13 21 M 7 25 L 16 25 "/>
<path style=" stroke:none;fill-rule:evenodd;fill:url(#linear4);" d="M 32 24 C 32 28.417969 28.417969 32 24 32 C 19.582031 32 16 28.417969 16 24 C 16 19.582031 19.582031 16 24 16 C 28.417969 16 32 19.582031 32 24 Z M 32 24 "/>
<path style="fill:none;stroke-width:3.2;stroke-linecap:butt;stroke-linejoin:miter;stroke:rgb(100%,100%,100%);stroke-opacity:1;stroke-miterlimit:10;" d="M 18 24 L 30 24 "/>
</g>
</svg>
