<?xml version="1.0" encoding="UTF-8"?>
<svg xmlns="http://www.w3.org/2000/svg" xmlns:xlink="http://www.w3.org/1999/xlink" width="32pt" height="32pt" viewBox="0 0 32 32" version="1.1">
<defs>
<linearGradient id="linear0" gradientUnits="userSpaceOnUse" x1="6" y1="26.8" x2="14.2" y2="30.6" gradientTransform="matrix(1,0,0,1,0,0.000000000000000888)">
<stop offset="0" style="stop-color:rgb(41.568627%,41.568627%,41.568627%);stop-opacity:1;"/>
<stop offset="1" style="stop-color:rgb(82.745098%,82.745098%,82.745098%);stop-opacity:1;"/>
</linearGradient>
<linearGradient id="linear1" gradientUnits="userSpaceOnUse" x1="0" y1="0" x2="32" y2="32" gradientTransform="matrix(0.906308,-0.422618,0.422618,0.906308,-10.45533,6.499052)">
<stop offset="0" style="stop-color:rgb(78.431373%,78.431373%,78.431373%);stop-opacity:1;"/>
<stop offset="1" style="stop-color:rgb(61.960784%,61.960784%,61.960784%);stop-opacity:1;"/>
</linearGradient>
<linearGradient id="linear2" gradientUnits="userSpaceOnUse" x1="2" y1="1" x2="32" y2="32" >
<stop offset="0" style="stop-color:rgb(82.745098%,82.745098%,82.745098%);stop-opacity:1;"/>
<stop offset="1" style="stop-color:rgb(41.568627%,41.568627%,41.568627%);stop-opacity:1;"/>
</linearGradient>
<linearGradient id="linear3" gradientUnits="userSpaceOnUse" x1="3.92" y1="5.37" x2="9.14" y2="10.6" >
<stop offset="0" style="stop-color:rgb(75.294118%,75.294118%,75.294118%);stop-opacity:1;"/>
<stop offset="1" style="stop-color:rgb(52.54902%,52.54902%,52.54902%);stop-opacity:1;"/>
</linearGradient>
<linearGradient id="linear4" gradientUnits="userSpaceOnUse" x1="12.3" y1="2.9" x2="18.13" y2="8.7" >
<stop offset="0" style="stop-color:rgb(75.294118%,75.294118%,75.294118%);stop-opacity:1;"/>
<stop offset="1" style="stop-color:rgb(52.54902%,52.54902%,52.54902%);stop-opacity:1;"/>
</linearGradient>
<linearGradient id="linear5" gradientUnits="userSpaceOnUse" x1="20.85" y1="7.1" x2="25.5" y2="11.75" >
<stop offset="0" style="stop-color:rgb(75.294118%,75.294118%,75.294118%);stop-opacity:1;"/>
<stop offset="1" style="stop-color:rgb(52.54902%,52.54902%,52.54902%);stop-opacity:1;"/>
</linearGradient>
<linearGradient id="linear6" gradientUnits="userSpaceOnUse" x1="22.7" y1="14.8" x2="31.3" y2="20" >
<stop offset="0" style="stop-color:rgb(75.294118%,75.294118%,75.294118%);stop-opacity:1;"/>
<stop offset="1" style="stop-color:rgb(52.54902%,52.54902%,52.54902%);stop-opacity:1;"/>
</linearGradient>
<linearGradient id="linear7" gradientUnits="userSpaceOnUse" x1="13.9" y1="13.2" x2="18" y2="17.3" >
<stop offset="0" style="stop-color:rgb(75.294118%,75.294118%,75.294118%);stop-opacity:1;"/>
<stop offset="1" style="stop-color:rgb(52.54902%,52.54902%,52.54902%);stop-opacity:1;"/>
</linearGradient>
<linearGradient id="linear8" gradientUnits="userSpaceOnUse" x1="16.8" y1="20.4" x2="23.7" y2="27.41" >
<stop offset="0" style="stop-color:rgb(75.294118%,75.294118%,75.294118%);stop-opacity:1;"/>
<stop offset="1" style="stop-color:rgb(60.392157%,60.392157%,60.392157%);stop-opacity:1;"/>
</linearGradient>
</defs>
<g id="surface8794">
<path style="fill:none;stroke-width:1.5;stroke-linecap:butt;stroke-linejoin:miter;stroke:url(#linear0);stroke-miterlimit:10;" d="M 14.160037 26.529433 C 14.159052 30.395107 6.038094 30.396793 6.039078 26.531119 C 6.040062 22.665445 14.161021 22.663759 14.160037 26.529433 Z M 14.160037 26.529433 " transform="matrix(0.906308,-0.422618,0.422618,0.906308,-10.45533,6.499052)"/>
<path style="fill-rule:evenodd;fill:url(#linear1);stroke-width:0.5;stroke-linecap:butt;stroke-linejoin:miter;stroke:url(#linear2);stroke-miterlimit:10;" d="M 13.589844 24.558594 C 15.222656 28.0625 7.863281 31.496094 6.230469 27.992188 C 4.597656 24.488281 11.957031 21.054688 13.589844 24.558594 Z M 4.351562 28.28125 C 1.449219 22.480469 21.75 19.578125 7.25 16.679688 C 0 15.230469 -1.449219 7.980469 4.351562 3.628906 C 11.601562 -1.449219 31.179688 -0.730469 30.449219 16.679688 C 30.449219 31.179688 6.53125 34 4.351562 28.28125 " transform="matrix(1,0,0,1,0,-0.000000000000000888)"/>
<path style=" stroke:none;fill-rule:evenodd;fill:url(#linear3);" d="M 9.128906 8 C 9.128906 11.464844 3.929688 11.464844 3.929688 8 C 3.929688 4.535156 9.128906 4.535156 9.128906 8 Z M 9.128906 8 "/>
<path style=" stroke:none;fill-rule:evenodd;fill:url(#linear4);" d="M 18.128906 5.800781 C 18.128906 9.667969 12.328125 9.667969 12.328125 5.800781 C 12.328125 1.933594 18.128906 1.933594 18.128906 5.800781 Z M 18.128906 5.800781 "/>
<path style=" stroke:none;fill-rule:evenodd;fill:url(#linear5);" d="M 25.5 9.429688 C 25.5 12.496094 20.898438 12.496094 20.898438 9.429688 C 20.898438 6.363281 25.5 6.363281 25.5 9.429688 Z M 25.5 9.429688 "/>
<path style=" stroke:none;fill-rule:evenodd;fill:url(#linear6);" d="M 27.980469 17.398438 C 27.980469 20.867188 22.78125 20.867188 22.78125 17.398438 C 22.78125 13.933594 27.980469 13.933594 27.980469 17.398438 Z M 27.980469 17.398438 "/>
<path style=" stroke:none;fill-rule:evenodd;fill:url(#linear7);" d="M 18 15.199219 C 18 17.867188 14 17.867188 14 15.199219 C 14 12.535156 18 12.535156 18 15.199219 Z M 18 15.199219 "/>
<path style=" stroke:none;fill-rule:evenodd;fill:url(#linear8);" d="M 23.800781 23.929688 C 23.800781 28.597656 16.800781 28.597656 16.800781 23.929688 C 16.800781 19.261719 23.800781 19.261719 23.800781 23.929688 Z M 23.800781 23.929688 "/>
</g>
</svg>
