<?xml version="1.0" encoding="UTF-8"?>
<svg xmlns="http://www.w3.org/2000/svg" xmlns:xlink="http://www.w3.org/1999/xlink" width="32pt" height="32pt" viewBox="0 0 32 32" version="1.1">
<defs>
<linearGradient id="linear0" gradientUnits="userSpaceOnUse" x1="0" y1="27" x2="0" y2="31" >
<stop offset="0" style="stop-color:rgb(50.196078%,42.352941%,0%);stop-opacity:1;"/>
<stop offset="0.35" style="stop-color:rgb(100%,84.313725%,0%);stop-opacity:1;"/>
<stop offset="1" style="stop-color:rgb(20%,16.862745%,0%);stop-opacity:1;"/>
</linearGradient>
<linearGradient id="linear1" gradientUnits="userSpaceOnUse" x1="0" y1="27" x2="0" y2="31" >
<stop offset="0" style="stop-color:rgb(50.196078%,42.352941%,0%);stop-opacity:1;"/>
<stop offset="0.35" style="stop-color:rgb(100%,84.313725%,0%);stop-opacity:1;"/>
<stop offset="1" style="stop-color:rgb(20%,16.862745%,0%);stop-opacity:1;"/>
</linearGradient>
<linearGradient id="linear2" gradientUnits="userSpaceOnUse" x1="15" y1="0" x2="17" y2="0" >
<stop offset="0" style="stop-color:rgb(10.196078%,8.627451%,0%);stop-opacity:1;"/>
<stop offset="0.45" style="stop-color:rgb(100%,84.313725%,0%);stop-opacity:1;"/>
<stop offset="1" style="stop-color:rgb(10.196078%,8.627451%,0%);stop-opacity:1;"/>
</linearGradient>
<linearGradient id="linear3" gradientUnits="userSpaceOnUse" x1="0" y1="20" x2="0" y2="24" >
<stop offset="0" style="stop-color:rgb(100%,84.313725%,0%);stop-opacity:1;"/>
<stop offset="1" style="stop-color:rgb(29.803922%,25.098039%,0%);stop-opacity:1;"/>
</linearGradient>
<linearGradient id="linear4" gradientUnits="userSpaceOnUse" x1="0" y1="20" x2="0" y2="24" gradientTransform="matrix(-1,0,0,1,32,0)">
<stop offset="0" style="stop-color:rgb(100%,84.313725%,0%);stop-opacity:1;"/>
<stop offset="1" style="stop-color:rgb(29.803922%,25.098039%,0%);stop-opacity:1;"/>
</linearGradient>
</defs>
<g id="surface8654">
<path style="fill:none;stroke-width:1.5;stroke-linecap:butt;stroke-linejoin:round;stroke:url(#linear0);stroke-miterlimit:10;" d="M 7.480469 29.730469 C 12.878906 27.210938 19.121094 27.210938 24.519531 29.730469 Z M 7.480469 29.730469 "/>
<path style=" stroke:none;fill-rule:evenodd;fill:url(#linear1);" d="M 7.480469 29.730469 C 12.878906 27.210938 19.121094 27.210938 24.519531 29.730469 Z M 7.480469 29.730469 "/>
<path style="fill:none;stroke-width:2;stroke-linecap:butt;stroke-linejoin:miter;stroke:url(#linear2);stroke-miterlimit:10;" d="M 16 27 L 16 8 "/>
<path style="fill:none;stroke-width:1;stroke-linecap:butt;stroke-linejoin:miter;stroke:rgb(90.196078%,76.078431%,0%);stroke-opacity:1;stroke-miterlimit:10;" d="M 16 4 C 12 4 8 9 5 5.5 "/>
<path style="fill:none;stroke-width:1;stroke-linecap:butt;stroke-linejoin:miter;stroke:rgb(90.196078%,76.078431%,0%);stroke-opacity:1;stroke-miterlimit:10;" d="M 16 4 C 12 4 8 9 5 5.5 C 9 9 5 6 16 8 "/>
<path style=" stroke:none;fill-rule:evenodd;fill:rgb(69.803922%,58.823529%,0%);fill-opacity:1;" d="M 16 4 C 12 4 8 9 5 5.5 C 9 9 5 6 16 8 Z M 16 4 "/>
<path style="fill:none;stroke-width:0.15;stroke-linecap:butt;stroke-linejoin:miter;stroke:rgb(0%,0%,0%);stroke-opacity:1;stroke-miterlimit:10;" d="M 7.5 6 L 3.5 21 L 11.5 21 L 7.5 6 "/>
<path style=" stroke:none;fill-rule:evenodd;fill:url(#linear3);" d="M 13.234375 20.515625 C 11.925781 22.386719 9.785156 23.5 7.5 23.5 C 5.214844 23.5 3.074219 22.386719 1.765625 20.515625 Z M 13.234375 20.515625 "/>
<path style="fill:none;stroke-width:1;stroke-linecap:butt;stroke-linejoin:miter;stroke:rgb(90.196078%,76.078431%,0%);stroke-opacity:1;stroke-miterlimit:10;" d="M 16 4 C 12 4 8 9 5 5.5 " transform="matrix(-1,0,0,1,32,0)"/>
<path style="fill:none;stroke-width:1;stroke-linecap:butt;stroke-linejoin:miter;stroke:rgb(90.196078%,76.078431%,0%);stroke-opacity:1;stroke-miterlimit:10;" d="M 16 4 C 12 4 8 9 5 5.5 C 9 9 5 6 16 8 " transform="matrix(-1,0,0,1,32,0)"/>
<path style=" stroke:none;fill-rule:evenodd;fill:rgb(69.803922%,58.823529%,0%);fill-opacity:1;" d="M 16 4 C 20 4 24 9 27 5.5 C 23 9 27 6 16 8 Z M 16 4 "/>
<path style="fill:none;stroke-width:0.15;stroke-linecap:butt;stroke-linejoin:miter;stroke:rgb(0%,0%,0%);stroke-opacity:1;stroke-miterlimit:10;" d="M 7.5 6 L 3.5 21 L 11.5 21 L 7.5 6 " transform="matrix(-1,0,0,1,32,0)"/>
<path style=" stroke:none;fill-rule:evenodd;fill:url(#linear4);" d="M 18.765625 20.515625 C 20.074219 22.386719 22.214844 23.5 24.5 23.5 C 26.785156 23.5 28.925781 22.386719 30.234375 20.515625 Z M 18.765625 20.515625 "/>
<path style=" stroke:none;fill-rule:evenodd;fill:rgb(100%,84.313725%,0%);fill-opacity:1;" d="M 17.5 6 C 17.5 8 14.5 8 14.5 6 C 14.5 4 17.5 4 17.5 6 Z M 17.5 6 "/>
<path style="fill:none;stroke-width:1;stroke-linecap:butt;stroke-linejoin:miter;stroke:rgb(60%,50.588235%,0%);stroke-opacity:1;stroke-miterlimit:10;" d="M 18 6 C 18 8.667969 14 8.667969 14 6 C 14 3.332031 18 3.332031 18 6 Z M 18 6 "/>
</g>
</svg>
