<?xml version="1.0" encoding="UTF-8"?>
<svg xmlns="http://www.w3.org/2000/svg" xmlns:xlink="http://www.w3.org/1999/xlink" width="32pt" height="32pt" viewBox="0 0 32 32" version="1.1">
<defs>
<linearGradient id="linear0" gradientUnits="userSpaceOnUse" x1="1" y1="1" x2="20" y2="23" >
<stop offset="0" style="stop-color:rgb(75.294118%,75.294118%,75.294118%);stop-opacity:1;"/>
<stop offset="1" style="stop-color:rgb(45.098039%,45.098039%,45.098039%);stop-opacity:1;"/>
</linearGradient>
<linearGradient id="linear1" gradientUnits="userSpaceOnUse" x1="1" y1="1" x2="20" y2="23" >
<stop offset="0" style="stop-color:rgb(96.078431%,96.078431%,96.078431%);stop-opacity:1;"/>
<stop offset="1" style="stop-color:rgb(81.568627%,81.568627%,81.568627%);stop-opacity:1;"/>
</linearGradient>
<linearGradient id="linear2" gradientUnits="userSpaceOnUse" x1="1" y1="1" x2="18" y2="21" >
<stop offset="0" style="stop-color:rgb(86.27451%,86.27451%,86.27451%);stop-opacity:1;"/>
<stop offset="1" style="stop-color:rgb(51.764706%,51.764706%,51.764706%);stop-opacity:1;"/>
</linearGradient>
<linearGradient id="linear3" gradientUnits="userSpaceOnUse" x1="1" y1="1" x2="20" y2="23" >
<stop offset="0" style="stop-color:rgb(75.294118%,75.294118%,75.294118%);stop-opacity:1;"/>
<stop offset="1" style="stop-color:rgb(45.098039%,45.098039%,45.098039%);stop-opacity:1;"/>
</linearGradient>
<linearGradient id="linear4" gradientUnits="userSpaceOnUse" x1="1" y1="1" x2="20" y2="23" gradientTransform="matrix(1,0,0,1,11,8)">
<stop offset="0" style="stop-color:rgb(96.078431%,96.078431%,96.078431%);stop-opacity:1;"/>
<stop offset="1" style="stop-color:rgb(81.568627%,81.568627%,81.568627%);stop-opacity:1;"/>
</linearGradient>
<linearGradient id="linear5" gradientUnits="userSpaceOnUse" x1="1" y1="1" x2="18" y2="21" >
<stop offset="0" style="stop-color:rgb(86.27451%,86.27451%,86.27451%);stop-opacity:1;"/>
<stop offset="1" style="stop-color:rgb(51.764706%,51.764706%,51.764706%);stop-opacity:1;"/>
</linearGradient>
</defs>
<g id="surface8954">
<path style="fill:none;stroke-width:2;stroke-linecap:butt;stroke-linejoin:round;stroke:url(#linear0);stroke-miterlimit:10;" d="M 19.5 12 L 19.5 21 C 19.5 21.828125 18.828125 22.5 18 22.5 L 3 22.5 C 2.171875 22.5 1.5 21.828125 1.5 21 L 1.5 3 C 1.5 2.171875 2.171875 1.5 3 1.5 L 18 1.5 C 18.828125 1.5 19.5 2.171875 19.5 3 Z M 19.5 12 "/>
<path style=" stroke:none;fill-rule:evenodd;fill:url(#linear1);" d="M 19.5 12 L 19.5 21 C 19.5 21.828125 18.828125 22.5 18 22.5 L 3 22.5 C 2.171875 22.5 1.5 21.828125 1.5 21 L 1.5 3 C 1.5 2.171875 2.171875 1.5 3 1.5 L 18 1.5 C 18.828125 1.5 19.5 2.171875 19.5 3 Z M 19.5 12 "/>
<path style="fill:none;stroke-width:1;stroke-linecap:butt;stroke-linejoin:miter;stroke:url(#linear2);stroke-miterlimit:10;" d="M 3 6 L 17 6 M 3 10 L 6 10 M 3 14 L 14 14 M 3 18 L 12 18 "/>
<path style="fill:none;stroke-width:2;stroke-linecap:butt;stroke-linejoin:round;stroke:url(#linear3);stroke-miterlimit:10;" d="M 19.5 12 L 19.5 21 C 19.5 21.828125 18.828125 22.5 18 22.5 L 3 22.5 C 2.171875 22.5 1.5 21.828125 1.5 21 L 1.5 3 C 1.5 2.171875 2.171875 1.5 3 1.5 L 18 1.5 C 18.828125 1.5 19.5 2.171875 19.5 3 Z M 19.5 12 " transform="matrix(1,0,0,1,11,8)"/>
<path style=" stroke:none;fill-rule:evenodd;fill:url(#linear4);" d="M 30.5 20 L 30.5 29 C 30.5 29.828125 29.828125 30.5 29 30.5 L 14 30.5 C 13.171875 30.5 12.5 29.828125 12.5 29 L 12.5 11 C 12.5 10.171875 13.171875 9.5 14 9.5 L 29 9.5 C 29.828125 9.5 30.5 10.171875 30.5 11 Z M 30.5 20 "/>
<path style="fill:none;stroke-width:1;stroke-linecap:butt;stroke-linejoin:miter;stroke:url(#linear5);stroke-miterlimit:10;" d="M 3 6 L 17 6 M 3 10 L 6 10 M 3 14 L 14 14 M 3 18 L 12 18 " transform="matrix(1,0,0,1,11,8)"/>
</g>
</svg>
