<?xml version="1.0" encoding="UTF-8"?>
<svg xmlns="http://www.w3.org/2000/svg" xmlns:xlink="http://www.w3.org/1999/xlink" width="32pt" height="32pt" viewBox="0 0 32 32" version="1.1">
<defs>
<linearGradient id="linear0" gradientUnits="userSpaceOnUse" x1="0" y1="0" x2="32" y2="32" >
<stop offset="0" style="stop-color:rgb(91.372549%,94.901961%,93.333333%);stop-opacity:1;"/>
<stop offset="1" style="stop-color:rgb(81.568627%,85.098039%,83.529412%);stop-opacity:1;"/>
</linearGradient>
<linearGradient id="linear1" gradientUnits="userSpaceOnUse" x1="0" y1="0" x2="32" y2="32" >
<stop offset="0" style="stop-color:rgb(96.078431%,100%,98.039216%);stop-opacity:1;"/>
<stop offset="1" style="stop-color:rgb(76.862745%,80%,78.431373%);stop-opacity:1;"/>
</linearGradient>
</defs>
<g id="surface8426">
<path style="fill-rule:evenodd;fill:url(#linear0);stroke-width:1;stroke-linecap:butt;stroke-linejoin:miter;stroke:url(#linear1);stroke-miterlimit:10;" d="M 1 1 L 1 31 L 31 31 L 31 1 Z M 1 1 "/>
<path style="fill:none;stroke-width:2;stroke-linecap:butt;stroke-linejoin:miter;stroke:rgb(75.294118%,75.294118%,75.294118%);stroke-opacity:1;stroke-miterlimit:10;" d="M 11 9 L 13 9 L 13 11 L 11 11 Z M 11 23 L 13 23 L 13 25 L 11 25 Z M 25 23 L 27 23 L 27 25 L 25 25 Z M 25 23 "/>
<path style="fill:none;stroke-width:2;stroke-linecap:butt;stroke-linejoin:miter;stroke:rgb(75.294118%,75.294118%,75.294118%);stroke-opacity:1;stroke-miterlimit:10;" d="M 12 10 L 12 16 C 12 20.417969 15.582031 24 20 24 L 26 24 "/>
<path style="fill:none;stroke-width:2;stroke-linecap:butt;stroke-linejoin:miter;stroke:rgb(39.215686%,58.431373%,92.941176%);stroke-opacity:1;stroke-miterlimit:10;" d="M 8 6 L 10 6 L 10 8 L 8 8 Z M 8 20 L 10 20 L 10 22 L 8 22 Z M 22 20 L 24 20 L 24 22 L 22 22 Z M 22 20 "/>
<path style="fill:none;stroke-width:2;stroke-linecap:butt;stroke-linejoin:miter;stroke:rgb(0%,0%,0%);stroke-opacity:1;stroke-miterlimit:10;" d="M 9 7 L 9 13 C 9 17.417969 12.582031 21 17 21 L 23 21 "/>
</g>
</svg>
