<?xml version="1.0" encoding="UTF-8"?>
<svg xmlns="http://www.w3.org/2000/svg" xmlns:xlink="http://www.w3.org/1999/xlink" width="32pt" height="32pt" viewBox="0 0 32 32" version="1.1">
<defs>
<linearGradient id="linear0" gradientUnits="userSpaceOnUse" x1="0" y1="0" x2="32" y2="32" >
<stop offset="0" style="stop-color:rgb(91.372549%,94.901961%,93.333333%);stop-opacity:1;"/>
<stop offset="1" style="stop-color:rgb(81.568627%,85.098039%,83.529412%);stop-opacity:1;"/>
</linearGradient>
<linearGradient id="linear1" gradientUnits="userSpaceOnUse" x1="0" y1="0" x2="32" y2="32" >
<stop offset="0" style="stop-color:rgb(96.078431%,100%,98.039216%);stop-opacity:1;"/>
<stop offset="1" style="stop-color:rgb(76.862745%,80%,78.431373%);stop-opacity:1;"/>
</linearGradient>
</defs>
<g id="surface8402">
<path style="fill-rule:evenodd;fill:url(#linear0);stroke-width:1;stroke-linecap:butt;stroke-linejoin:miter;stroke:url(#linear1);stroke-miterlimit:10;" d="M 1 1 L 1 31 L 31 31 L 31 1 Z M 1 1 "/>
<path style="fill:none;stroke-width:2;stroke-linecap:butt;stroke-linejoin:miter;stroke:rgb(75.294118%,75.294118%,75.294118%);stroke-opacity:1;stroke-miterlimit:10;" d="M 6 18 L 8 18 L 8 20 L 6 20 Z M 14 28 L 16 28 L 16 30 L 14 30 Z M 24 27 L 26 27 L 26 29 L 24 29 Z M 28 13 L 30 13 L 30 15 L 28 15 Z M 16 8 L 18 8 L 18 10 L 16 10 Z M 16 8 "/>
<path style="fill:none;stroke-width:2;stroke-linecap:butt;stroke-linejoin:bevel;stroke:rgb(75.294118%,75.294118%,75.294118%);stroke-opacity:1;stroke-miterlimit:10;" d="M 7 19 L 15 29 L 25 28 L 29 14 L 17 9 Z M 7 19 "/>
<path style="fill:none;stroke-width:2;stroke-linecap:butt;stroke-linejoin:miter;stroke:rgb(39.215686%,58.431373%,92.941176%);stroke-opacity:1;stroke-miterlimit:10;" d="M 3 15 L 5 15 L 5 17 L 3 17 Z M 11 25 L 13 25 L 13 27 L 11 27 Z M 21 24 L 23 24 L 23 26 L 21 26 Z M 25 10 L 27 10 L 27 12 L 25 12 Z M 13 5 L 15 5 L 15 7 L 13 7 Z M 13 5 "/>
<path style="fill:none;stroke-width:2;stroke-linecap:butt;stroke-linejoin:bevel;stroke:rgb(0%,0%,0%);stroke-opacity:1;stroke-miterlimit:10;" d="M 4 16 L 12 26 L 22 25 L 26 11 L 14 6 Z M 4 16 "/>
</g>
</svg>
