<?xml version="1.0" encoding="UTF-8"?>
<svg xmlns="http://www.w3.org/2000/svg" xmlns:xlink="http://www.w3.org/1999/xlink" width="32pt" height="32pt" viewBox="0 0 32 32" version="1.1">
<g id="surface8842">
<path style="fill:none;stroke-width:2;stroke-linecap:butt;stroke-linejoin:miter;stroke:rgb(82.745098%,82.745098%,82.745098%);stroke-opacity:1;stroke-miterlimit:10;" d="M 17 17 L 19 17 L 19 19 L 17 19 Z M 27 17 L 29 17 L 29 19 L 27 19 Z M 9.929688 12 L 11.929688 12 L 11.929688 14 L 9.929688 14 Z M 24.070312 12 L 26.070312 12 L 26.070312 14 L 24.070312 14 Z M 24.070312 12 "/>
<path style="fill:none;stroke-width:2;stroke-linecap:butt;stroke-linejoin:miter;stroke:rgb(82.745098%,82.745098%,82.745098%);stroke-opacity:1;stroke-miterlimit:10;" d="M 23.734375 12.265625 C 27.308594 14.015625 28.847656 17.191406 27.539062 20.105469 C 26.226562 23.019531 22.363281 25 18 25 C 13.636719 25 9.773438 23.019531 8.460938 20.105469 C 7.152344 17.191406 8.691406 14.015625 12.265625 12.265625 "/>
<path style="fill:none;stroke-width:2;stroke-linecap:butt;stroke-linejoin:miter;stroke:rgb(50.196078%,50.196078%,50.196078%);stroke-opacity:1;stroke-miterlimit:10;" d="M 14 14 L 16 14 L 16 16 L 14 16 Z M 24 14 L 26 14 L 26 16 L 24 16 Z M 6.929688 9 L 8.929688 9 L 8.929688 11 L 6.929688 11 Z M 21.070312 9 L 23.070312 9 L 23.070312 11 L 21.070312 11 Z M 21.070312 9 "/>
<path style="fill:none;stroke-width:2;stroke-linecap:butt;stroke-linejoin:miter;stroke:rgb(50.196078%,50.196078%,50.196078%);stroke-opacity:1;stroke-miterlimit:10;" d="M 20.734375 9.265625 C 24.308594 11.015625 25.847656 14.191406 24.539062 17.105469 C 23.226562 20.019531 19.363281 22 15 22 C 10.636719 22 6.773438 20.019531 5.460938 17.105469 C 4.152344 14.191406 5.691406 11.015625 9.265625 9.265625 "/>
</g>
</svg>
