<?xml version="1.0" encoding="UTF-8"?>
<svg xmlns="http://www.w3.org/2000/svg" xmlns:xlink="http://www.w3.org/1999/xlink" width="32pt" height="32pt" viewBox="0 0 32 32" version="1.1">
<g id="surface8846">
<path style="fill:none;stroke-width:2;stroke-linecap:butt;stroke-linejoin:miter;stroke:rgb(82.745098%,82.745098%,82.745098%);stroke-opacity:1;stroke-miterlimit:10;" d="M 8 16 L 10 16 L 10 18 L 8 18 Z M 14 5 L 16 5 L 16 7 L 14 7 Z M 20 27 L 22 27 L 22 29 L 20 29 Z M 26 16 L 28 16 L 28 18 L 26 18 Z M 26 16 "/>
<path style="fill:none;stroke-width:2;stroke-linecap:butt;stroke-linejoin:miter;stroke:rgb(82.745098%,82.745098%,82.745098%);stroke-opacity:1;stroke-miterlimit:10;" d="M 9 17 C 15 5 21 29 27 17 "/>
<path style="fill:none;stroke-width:2;stroke-linecap:butt;stroke-linejoin:miter;stroke:rgb(50.196078%,50.196078%,50.196078%);stroke-opacity:1;stroke-miterlimit:10;" d="M 5 13 L 7 13 L 7 15 L 5 15 Z M 11 2 L 13 2 L 13 4 L 11 4 Z M 17 24 L 19 24 L 19 26 L 17 26 Z M 23 13 L 25 13 L 25 15 L 23 15 Z M 23 13 "/>
<path style="fill:none;stroke-width:2;stroke-linecap:butt;stroke-linejoin:miter;stroke:rgb(50.196078%,50.196078%,50.196078%);stroke-opacity:1;stroke-miterlimit:10;" d="M 6 14 C 12 2 18 26 24 14 "/>
</g>
</svg>
