<?xml version="1.0" encoding="UTF-8"?>
<svg xmlns="http://www.w3.org/2000/svg" xmlns:xlink="http://www.w3.org/1999/xlink" width="32pt" height="32pt" viewBox="0 0 32 32" version="1.1">
<g id="surface8830">
<path style="fill:none;stroke-width:2;stroke-linecap:butt;stroke-linejoin:miter;stroke:rgb(82.745098%,82.745098%,82.745098%);stroke-opacity:1;stroke-miterlimit:10;" d="M 17 17 L 19 17 L 19 19 L 17 19 Z M 27 17 L 29 17 L 29 19 L 27 19 Z M 27 17 "/>
<path style="fill:none;stroke-width:2;stroke-linecap:butt;stroke-linejoin:miter;stroke:rgb(82.745098%,82.745098%,82.745098%);stroke-opacity:1;stroke-miterlimit:10;" d="M 28 18 C 28 23.523438 23.523438 28 18 28 C 12.476562 28 8 23.523438 8 18 C 8 12.476562 12.476562 8 18 8 C 23.523438 8 28 12.476562 28 18 Z M 28 18 "/>
<path style="fill:none;stroke-width:2;stroke-linecap:butt;stroke-linejoin:miter;stroke:rgb(50.196078%,50.196078%,50.196078%);stroke-opacity:1;stroke-miterlimit:10;" d="M 14 14 L 16 14 L 16 16 L 14 16 Z M 24 14 L 26 14 L 26 16 L 24 16 Z M 24 14 "/>
<path style="fill:none;stroke-width:2;stroke-linecap:butt;stroke-linejoin:miter;stroke:rgb(50.196078%,50.196078%,50.196078%);stroke-opacity:1;stroke-miterlimit:10;" d="M 25 15 C 25 20.523438 20.523438 25 15 25 C 9.476562 25 5 20.523438 5 15 C 5 9.476562 9.476562 5 15 5 C 20.523438 5 25 9.476562 25 15 Z M 25 15 "/>
</g>
</svg>
