<?xml version="1.0" encoding="UTF-8"?>
<svg xmlns="http://www.w3.org/2000/svg" xmlns:xlink="http://www.w3.org/1999/xlink" width="32pt" height="32pt" viewBox="0 0 32 32" version="1.1">
<g id="surface8822">
<path style="fill:none;stroke-width:2;stroke-linecap:butt;stroke-linejoin:miter;stroke:rgb(82.745098%,82.745098%,82.745098%);stroke-opacity:1;stroke-miterlimit:10;" d="M 8 10 L 10 10 L 10 12 L 8 12 Z M 26 25 L 28 25 L 28 27 L 26 27 Z M 26 25 "/>
<path style="fill:none;stroke-width:2;stroke-linecap:butt;stroke-linejoin:miter;stroke:rgb(82.745098%,82.745098%,82.745098%);stroke-opacity:1;stroke-miterlimit:10;" d="M 27 18.5 L 27 21 C 27 23.761719 24.761719 26 22 26 L 14 26 C 11.238281 26 9 23.761719 9 21 L 9 16 C 9 13.238281 11.238281 11 14 11 L 22 11 C 24.761719 11 27 13.238281 27 16 Z M 27 18.5 "/>
<path style="fill:none;stroke-width:2;stroke-linecap:butt;stroke-linejoin:miter;stroke:rgb(50.196078%,50.196078%,50.196078%);stroke-opacity:1;stroke-miterlimit:10;" d="M 5 7 L 7 7 L 7 9 L 5 9 Z M 23 22 L 25 22 L 25 24 L 23 24 Z M 23 22 "/>
<path style="fill:none;stroke-width:2;stroke-linecap:butt;stroke-linejoin:miter;stroke:rgb(50.196078%,50.196078%,50.196078%);stroke-opacity:1;stroke-miterlimit:10;" d="M 24 15.5 L 24 18 C 24 20.761719 21.761719 23 19 23 L 11 23 C 8.238281 23 6 20.761719 6 18 L 6 13 C 6 10.238281 8.238281 8 11 8 L 19 8 C 21.761719 8 24 10.238281 24 13 Z M 24 15.5 "/>
</g>
</svg>
