<?xml version="1.0" encoding="UTF-8"?>
<svg xmlns="http://www.w3.org/2000/svg" xmlns:xlink="http://www.w3.org/1999/xlink" width="32pt" height="32pt" viewBox="0 0 32 32" version="1.1">
<g id="surface8810">
<path style="fill:none;stroke-width:3;stroke-linecap:round;stroke-linejoin:round;stroke:rgb(82.745098%,82.745098%,82.745098%);stroke-opacity:1;stroke-miterlimit:10;" d="M 6.5 27 L 13.5 8 L 20.5 27 "/>
<path style="fill:none;stroke-width:3;stroke-linecap:round;stroke-linejoin:round;stroke:rgb(82.745098%,82.745098%,82.745098%);stroke-opacity:1;stroke-miterlimit:10;" d="M 9 21 L 18 21 "/>
<path style="fill:none;stroke-width:0.5;stroke-linecap:butt;stroke-linejoin:miter;stroke:rgb(82.745098%,82.745098%,82.745098%);stroke-opacity:1;stroke-miterlimit:10;" d="M 24 7 C 25.65625 7 27 8.34375 27 10 L 27 27 M 27 26 C 27 27.65625 25.65625 29 24 29 M 27 10 C 27 8.34375 28.34375 7 30 7 M 30 29 C 28.34375 29 27 27.65625 27 26 "/>
<path style="fill:none;stroke-width:3;stroke-linecap:round;stroke-linejoin:round;stroke:rgb(50.196078%,50.196078%,50.196078%);stroke-opacity:1;stroke-miterlimit:10;" d="M 3.5 24 L 10.5 5 L 17.5 24 "/>
<path style="fill:none;stroke-width:3;stroke-linecap:round;stroke-linejoin:round;stroke:rgb(50.196078%,50.196078%,50.196078%);stroke-opacity:1;stroke-miterlimit:10;" d="M 6 18 L 15 18 "/>
<path style="fill:none;stroke-width:0.5;stroke-linecap:butt;stroke-linejoin:miter;stroke:rgb(50.196078%,50.196078%,50.196078%);stroke-opacity:1;stroke-miterlimit:10;" d="M 21 4 C 22.65625 4 24 5.34375 24 7 L 24 24 M 24 23 C 24 24.65625 22.65625 26 21 26 M 24 7 C 24 5.34375 25.34375 4 27 4 M 27 26 C 25.34375 26 24 24.65625 24 23 "/>
</g>
</svg>
