<?xml version="1.0" encoding="UTF-8"?>
<svg xmlns="http://www.w3.org/2000/svg" xmlns:xlink="http://www.w3.org/1999/xlink" width="32pt" height="32pt" viewBox="0 0 32 32" version="1.1">
<g id="surface8850">
<path style="fill:none;stroke-width:2;stroke-linecap:butt;stroke-linejoin:miter;stroke:rgb(82.745098%,82.745098%,82.745098%);stroke-opacity:1;stroke-miterlimit:10;" d="M 11 9 L 13 9 L 13 11 L 11 11 Z M 11 23 L 13 23 L 13 25 L 11 25 Z M 25 23 L 27 23 L 27 25 L 25 25 Z M 25 23 "/>
<path style="fill:none;stroke-width:2;stroke-linecap:butt;stroke-linejoin:miter;stroke:rgb(82.745098%,82.745098%,82.745098%);stroke-opacity:1;stroke-miterlimit:10;" d="M 12 10 L 12 16 C 12 20.417969 15.582031 24 20 24 L 26 24 "/>
<path style="fill:none;stroke-width:2;stroke-linecap:butt;stroke-linejoin:miter;stroke:rgb(50.196078%,50.196078%,50.196078%);stroke-opacity:1;stroke-miterlimit:10;" d="M 8 6 L 10 6 L 10 8 L 8 8 Z M 8 20 L 10 20 L 10 22 L 8 22 Z M 22 20 L 24 20 L 24 22 L 22 22 Z M 22 20 "/>
<path style="fill:none;stroke-width:2;stroke-linecap:butt;stroke-linejoin:miter;stroke:rgb(50.196078%,50.196078%,50.196078%);stroke-opacity:1;stroke-miterlimit:10;" d="M 9 7 L 9 13 C 9 17.417969 12.582031 21 17 21 L 23 21 "/>
</g>
</svg>
