<?xml version="1.0" encoding="UTF-8"?>
<svg xmlns="http://www.w3.org/2000/svg" xmlns:xlink="http://www.w3.org/1999/xlink" width="32pt" height="32pt" viewBox="0 0 32 32" version="1.1">
<defs>
<linearGradient id="linear0" gradientUnits="userSpaceOnUse" x1="0" y1="0" x2="32" y2="32" >
<stop offset="0" style="stop-color:rgb(91.372549%,94.901961%,93.333333%);stop-opacity:1;"/>
<stop offset="1" style="stop-color:rgb(81.568627%,85.098039%,83.529412%);stop-opacity:1;"/>
</linearGradient>
<linearGradient id="linear1" gradientUnits="userSpaceOnUse" x1="0" y1="0" x2="32" y2="32" >
<stop offset="0" style="stop-color:rgb(96.078431%,100%,98.039216%);stop-opacity:1;"/>
<stop offset="1" style="stop-color:rgb(76.862745%,80%,78.431373%);stop-opacity:1;"/>
</linearGradient>
</defs>
<g id="surface8410">
<path style="fill-rule:evenodd;fill:url(#linear0);stroke-width:1;stroke-linecap:butt;stroke-linejoin:miter;stroke:url(#linear1);stroke-miterlimit:10;" d="M 1 1 L 1 31 L 31 31 L 31 1 Z M 1 1 "/>
<path style="fill:none;stroke-width:2;stroke-linecap:butt;stroke-linejoin:miter;stroke:rgb(75.294118%,75.294118%,75.294118%);stroke-opacity:1;stroke-miterlimit:10;" d="M 17 17 L 19 17 L 19 19 L 17 19 Z M 27 17 L 29 17 L 29 19 L 27 19 Z M 9.929688 9.929688 L 11.929688 9.929688 L 11.929688 11.929688 L 9.929688 11.929688 Z M 24.070312 9.929688 L 26.070312 9.929688 L 26.070312 11.929688 L 24.070312 11.929688 Z M 24.070312 9.929688 "/>
<path style="fill:none;stroke-width:2;stroke-linecap:butt;stroke-linejoin:miter;stroke:rgb(75.294118%,75.294118%,75.294118%);stroke-opacity:1;stroke-miterlimit:10;" d="M 25.070312 10.929688 C 27.929688 13.789062 28.785156 18.089844 27.238281 21.828125 C 25.691406 25.5625 22.042969 28 18 28 C 13.957031 28 10.308594 25.5625 8.761719 21.828125 C 7.214844 18.089844 8.070312 13.789062 10.929688 10.929688 "/>
<path style="fill:none;stroke-width:2;stroke-linecap:butt;stroke-linejoin:miter;stroke:rgb(39.215686%,58.431373%,92.941176%);stroke-opacity:1;stroke-miterlimit:10;" d="M 14 14 L 16 14 L 16 16 L 14 16 Z M 24 14 L 26 14 L 26 16 L 24 16 Z M 6.929688 6.929688 L 8.929688 6.929688 L 8.929688 8.929688 L 6.929688 8.929688 Z M 21.070312 6.929688 L 23.070312 6.929688 L 23.070312 8.929688 L 21.070312 8.929688 Z M 21.070312 6.929688 "/>
<path style="fill:none;stroke-width:2;stroke-linecap:butt;stroke-linejoin:miter;stroke:rgb(0%,0%,0%);stroke-opacity:1;stroke-miterlimit:10;" d="M 22.070312 7.929688 C 24.929688 10.789062 25.785156 15.089844 24.238281 18.828125 C 22.691406 22.5625 19.042969 25 15 25 C 10.957031 25 7.308594 22.5625 5.761719 18.828125 C 4.214844 15.089844 5.070312 10.789062 7.929688 7.929688 "/>
</g>
</svg>
