<?xml version="1.0" encoding="UTF-8"?>
<svg xmlns="http://www.w3.org/2000/svg" xmlns:xlink="http://www.w3.org/1999/xlink" width="32pt" height="32pt" viewBox="0 0 32 32" version="1.1">
<g id="surface8854">
<path style="fill:none;stroke-width:2;stroke-linecap:butt;stroke-linejoin:miter;stroke:rgb(82.745098%,82.745098%,82.745098%);stroke-opacity:1;stroke-miterlimit:10;" d="M 8 19 L 10 19 L 10 21 L 8 21 Z M 13 11 L 15 11 L 15 13 L 13 13 Z M 18 26 L 20 26 L 20 28 L 18 28 Z M 28 28 L 30 28 L 30 30 L 28 30 Z M 23 14 L 25 14 L 25 16 L 23 16 Z M 23 14 "/>
<path style="fill:none;stroke-width:2;stroke-linecap:butt;stroke-linejoin:bevel;stroke:rgb(82.745098%,82.745098%,82.745098%);stroke-opacity:1;stroke-miterlimit:10;" d="M 9 20 L 14 12 L 19 27 L 29 29 L 24 15 "/>
<path style="fill:none;stroke-width:2;stroke-linecap:butt;stroke-linejoin:miter;stroke:rgb(50.196078%,50.196078%,50.196078%);stroke-opacity:1;stroke-miterlimit:10;" d="M 5 16 L 7 16 L 7 18 L 5 18 Z M 10 8 L 12 8 L 12 10 L 10 10 Z M 15 23 L 17 23 L 17 25 L 15 25 Z M 25 25 L 27 25 L 27 27 L 25 27 Z M 20 11 L 22 11 L 22 13 L 20 13 Z M 20 11 "/>
<path style="fill:none;stroke-width:2;stroke-linecap:butt;stroke-linejoin:bevel;stroke:rgb(50.196078%,50.196078%,50.196078%);stroke-opacity:1;stroke-miterlimit:10;" d="M 6 17 L 11 9 L 16 24 L 26 26 L 21 12 "/>
</g>
</svg>
