<?xml version="1.0" encoding="UTF-8"?>
<svg xmlns="http://www.w3.org/2000/svg" xmlns:xlink="http://www.w3.org/1999/xlink" width="32pt" height="32pt" viewBox="0 0 32 32" version="1.1">
<g id="surface8366">
<path style="fill:none;stroke-width:1;stroke-linecap:round;stroke-linejoin:miter;stroke:rgb(64.313725%,0%,0%);stroke-opacity:1;stroke-miterlimit:10;" d="M 6.25 17 L 6.75 22 M 25.75 17 L 25.25 22 "/>
<path style="fill:none;stroke-width:2;stroke-linecap:butt;stroke-linejoin:round;stroke:rgb(82.745098%,82.745098%,82.745098%);stroke-opacity:1;stroke-miterlimit:10;" d="M 7.5 18 L 6.5 25 L 25.5 25 L 24.5 18 Z M 7.5 18 "/>
<path style=" stroke:none;fill-rule:evenodd;fill:rgb(82.745098%,82.745098%,82.745098%);fill-opacity:1;" d="M 7.5 18 L 6.5 25 L 25.5 25 L 24.5 18 Z M 7.5 18 "/>
<path style="fill:none;stroke-width:2;stroke-linecap:butt;stroke-linejoin:round;stroke:rgb(66.27451%,66.27451%,66.27451%);stroke-opacity:1;stroke-miterlimit:10;" d="M 6.5 26 L 7.699219 29 L 24.300781 29 L 25.5 26 Z M 6.5 26 "/>
<path style=" stroke:none;fill-rule:evenodd;fill:rgb(66.27451%,66.27451%,66.27451%);fill-opacity:1;" d="M 6.5 26 L 7.699219 29 L 24.300781 29 L 25.5 26 Z M 6.5 26 "/>
<path style="fill:none;stroke-width:1;stroke-linecap:round;stroke-linejoin:miter;stroke:rgb(66.27451%,66.27451%,66.27451%);stroke-opacity:1;stroke-miterlimit:10;" d="M 6.5 25.5 L 25.5 25.5 "/>
<path style="fill:none;stroke-width:1.5;stroke-linecap:butt;stroke-linejoin:round;stroke:rgb(80.392157%,0%,0%);stroke-opacity:1;stroke-miterlimit:10;" d="M 8.5 2 L 6.5 17 L 25.5 17 L 23.5 2 Z M 8.5 2 "/>
<path style=" stroke:none;fill-rule:evenodd;fill:rgb(80.392157%,0%,0%);fill-opacity:1;" d="M 8.5 2 L 6.5 17 L 25.5 17 L 23.5 2 Z M 8.5 2 "/>
<path style="fill:none;stroke-width:1;stroke-linecap:butt;stroke-linejoin:round;stroke:rgb(56.078431%,0%,0%);stroke-opacity:1;stroke-miterlimit:10;" d="M 6 17 L 25 17 "/>
<path style="fill:none;stroke-width:1;stroke-linecap:butt;stroke-linejoin:round;stroke:rgb(80.392157%,0%,0%);stroke-opacity:1;stroke-miterlimit:10;" d="M 10 6 L 22 6 M 9.5 9 L 22.5 9 M 9 12 L 23 12 "/>
</g>
</svg>
