<?xml version="1.0" encoding="UTF-8"?>
<svg xmlns="http://www.w3.org/2000/svg" xmlns:xlink="http://www.w3.org/1999/xlink" width="32pt" height="32pt" viewBox="0 0 32 32" version="1.1">
<defs>
<linearGradient id="linear0" gradientUnits="userSpaceOnUse" x1="4.48" y1="22.4" x2="9.6" y2="27.52" >
<stop offset="0" style="stop-color:rgb(6.666667%,6.666667%,6.666667%);stop-opacity:1;"/>
<stop offset="0.25" style="stop-color:rgb(16.470588%,16.470588%,16.470588%);stop-opacity:1;"/>
<stop offset="0.4" style="stop-color:rgb(66.27451%,66.27451%,66.27451%);stop-opacity:1;"/>
<stop offset="0.55" style="stop-color:rgb(26.666667%,26.666667%,26.666667%);stop-opacity:1;"/>
<stop offset="1" style="stop-color:rgb(6.666667%,6.666667%,6.666667%);stop-opacity:1;"/>
</linearGradient>
<linearGradient id="linear1" gradientUnits="userSpaceOnUse" x1="11.52" y1="1.92" x2="30.08" y2="20.48" >
<stop offset="0" style="stop-color:rgb(37.254902%,37.254902%,40%);stop-opacity:1;"/>
<stop offset="0.45" style="stop-color:rgb(93.333333%,93.333333%,100%);stop-opacity:1;"/>
<stop offset="1" style="stop-color:rgb(18.823529%,18.823529%,20%);stop-opacity:1;"/>
</linearGradient>
<linearGradient id="linear2" gradientUnits="userSpaceOnUse" x1="12.8" y1="3.2" x2="28.8" y2="19.2" >
<stop offset="0" style="stop-color:rgb(69.019608%,87.843137%,90.196078%);stop-opacity:0.34902;"/>
<stop offset="1" style="stop-color:rgb(41.568627%,52.54902%,54.117647%);stop-opacity:0.34902;"/>
</linearGradient>
</defs>
<g id="surface8546">
<path style="fill:none;stroke-width:5;stroke-linecap:butt;stroke-linejoin:miter;stroke:rgb(100%,100%,100%);stroke-opacity:1;stroke-miterlimit:10;" d="M 22 26 L 28 26 "/>
<path style=" stroke:none;fill-rule:evenodd;fill:rgb(100%,100%,100%);fill-opacity:1;" d="M 26 20 L 32 26 L 26 32 Z M 26 20 "/>
<path style="fill:none;stroke-width:5;stroke-linecap:butt;stroke-linejoin:miter;stroke:rgb(13.333333%,54.509804%,13.333333%);stroke-opacity:1;stroke-miterlimit:10;" d="M 22 26 L 28 26 " transform="matrix(1,0,0,1,-1,-1)"/>
<path style=" stroke:none;fill-rule:evenodd;fill:rgb(13.333333%,54.509804%,13.333333%);fill-opacity:1;" d="M 25 19 L 31 25 L 25 31 Z M 25 19 "/>
<path style="fill:none;stroke-width:5.12;stroke-linecap:square;stroke-linejoin:miter;stroke:url(#linear0);stroke-miterlimit:10;" d="M 11.839844 20.160156 L 3.519531 28.480469 "/>
<path style="fill:none;stroke-width:1.28;stroke-linecap:butt;stroke-linejoin:miter;stroke:url(#linear1);stroke-miterlimit:10;" d="M 30.078125 11.199219 C 30.078125 16.324219 25.925781 20.480469 20.800781 20.480469 C 15.675781 20.480469 11.519531 16.324219 11.519531 11.199219 C 11.519531 6.074219 15.675781 1.921875 20.800781 1.921875 C 25.925781 1.921875 30.078125 6.074219 30.078125 11.199219 Z M 30.078125 11.199219 "/>
<path style="fill:none;stroke-width:3.2;stroke-linecap:butt;stroke-linejoin:miter;stroke:rgb(100%,100%,100%);stroke-opacity:1;stroke-miterlimit:10;" d="M 15.359375 11.199219 C 15.359375 8.195312 17.796875 5.761719 20.800781 5.761719 "/>
<path style=" stroke:none;fill-rule:evenodd;fill:url(#linear2);" d="M 28.800781 11.199219 C 28.800781 15.617188 25.21875 19.199219 20.800781 19.199219 C 16.382812 19.199219 12.800781 15.617188 12.800781 11.199219 C 12.800781 6.78125 16.382812 3.199219 20.800781 3.199219 C 25.21875 3.199219 28.800781 6.78125 28.800781 11.199219 Z M 28.800781 11.199219 "/>
</g>
</svg>
