<?xml version="1.0" encoding="UTF-8"?>
<svg xmlns="http://www.w3.org/2000/svg" xmlns:xlink="http://www.w3.org/1999/xlink" width="32pt" height="32pt" viewBox="0 0 32 32" version="1.1">
<g id="surface8254">
<path style="fill:none;stroke-width:4;stroke-linecap:butt;stroke-linejoin:round;stroke:rgb(85.490196%,64.705882%,12.54902%);stroke-opacity:1;stroke-miterlimit:10;" d="M 2 16 L 24 16 L 24 30 L 2 30 Z M 2 16 " transform="matrix(1,0,0,1,0,-6)"/>
<path style=" stroke:none;fill-rule:evenodd;fill:rgb(85.490196%,64.705882%,12.54902%);fill-opacity:1;" d="M 2 10 L 24 10 L 24 24 L 2 24 Z M 2 10 "/>
<path style="fill:none;stroke-width:2;stroke-linecap:butt;stroke-linejoin:miter;stroke:rgb(85.490196%,64.705882%,12.54902%);stroke-opacity:1;stroke-miterlimit:10;" d="M 2 16 L 2 10 C 2 8.894531 2.894531 8 4 8 L 8 8 C 9.105469 8 10 8.894531 10 10 C 10 10.550781 10.449219 11 11 11 L 22 11 C 23.105469 11 24 11.894531 24 13 L 24 16 " transform="matrix(1,0,0,1,0,-6)"/>
<path style="fill:none;stroke-width:2.938743;stroke-linecap:butt;stroke-linejoin:miter;stroke:rgb(0%,0%,0%);stroke-opacity:1;stroke-miterlimit:10;" d="M 8.914062 18.941406 L 1.828125 26.027344 " transform="matrix(0.000000000000000061,-1,1,0.000000000000000061,0,32)"/>
<path style="fill:none;stroke-width:1.6;stroke-linecap:butt;stroke-linejoin:miter;stroke:rgb(0%,0%,0%);stroke-opacity:1;stroke-miterlimit:10;" d="M 21.484375 13 C 21.484375 16.660156 18.519531 19.628906 14.855469 19.628906 C 11.195312 19.628906 8.230469 16.660156 8.230469 13 C 8.230469 9.339844 11.195312 6.371094 14.855469 6.371094 C 18.519531 6.371094 21.484375 9.339844 21.484375 13 Z M 21.484375 13 " transform="matrix(0.000000000000000061,-1,1,0.000000000000000061,0,32)"/>
<path style="fill:none;stroke-width:1.302857;stroke-linecap:butt;stroke-linejoin:miter;stroke:rgb(0%,0%,0%);stroke-opacity:1;stroke-miterlimit:10;" d="M 14.855469 9.113281 C 17.003906 9.113281 18.742188 10.855469 18.742188 13 " transform="matrix(0.000000000000000061,-1,1,0.000000000000000061,0,32)"/>
</g>
</svg>
