<?xml version="1.0" encoding="UTF-8"?>
<svg xmlns="http://www.w3.org/2000/svg" xmlns:xlink="http://www.w3.org/1999/xlink" width="32pt" height="32pt" viewBox="0 0 32 32" version="1.1">
<defs>
<linearGradient id="linear0" gradientUnits="userSpaceOnUse" x1="0" y1="0" x2="32" y2="0" >
<stop offset="0" style="stop-color:rgb(81.568627%,81.568627%,81.568627%);stop-opacity:1;"/>
<stop offset="1" style="stop-color:rgb(67.058824%,67.058824%,67.058824%);stop-opacity:1;"/>
</linearGradient>
<linearGradient id="linear1" gradientUnits="userSpaceOnUse" x1="0" y1="0" x2="32" y2="0" >
<stop offset="0" style="stop-color:rgb(81.568627%,81.568627%,81.568627%);stop-opacity:1;"/>
<stop offset="1" style="stop-color:rgb(67.058824%,67.058824%,67.058824%);stop-opacity:1;"/>
</linearGradient>
<linearGradient id="linear2" gradientUnits="userSpaceOnUse" x1="0" y1="0" x2="32" y2="0" >
<stop offset="0" style="stop-color:rgb(81.568627%,81.568627%,81.568627%);stop-opacity:1;"/>
<stop offset="1" style="stop-color:rgb(67.058824%,67.058824%,67.058824%);stop-opacity:1;"/>
</linearGradient>
<linearGradient id="linear3" gradientUnits="userSpaceOnUse" x1="0" y1="0" x2="32" y2="32" >
<stop offset="0" style="stop-color:rgb(86.27451%,86.27451%,86.27451%);stop-opacity:1;"/>
<stop offset="1" style="stop-color:rgb(43.137255%,43.137255%,43.137255%);stop-opacity:1;"/>
</linearGradient>
<linearGradient id="linear4" gradientUnits="userSpaceOnUse" x1="0" y1="0" x2="32" y2="32" >
<stop offset="0" style="stop-color:rgb(86.27451%,86.27451%,86.27451%);stop-opacity:1;"/>
<stop offset="1" style="stop-color:rgb(43.137255%,43.137255%,43.137255%);stop-opacity:1;"/>
</linearGradient>
</defs>
<g id="surface8662">
<path style="fill:none;stroke-width:2;stroke-linecap:butt;stroke-linejoin:miter;stroke:url(#linear0);stroke-miterlimit:10;" d="M 2 16 L 2 6 C 2 4.894531 2.894531 4 4 4 L 10 4 C 11.105469 4 12 4.894531 12 6 "/>
<path style="fill-rule:evenodd;fill:url(#linear1);stroke-width:2;stroke-linecap:butt;stroke-linejoin:miter;stroke:url(#linear2);stroke-miterlimit:10;" d="M 2 16 L 2 6 C 2 4.894531 2.894531 4 4 4 L 10 4 C 11.105469 4 12 4.894531 12 6 C 12 6.550781 12.449219 7 13 7 L 28 7 C 29.105469 7 30 7.894531 30 9 L 30 16 Z M 2 16 "/>
<path style="fill:none;stroke-width:4;stroke-linecap:butt;stroke-linejoin:round;stroke:url(#linear3);stroke-miterlimit:10;" d="M 2 12 L 30 12 L 30 27 L 2 27 Z M 2 12 "/>
<path style=" stroke:none;fill-rule:evenodd;fill:url(#linear4);" d="M 2 12 L 30 12 L 30 27 L 2 27 Z M 2 12 "/>
</g>
</svg>
