<?xml version="1.0" encoding="UTF-8"?>
<svg xmlns="http://www.w3.org/2000/svg" xmlns:xlink="http://www.w3.org/1999/xlink" width="32pt" height="32pt" viewBox="0 0 32 32" version="1.1">
<g id="surface8382">
<path style="fill:none;stroke-width:2;stroke-linecap:butt;stroke-linejoin:miter;stroke:rgb(64.705882%,16.470588%,16.470588%);stroke-opacity:1;stroke-miterlimit:10;" d="M 14 0 L 14.000155 32 " transform="matrix(1,0,-0.267949,1,0,0)"/>
<path style="fill:none;stroke-width:2;stroke-linecap:butt;stroke-linejoin:miter;stroke:rgb(64.705882%,16.470588%,16.470588%);stroke-opacity:1;stroke-miterlimit:10;" d="M 18 0 L 18.001509 32 " transform="matrix(1,0,0.309401,1,0,0)"/>
<path style="fill:none;stroke-width:2;stroke-linecap:butt;stroke-linejoin:miter;stroke:rgb(64.705882%,16.470588%,16.470588%);stroke-opacity:1;stroke-miterlimit:10;" d="M 16 0 L 16 28 "/>
<path style="fill:none;stroke-width:1;stroke-linecap:butt;stroke-linejoin:miter;stroke:rgb(64.705882%,16.470588%,16.470588%);stroke-opacity:1;stroke-miterlimit:10;" d="M 2 22.5 L 30 22.5 "/>
<path style="fill-rule:evenodd;fill:rgb(94.117647%,100%,94.117647%);fill-opacity:1;stroke-width:0.5;stroke-linecap:butt;stroke-linejoin:miter;stroke:rgb(65.882353%,69.803922%,65.882353%);stroke-opacity:1;stroke-miterlimit:10;" d="M 4 2 L 1 22 L 31 22 L 28 2 Z M 4 2 "/>
<path style="fill:none;stroke-width:1.5;stroke-linecap:butt;stroke-linejoin:miter;stroke:rgb(100%,64.705882%,0%);stroke-opacity:1;stroke-miterlimit:10;" d="M 32.001647 13 C 31.998066 18.332031 23.998066 18.332031 24.001647 13 C 24.001323 7.667969 32.001323 7.667969 32.001647 13 Z M 32.001647 13 " transform="matrix(1,0,-0.57735,1,0,0)"/>
<path style="fill:none;stroke-width:1.5;stroke-linecap:round;stroke-linejoin:miter;stroke:rgb(0%,0%,100%);stroke-opacity:1;stroke-miterlimit:10;" d="M 7 16 L 25 13 "/>
<path style="fill:none;stroke-width:1;stroke-linecap:round;stroke-linejoin:miter;stroke:rgb(0%,50.196078%,0%);stroke-opacity:1;stroke-miterlimit:10;" d="M 13 5 L 10 18 "/>
<path style="fill:none;stroke-width:2;stroke-linecap:round;stroke-linejoin:miter;stroke:rgb(100%,0%,0%);stroke-opacity:1;stroke-miterlimit:10;" d="M 8 6 L 21 10 "/>
</g>
</svg>
