<?xml version="1.0" encoding="UTF-8"?>
<svg xmlns="http://www.w3.org/2000/svg" xmlns:xlink="http://www.w3.org/1999/xlink" width="32pt" height="32pt" viewBox="0 0 32 32" version="1.1">
<defs>
<linearGradient id="linear0" gradientUnits="userSpaceOnUse" x1="0" y1="0" x2="0" y2="32" >
<stop offset="0" style="stop-color:rgb(65.882353%,56.470588%,43.921569%);stop-opacity:1;"/>
<stop offset="1" style="stop-color:rgb(32.941176%,28.235294%,21.960784%);stop-opacity:1;"/>
</linearGradient>
<linearGradient id="linear1" gradientUnits="userSpaceOnUse" x1="0" y1="0" x2="0" y2="32" gradientTransform="matrix(1,0,-0.57735,1,0,0)">
<stop offset="0" style="stop-color:rgb(65.882353%,56.470588%,43.921569%);stop-opacity:1;"/>
<stop offset="1" style="stop-color:rgb(32.941176%,28.235294%,21.960784%);stop-opacity:1;"/>
</linearGradient>
<linearGradient id="linear2" gradientUnits="userSpaceOnUse" x1="0" y1="0" x2="0" y2="32" gradientTransform="matrix(1,0,-0.267949,1,0,0)">
<stop offset="0" style="stop-color:rgb(65.882353%,56.470588%,43.921569%);stop-opacity:1;"/>
<stop offset="1" style="stop-color:rgb(32.941176%,28.235294%,21.960784%);stop-opacity:1;"/>
</linearGradient>
<linearGradient id="linear3" gradientUnits="userSpaceOnUse" x1="7" y1="1" x2="30" y2="24" >
<stop offset="0" style="stop-color:rgb(100%,100%,94.117647%);stop-opacity:1;"/>
<stop offset="1" style="stop-color:rgb(85.098039%,85.098039%,80%);stop-opacity:1;"/>
</linearGradient>
<linearGradient id="linear4" gradientUnits="userSpaceOnUse" x1="1" y1="2" x2="30" y2="24" >
<stop offset="0" style="stop-color:rgb(69.803922%,69.803922%,65.882353%);stop-opacity:1;"/>
<stop offset="1" style="stop-color:rgb(20%,20%,18.823529%);stop-opacity:1;"/>
</linearGradient>
</defs>
<g id="surface8378">
<path style="fill:none;stroke-width:2;stroke-linecap:butt;stroke-linejoin:miter;stroke:url(#linear0);stroke-miterlimit:10;" d="M 14 0 L 14.000155 32 " transform="matrix(1,0,-0.267949,1,0,0)"/>
<path style="fill:none;stroke-width:2;stroke-linecap:butt;stroke-linejoin:miter;stroke:url(#linear1);stroke-miterlimit:10;" d="M 18 0 L 18.001509 32 " transform="matrix(1,0,0.309401,1,0,0)"/>
<path style="fill:none;stroke-width:2;stroke-linecap:butt;stroke-linejoin:miter;stroke:url(#linear2);stroke-miterlimit:10;" d="M 16 0 L 16 28 "/>
<path style="fill:none;stroke-width:1;stroke-linecap:butt;stroke-linejoin:miter;stroke:rgb(64.705882%,16.470588%,16.470588%);stroke-opacity:1;stroke-miterlimit:10;" d="M 2 22.5 L 30 22.5 "/>
<path style="fill-rule:evenodd;fill:url(#linear3);stroke-width:0.5;stroke-linecap:butt;stroke-linejoin:miter;stroke:url(#linear4);stroke-miterlimit:10;" d="M 4 2 L 1 22 L 31 22 L 28 2 Z M 4 2 "/>
<path style="fill:none;stroke-width:1.5;stroke-linecap:butt;stroke-linejoin:miter;stroke:rgb(100%,64.705882%,0%);stroke-opacity:1;stroke-miterlimit:10;" d="M 32.001647 13 C 31.998066 18.332031 23.998066 18.332031 24.001647 13 C 24.001323 7.667969 32.001323 7.667969 32.001647 13 Z M 32.001647 13 " transform="matrix(1,0,-0.57735,1,0,0)"/>
<path style="fill:none;stroke-width:1.5;stroke-linecap:round;stroke-linejoin:miter;stroke:rgb(0%,0%,100%);stroke-opacity:1;stroke-miterlimit:10;" d="M 7 16 L 25 13 "/>
<path style="fill:none;stroke-width:1;stroke-linecap:round;stroke-linejoin:miter;stroke:rgb(0%,50.196078%,0%);stroke-opacity:1;stroke-miterlimit:10;" d="M 13 5 L 10 18 "/>
<path style="fill:none;stroke-width:2;stroke-linecap:round;stroke-linejoin:miter;stroke:rgb(100%,0%,0%);stroke-opacity:1;stroke-miterlimit:10;" d="M 8 6 L 21 10 "/>
</g>
</svg>
