<?xml version="1.0" encoding="UTF-8"?>
<svg xmlns="http://www.w3.org/2000/svg" xmlns:xlink="http://www.w3.org/1999/xlink" width="32pt" height="32pt" viewBox="0 0 32 32" version="1.1">
<defs>
<linearGradient id="linear0" gradientUnits="userSpaceOnUse" x1="2" y1="2" x2="28" y2="31" >
<stop offset="0" style="stop-color:rgb(86.27451%,58.039216%,33.72549%);stop-opacity:1;"/>
<stop offset="1" style="stop-color:rgb(76.470588%,51.372549%,30.196078%);stop-opacity:1;"/>
</linearGradient>
<linearGradient id="linear1" gradientUnits="userSpaceOnUse" x1="2" y1="2" x2="28" y2="31" >
<stop offset="0" style="stop-color:rgb(95.686275%,64.313725%,37.647059%);stop-opacity:1;"/>
<stop offset="1" style="stop-color:rgb(57.254902%,38.431373%,22.745098%);stop-opacity:1;"/>
</linearGradient>
<linearGradient id="linear2" gradientUnits="userSpaceOnUse" x1="0" y1="9" x2="0" y2="12" gradientTransform="matrix(0.9,0,0,0.9,0,0)">
<stop offset="0" style="stop-color:rgb(29.803922%,29.803922%,29.803922%);stop-opacity:1;"/>
<stop offset="0.6" style="stop-color:rgb(80%,80%,80%);stop-opacity:1;"/>
<stop offset="1" style="stop-color:rgb(0%,0%,0%);stop-opacity:1;"/>
</linearGradient>
<linearGradient id="linear3" gradientUnits="userSpaceOnUse" x1="1" y1="1" x2="20" y2="23" gradientTransform="matrix(1,0,0,1,-0.000000000000001776,-0.000000000000001776)">
<stop offset="0" style="stop-color:rgb(11.764706%,56.470588%,100%);stop-opacity:1;"/>
<stop offset="1" style="stop-color:rgb(7.058824%,33.72549%,60%);stop-opacity:1;"/>
</linearGradient>
<linearGradient id="linear4" gradientUnits="userSpaceOnUse" x1="1" y1="1" x2="20" y2="23" gradientTransform="matrix(0.9,0,0,0.9,12.6,9.9)">
<stop offset="0" style="stop-color:rgb(100%,100%,100%);stop-opacity:1;"/>
<stop offset="1" style="stop-color:rgb(90.196078%,90.196078%,90.196078%);stop-opacity:1;"/>
</linearGradient>
<linearGradient id="linear5" gradientUnits="userSpaceOnUse" x1="1" y1="1" x2="18" y2="21" gradientTransform="matrix(1,0,0,1,-0.000000000000001776,-0.000000000000001776)">
<stop offset="0" style="stop-color:rgb(66.27451%,66.27451%,66.27451%);stop-opacity:1;"/>
<stop offset="1" style="stop-color:rgb(39.607843%,39.607843%,39.607843%);stop-opacity:1;"/>
</linearGradient>
</defs>
<g id="surface8534">
<path style="fill-rule:evenodd;fill:url(#linear0);stroke-width:1.5;stroke-linecap:butt;stroke-linejoin:bevel;stroke:url(#linear1);stroke-miterlimit:10;" d="M 4.001736 4.001736 L 28.003472 4.001736 L 28.003472 31.002604 L 4.001736 31.002604 Z M 4.001736 4.001736 " transform="matrix(0.9,0,0,0.9,0,0)"/>
<path style="fill:none;stroke-width:1;stroke-linecap:butt;stroke-linejoin:miter;stroke:rgb(100%,100%,100%);stroke-opacity:1;stroke-miterlimit:10;" d="M 12.554688 4.390625 C 13.231771 0.536458 18.765625 0.536458 19.447049 4.390625 " transform="matrix(0.9,0,0,0.9,0.9,0.9)"/>
<path style="fill:none;stroke-width:8;stroke-linecap:butt;stroke-linejoin:round;stroke:rgb(100%,100%,100%);stroke-opacity:1;stroke-miterlimit:10;" d="M 11.999132 8.001736 L 19.998264 8.001736 " transform="matrix(0.9,0,0,0.9,0.9,0.9)"/>
<path style=" stroke:none;fill-rule:evenodd;fill:rgb(100%,100%,100%);fill-opacity:1;" d="M 9 11.699219 C 9 10.207031 10.207031 9 11.699219 9 L 18.898438 9 C 20.390625 9 21.601562 10.207031 21.601562 11.699219 Z M 9 11.699219 "/>
<path style="fill:none;stroke-width:1;stroke-linecap:butt;stroke-linejoin:miter;stroke:rgb(0%,0%,0%);stroke-opacity:1;stroke-miterlimit:10;" d="M 12.552083 4.392361 C 13.233507 0.533854 18.767361 0.533854 19.448785 4.392361 " transform="matrix(0.9,0,0,0.9,0,0)"/>
<path style="fill:none;stroke-width:8;stroke-linecap:butt;stroke-linejoin:round;stroke:rgb(0%,0%,0%);stroke-opacity:1;stroke-miterlimit:10;" d="M 12.000868 7.999132 L 20 7.999132 " transform="matrix(0.9,0,0,0.9,0,0)"/>
<path style=" stroke:none;fill-rule:evenodd;fill:url(#linear2);" d="M 8.101562 10.800781 C 8.101562 9.308594 9.308594 8.101562 10.800781 8.101562 L 18 8.101562 C 19.492188 8.101562 20.699219 9.308594 20.699219 10.800781 Z M 8.101562 10.800781 "/>
<path style="fill:none;stroke-width:2;stroke-linecap:butt;stroke-linejoin:round;stroke:url(#linear3);stroke-miterlimit:10;" d="M 19.498264 11.999132 L 19.498264 21.000868 C 19.498264 21.829861 18.829861 22.498264 18.000868 22.498264 L 3.000868 22.498264 C 2.171875 22.498264 1.499132 21.829861 1.499132 21.000868 L 1.499132 3.001736 C 1.499132 2.172743 2.171875 1.5 3.000868 1.5 L 18.000868 1.5 C 18.829861 1.5 19.498264 2.172743 19.498264 3.001736 Z M 19.498264 11.999132 " transform="matrix(0.9,0,0,0.9,12.6,9.9)"/>
<path style=" stroke:none;fill-rule:evenodd;fill:url(#linear4);" d="M 30.148438 20.699219 L 30.148438 28.800781 C 30.148438 29.546875 29.546875 30.148438 28.800781 30.148438 L 15.300781 30.148438 C 14.554688 30.148438 13.949219 29.546875 13.949219 28.800781 L 13.949219 12.601562 C 13.949219 11.855469 14.554688 11.25 15.300781 11.25 L 28.800781 11.25 C 29.546875 11.25 30.148438 11.855469 30.148438 12.601562 Z M 30.148438 20.699219 "/>
<path style="fill:none;stroke-width:1;stroke-linecap:butt;stroke-linejoin:miter;stroke:url(#linear5);stroke-miterlimit:10;" d="M 3.000868 6.000868 L 16.998264 6.000868 M 3.000868 9.998264 L 6 9.998264 M 3.000868 14 L 13.999132 14 M 3.000868 18.001736 L 11.998264 18.001736 " transform="matrix(0.9,0,0,0.9,12.6,9.9)"/>
</g>
</svg>
