<?xml version="1.0" encoding="UTF-8"?>
<svg xmlns="http://www.w3.org/2000/svg" xmlns:xlink="http://www.w3.org/1999/xlink" width="32pt" height="32pt" viewBox="0 0 32 32" version="1.1">
<defs>
<linearGradient id="linear0" gradientUnits="userSpaceOnUse" x1="0" y1="12" x2="0" y2="19" gradientTransform="matrix(0.000000000000000061,1,-1,0.000000000000000061,32,0)">
<stop offset="0" style="stop-color:rgb(60%,50.588235%,0%);stop-opacity:1;"/>
<stop offset="0.5" style="stop-color:rgb(100%,84.313725%,0%);stop-opacity:1;"/>
<stop offset="1" style="stop-color:rgb(60%,50.588235%,0%);stop-opacity:1;"/>
</linearGradient>
<linearGradient id="linear1" gradientUnits="userSpaceOnUse" x1="0" y1="12" x2="0" y2="19" gradientTransform="matrix(0.000000000000000061,1,-1,0.000000000000000061,32,0)">
<stop offset="0" style="stop-color:rgb(60%,50.588235%,0%);stop-opacity:1;"/>
<stop offset="0.5" style="stop-color:rgb(100%,84.313725%,0%);stop-opacity:1;"/>
<stop offset="1" style="stop-color:rgb(60%,50.588235%,0%);stop-opacity:1;"/>
</linearGradient>
<linearGradient id="linear2" gradientUnits="userSpaceOnUse" x1="6" y1="0" x2="24" y2="0" gradientTransform="matrix(0.000000000000000061,1,-1,0.000000000000000061,32,0)">
<stop offset="0" style="stop-color:rgb(100%,27.058824%,0%);stop-opacity:1;"/>
<stop offset="1" style="stop-color:rgb(50.196078%,13.333333%,0%);stop-opacity:1;"/>
</linearGradient>
<linearGradient id="linear3" gradientUnits="userSpaceOnUse" x1="6" y1="0" x2="24" y2="0" gradientTransform="matrix(0.000000000000000061,1,-1,0.000000000000000061,32,0)">
<stop offset="0" style="stop-color:rgb(100%,27.058824%,0%);stop-opacity:1;"/>
<stop offset="1" style="stop-color:rgb(50.196078%,13.333333%,0%);stop-opacity:1;"/>
</linearGradient>
<linearGradient id="linear4" gradientUnits="userSpaceOnUse" x1="6" y1="0" x2="24" y2="0" gradientTransform="matrix(0.000000000000000061,1,-1,0.000000000000000061,32,0)">
<stop offset="0" style="stop-color:rgb(100%,27.058824%,0%);stop-opacity:1;"/>
<stop offset="1" style="stop-color:rgb(50.196078%,13.333333%,0%);stop-opacity:1;"/>
</linearGradient>
</defs>
<g id="surface8278">
<path style=" stroke:none;fill-rule:evenodd;fill:url(#linear0);" d="M 16 3 C 10.667969 3 10.667969 1 16 1 C 21.332031 1 21.332031 3 16 3 Z M 16 3 "/>
<path style=" stroke:none;fill-rule:evenodd;fill:url(#linear1);" d="M 20 2 L 20 30 L 12 30 L 12 2 Z M 20 2 "/>
<path style=" stroke:none;fill-rule:evenodd;fill:rgb(60%,50.588235%,0%);fill-opacity:1;" d="M 16 31 C 10.667969 31 10.667969 29 16 29 C 21.332031 29 21.332031 31 16 31 Z M 16 31 "/>
<path style=" stroke:none;fill-rule:evenodd;fill:url(#linear2);" d="M 10 10 L 10 20 L 22 20 L 22 10 Z M 10 10 "/>
<path style=" stroke:none;fill-rule:evenodd;fill:url(#linear3);" d="M 10 5 L 0 15 L 10 25 Z M 10 5 "/>
<path style=" stroke:none;fill-rule:evenodd;fill:url(#linear4);" d="M 22 5 L 32 15 L 22 25 Z M 22 5 "/>
</g>
</svg>
