<?xml version="1.0" encoding="UTF-8"?>
<svg xmlns="http://www.w3.org/2000/svg" xmlns:xlink="http://www.w3.org/1999/xlink" width="32pt" height="32pt" viewBox="0 0 32 32" version="1.1">
<defs>
<linearGradient id="linear0" gradientUnits="userSpaceOnUse" x1="0" y1="0" x2="32" y2="0" >
<stop offset="0" style="stop-color:rgb(100%,27.058824%,0%);stop-opacity:1;"/>
<stop offset="1" style="stop-color:rgb(65.098039%,17.647059%,0%);stop-opacity:1;"/>
</linearGradient>
<radialGradient id="radial0" gradientUnits="userSpaceOnUse" cx="18" cy="16" fx="18" fy="16" r="4" gradientTransform="matrix(0.000000000000000061,1,1,-0.000000000000000061,0,0.000000000000001959)">
<stop offset="0" style="stop-color:rgb(100%,84.313725%,0%);stop-opacity:1;"/>
<stop offset="1" style="stop-color:rgb(65.098039%,54.901961%,0%);stop-opacity:1;"/>
</radialGradient>
<linearGradient id="linear1" gradientUnits="userSpaceOnUse" x1="0" y1="0" x2="32" y2="0" gradientTransform="matrix(0.000000000000000061,1,1,-0.000000000000000061,0,0.000000000000001959)">
<stop offset="0" style="stop-color:rgb(100%,27.058824%,0%);stop-opacity:1;"/>
<stop offset="1" style="stop-color:rgb(65.098039%,17.647059%,0%);stop-opacity:1;"/>
</linearGradient>
</defs>
<g id="surface8286">
<path style="fill:none;stroke-width:8;stroke-linecap:butt;stroke-linejoin:miter;stroke:url(#linear0);stroke-miterlimit:10;" d="M 8 15.175781 C 7.953125 12.507812 8.976562 9.933594 10.835937 8.023438 C 12.699219 6.113281 15.246094 5.023437 17.914062 5 C 20.578125 4.976562 23.144531 6.019531 25.039062 7.898437 C 26.933594 9.777344 28 12.332031 28 15 L 28 20 M 8 15 L 8 22 " transform="matrix(0.000000000000000061,1,1,-0.000000000000000061,0,0.000000000000001959)"/>
<path style=" stroke:none;fill-rule:evenodd;fill:url(#radial0);" d="M 16 22 C 21.332031 22 21.332031 14 16 14 C 10.667969 14 10.667969 22 16 22 Z M 16 22 "/>
<path style=" stroke:none;fill-rule:evenodd;fill:url(#linear1);" d="M 22 0 L 32 8 L 22 16 Z M 22 0 "/>
</g>
</svg>
