<?xml version="1.0" encoding="UTF-8"?>
<svg xmlns="http://www.w3.org/2000/svg" xmlns:xlink="http://www.w3.org/1999/xlink" width="32pt" height="32pt" viewBox="0 0 32 32" version="1.1">
<defs>
<linearGradient id="linear0" gradientUnits="userSpaceOnUse" x1="0" y1="10" x2="0" y2="17" gradientTransform="matrix(0.000000000000000061,1,1,-0.000000000000000061,0,0.000000000000001959)">
<stop offset="0" style="stop-color:rgb(60%,50.588235%,0%);stop-opacity:1;"/>
<stop offset="0.5" style="stop-color:rgb(100%,84.313725%,0%);stop-opacity:1;"/>
<stop offset="1" style="stop-color:rgb(60%,50.588235%,0%);stop-opacity:1;"/>
</linearGradient>
<linearGradient id="linear1" gradientUnits="userSpaceOnUse" x1="0" y1="10" x2="0" y2="17" gradientTransform="matrix(0.000000000000000061,1,1,-0.000000000000000061,0,0.000000000000001959)">
<stop offset="0" style="stop-color:rgb(60%,50.588235%,0%);stop-opacity:1;"/>
<stop offset="0.5" style="stop-color:rgb(100%,84.313725%,0%);stop-opacity:1;"/>
<stop offset="1" style="stop-color:rgb(60%,50.588235%,0%);stop-opacity:1;"/>
</linearGradient>
<linearGradient id="linear2" gradientUnits="userSpaceOnUse" x1="0" y1="0" x2="32" y2="0" gradientTransform="matrix(0.000000000000000061,1,1,-0.000000000000000061,0,0.000000000000001959)">
<stop offset="0" style="stop-color:rgb(100%,27.058824%,0%);stop-opacity:1;"/>
<stop offset="1" style="stop-color:rgb(50.196078%,13.333333%,0%);stop-opacity:1;"/>
</linearGradient>
<linearGradient id="linear3" gradientUnits="userSpaceOnUse" x1="0" y1="0" x2="32" y2="0" gradientTransform="matrix(0.000000000000000061,1,1,-0.000000000000000061,0,0.000000000000001959)">
<stop offset="0" style="stop-color:rgb(100%,27.058824%,0%);stop-opacity:1;"/>
<stop offset="1" style="stop-color:rgb(50.196078%,13.333333%,0%);stop-opacity:1;"/>
</linearGradient>
</defs>
<g id="surface8274">
<path style=" stroke:none;fill-rule:evenodd;fill:rgb(66.27451%,66.27451%,66.27451%);fill-opacity:1;" d="M 0 18 C 0 20 10 24 18 24 L 18 32 C 10 32 4 32 0 26 Z M 0 18 "/>
<path style=" stroke:none;fill-rule:evenodd;fill:url(#linear0);" d="M 14 3.199219 C 19.332031 3.199219 19.332031 0.800781 14 0.800781 C 8.667969 0.800781 8.667969 3.199219 14 3.199219 Z M 14 3.199219 "/>
<path style=" stroke:none;fill-rule:evenodd;fill:url(#linear1);" d="M 10 2 L 10 30 L 18 30 L 18 2 Z M 10 2 "/>
<path style=" stroke:none;fill-rule:evenodd;fill:rgb(60%,50.588235%,0%);fill-opacity:1;" d="M 14 31.199219 C 19.332031 31.199219 19.332031 28.800781 14 28.800781 C 8.667969 28.800781 8.667969 31.199219 14 31.199219 Z M 14 31.199219 "/>
<path style=" stroke:none;fill-rule:evenodd;fill:url(#linear2);" d="M 0 18 C 0 6 10 6 20 6 L 20 18 C 10 18 0 18 0 26 Z M 0 18 "/>
<path style=" stroke:none;fill-rule:evenodd;fill:url(#linear3);" d="M 20 0 L 32 12 L 20 24 Z M 20 0 "/>
</g>
</svg>
