<?xml version="1.0" encoding="UTF-8"?>
<svg xmlns="http://www.w3.org/2000/svg" xmlns:xlink="http://www.w3.org/1999/xlink" width="32pt" height="32pt" viewBox="0 0 32 32" version="1.1">
<defs>
<linearGradient id="linear0" gradientUnits="userSpaceOnUse" x1="0" y1="10" x2="0" y2="17" gradientTransform="matrix(1,0,0,-1,0,32)">
<stop offset="0" style="stop-color:rgb(60%,50.588235%,0%);stop-opacity:1;"/>
<stop offset="0.5" style="stop-color:rgb(100%,84.313725%,0%);stop-opacity:1;"/>
<stop offset="1" style="stop-color:rgb(60%,50.588235%,0%);stop-opacity:1;"/>
</linearGradient>
<linearGradient id="linear1" gradientUnits="userSpaceOnUse" x1="0" y1="10" x2="0" y2="17" gradientTransform="matrix(1,0,0,-1,0,32)">
<stop offset="0" style="stop-color:rgb(60%,50.588235%,0%);stop-opacity:1;"/>
<stop offset="0.5" style="stop-color:rgb(100%,84.313725%,0%);stop-opacity:1;"/>
<stop offset="1" style="stop-color:rgb(60%,50.588235%,0%);stop-opacity:1;"/>
</linearGradient>
<linearGradient id="linear2" gradientUnits="userSpaceOnUse" x1="0" y1="0" x2="32" y2="0" gradientTransform="matrix(1,0,0,-1,0,32)">
<stop offset="0" style="stop-color:rgb(100%,27.058824%,0%);stop-opacity:1;"/>
<stop offset="1" style="stop-color:rgb(50.196078%,13.333333%,0%);stop-opacity:1;"/>
</linearGradient>
<linearGradient id="linear3" gradientUnits="userSpaceOnUse" x1="0" y1="0" x2="32" y2="0" gradientTransform="matrix(1,0,0,-1,0,32)">
<stop offset="0" style="stop-color:rgb(100%,27.058824%,0%);stop-opacity:1;"/>
<stop offset="1" style="stop-color:rgb(50.196078%,13.333333%,0%);stop-opacity:1;"/>
</linearGradient>
</defs>
<g id="surface8262">
<path style=" stroke:none;fill-rule:evenodd;fill:rgb(66.27451%,66.27451%,66.27451%);fill-opacity:1;" d="M 18 32 C 20 32 24 22 24 14 L 32 14 C 32 22 32 28 26 32 Z M 18 32 "/>
<path style=" stroke:none;fill-rule:evenodd;fill:url(#linear0);" d="M 3.199219 18 C 3.199219 12.667969 0.800781 12.667969 0.800781 18 C 0.800781 23.332031 3.199219 23.332031 3.199219 18 Z M 3.199219 18 "/>
<path style=" stroke:none;fill-rule:evenodd;fill:url(#linear1);" d="M 2 22 L 30 22 L 30 14 L 2 14 Z M 2 22 "/>
<path style=" stroke:none;fill-rule:evenodd;fill:rgb(60%,50.588235%,0%);fill-opacity:1;" d="M 31.199219 18 C 31.199219 12.667969 28.800781 12.667969 28.800781 18 C 28.800781 23.332031 31.199219 23.332031 31.199219 18 Z M 31.199219 18 "/>
<path style=" stroke:none;fill-rule:evenodd;fill:url(#linear2);" d="M 18 32 C 6 32 6 22 6 12 L 18 12 C 18 22 18 32 26 32 Z M 18 32 "/>
<path style=" stroke:none;fill-rule:evenodd;fill:url(#linear3);" d="M 0 12 L 12 0 L 24 12 Z M 0 12 "/>
</g>
</svg>
