<?xml version="1.0" encoding="UTF-8"?>
<svg xmlns="http://www.w3.org/2000/svg" xmlns:xlink="http://www.w3.org/1999/xlink" width="32pt" height="32pt" viewBox="0 0 32 32" version="1.1">
<defs>
<linearGradient id="linear0" gradientUnits="userSpaceOnUse" x1="0" y1="10" x2="0" y2="17" >
<stop offset="0" style="stop-color:rgb(45.098039%,45.098039%,45.098039%);stop-opacity:1;"/>
<stop offset="0.5" style="stop-color:rgb(75.294118%,75.294118%,75.294118%);stop-opacity:1;"/>
<stop offset="1" style="stop-color:rgb(45.098039%,45.098039%,45.098039%);stop-opacity:1;"/>
</linearGradient>
<linearGradient id="linear1" gradientUnits="userSpaceOnUse" x1="0" y1="10" x2="0" y2="17" >
<stop offset="0" style="stop-color:rgb(45.098039%,45.098039%,45.098039%);stop-opacity:1;"/>
<stop offset="0.5" style="stop-color:rgb(75.294118%,75.294118%,75.294118%);stop-opacity:1;"/>
<stop offset="1" style="stop-color:rgb(45.098039%,45.098039%,45.098039%);stop-opacity:1;"/>
</linearGradient>
<linearGradient id="linear2" gradientUnits="userSpaceOnUse" x1="0" y1="0" x2="32" y2="0" >
<stop offset="0" style="stop-color:rgb(66.27451%,66.27451%,66.27451%);stop-opacity:1;"/>
<stop offset="1" style="stop-color:rgb(32.941176%,32.941176%,32.941176%);stop-opacity:1;"/>
</linearGradient>
<linearGradient id="linear3" gradientUnits="userSpaceOnUse" x1="0" y1="0" x2="32" y2="0" >
<stop offset="0" style="stop-color:rgb(66.27451%,66.27451%,66.27451%);stop-opacity:1;"/>
<stop offset="1" style="stop-color:rgb(32.941176%,32.941176%,32.941176%);stop-opacity:1;"/>
</linearGradient>
</defs>
<g id="surface8682">
<path style=" stroke:none;fill-rule:evenodd;fill:rgb(86.27451%,86.27451%,86.27451%);fill-opacity:1;" d="M 18 0 C 20 0 24 10 24 18 L 32 18 C 32 10 32 4 26 0 Z M 18 0 "/>
<path style=" stroke:none;fill-rule:evenodd;fill:url(#linear0);" d="M 3.199219 14 C 3.199219 19.332031 0.800781 19.332031 0.800781 14 C 0.800781 8.667969 3.199219 8.667969 3.199219 14 Z M 3.199219 14 "/>
<path style=" stroke:none;fill-rule:evenodd;fill:url(#linear1);" d="M 2 10 L 30 10 L 30 18 L 2 18 Z M 2 10 "/>
<path style=" stroke:none;fill-rule:evenodd;fill:rgb(45.098039%,45.098039%,45.098039%);fill-opacity:1;" d="M 31.199219 14 C 31.199219 19.332031 28.800781 19.332031 28.800781 14 C 28.800781 8.667969 31.199219 8.667969 31.199219 14 Z M 31.199219 14 "/>
<path style=" stroke:none;fill-rule:evenodd;fill:url(#linear2);" d="M 18 0 C 6 0 6 10 6 20 L 18 20 C 18 10 18 0 26 0 Z M 18 0 "/>
<path style=" stroke:none;fill-rule:evenodd;fill:url(#linear3);" d="M 0 20 L 12 32 L 24 20 Z M 0 20 "/>
</g>
</svg>
