<?xml version="1.0" encoding="UTF-8"?>
<svg xmlns="http://www.w3.org/2000/svg" xmlns:xlink="http://www.w3.org/1999/xlink" width="32pt" height="32pt" viewBox="0 0 32 32" version="1.1">
<g id="surface8890">
<path style="fill:none;stroke-width:0.5;stroke-linecap:butt;stroke-linejoin:miter;stroke:rgb(82.745098%,82.745098%,82.745098%);stroke-opacity:1;stroke-miterlimit:10;" d="M 18 6 L 18 31 " transform="matrix(0.000000000000000061,1,-1,0.000000000000000061,38,0)"/>
<path style="fill:none;stroke-width:1;stroke-linecap:square;stroke-linejoin:miter;stroke:rgb(82.745098%,82.745098%,82.745098%);stroke-opacity:1;stroke-dasharray:0,2;stroke-miterlimit:10;" d="M 14 25 L 14 13 L 8 19 Z M 14 25 " transform="matrix(0.000000000000000061,1,-1,0.000000000000000061,38,0)"/>
<path style="fill:none;stroke-width:2;stroke-linecap:butt;stroke-linejoin:miter;stroke:rgb(82.745098%,82.745098%,82.745098%);stroke-opacity:1;stroke-miterlimit:10;" d="M 22 25 L 22 13 L 28 19 Z M 22 25 " transform="matrix(0.000000000000000061,1,-1,0.000000000000000061,38,0)"/>
<path style=" stroke:none;fill-rule:evenodd;fill:rgb(82.745098%,82.745098%,82.745098%);fill-opacity:1;" d="M 13 26 L 5 26 L 9 30 Z M 13 26 "/>
<path style="fill:none;stroke-width:0.5;stroke-linecap:butt;stroke-linejoin:miter;stroke:rgb(50.196078%,50.196078%,50.196078%);stroke-opacity:1;stroke-miterlimit:10;" d="M 15 3 L 15 28 " transform="matrix(0.000000000000000061,1,-1,0.000000000000000061,32,0.000000000000000367)"/>
<path style="fill:none;stroke-width:1;stroke-linecap:square;stroke-linejoin:miter;stroke:rgb(50.196078%,50.196078%,50.196078%);stroke-opacity:1;stroke-dasharray:0,2;stroke-miterlimit:10;" d="M 11 22 L 11 10 L 5 16 Z M 11 22 " transform="matrix(0.000000000000000061,1,-1,0.000000000000000061,32,0.000000000000000367)"/>
<path style="fill:none;stroke-width:2;stroke-linecap:butt;stroke-linejoin:miter;stroke:rgb(50.196078%,50.196078%,50.196078%);stroke-opacity:1;stroke-miterlimit:10;" d="M 19 22 L 19 10 L 25 16 Z M 19 22 " transform="matrix(0.000000000000000061,1,-1,0.000000000000000061,32,0.000000000000000367)"/>
<path style=" stroke:none;fill-rule:evenodd;fill:rgb(50.196078%,50.196078%,50.196078%);fill-opacity:1;" d="M 10 23 L 2 23 L 6 27 Z M 10 23 "/>
</g>
</svg>
