<?xml version="1.0" encoding="UTF-8"?>
<svg xmlns="http://www.w3.org/2000/svg" xmlns:xlink="http://www.w3.org/1999/xlink" width="32pt" height="32pt" viewBox="0 0 32 32" version="1.1">
<g id="surface8878">
<path style=" stroke:none;fill-rule:evenodd;fill:rgb(82.745098%,82.745098%,82.745098%);fill-opacity:1;" d="M 6 8 L 10.5 8 L 10.5 29 L 6 29 Z M 6 8 "/>
<path style=" stroke:none;fill-rule:evenodd;fill:rgb(82.745098%,82.745098%,82.745098%);fill-opacity:1;" d="M 12 8 L 16.5 8 L 16.5 29 L 12 29 Z M 12 8 "/>
<path style=" stroke:none;fill-rule:evenodd;fill:rgb(82.745098%,82.745098%,82.745098%);fill-opacity:1;" d="M 18 8 L 22.5 8 L 22.5 29 L 18 29 Z M 18 8 "/>
<path style=" stroke:none;fill-rule:evenodd;fill:rgb(82.745098%,82.745098%,82.745098%);fill-opacity:1;" d="M 24 8 L 26.25 8 L 26.25 10.25 L 24 10.25 Z M 26.25 10.25 L 28.5 10.25 L 28.5 12.5 L 26.25 12.5 Z M 24 12.5 L 26.25 12.5 L 26.25 14.75 L 24 14.75 Z M 26.25 14.75 L 28.5 14.75 L 28.5 17 L 26.25 17 Z M 24 17 L 26.25 17 L 26.25 19.25 L 24 19.25 Z M 26.25 19.25 L 28.5 19.25 L 28.5 21.5 L 26.25 21.5 Z M 24 21.5 L 26.25 21.5 L 26.25 23.75 L 24 23.75 Z M 26.25 23.75 L 28.5 23.75 L 28.5 26 L 26.25 26 Z M 24 26 L 26.25 26 L 26.25 28.25 L 24 28.25 Z M 26.25 28.25 L 28.5 28.25 L 28.5 29.25 L 26.25 29.25 Z M 26.25 28.25 "/>
<path style=" stroke:none;fill-rule:evenodd;fill:rgb(50.196078%,50.196078%,50.196078%);fill-opacity:1;" d="M 3 5 L 7.5 5 L 7.5 26 L 3 26 Z M 3 5 "/>
<path style=" stroke:none;fill-rule:evenodd;fill:rgb(50.196078%,50.196078%,50.196078%);fill-opacity:1;" d="M 9 5 L 13.5 5 L 13.5 26 L 9 26 Z M 9 5 "/>
<path style=" stroke:none;fill-rule:evenodd;fill:rgb(50.196078%,50.196078%,50.196078%);fill-opacity:1;" d="M 15 5 L 19.5 5 L 19.5 26 L 15 26 Z M 15 5 "/>
<path style=" stroke:none;fill-rule:evenodd;fill:rgb(50.196078%,50.196078%,50.196078%);fill-opacity:1;" d="M 21 5 L 23.25 5 L 23.25 7.25 L 21 7.25 Z M 23.25 7.25 L 25.5 7.25 L 25.5 9.5 L 23.25 9.5 Z M 21 9.5 L 23.25 9.5 L 23.25 11.75 L 21 11.75 Z M 23.25 11.75 L 25.5 11.75 L 25.5 14 L 23.25 14 Z M 21 14 L 23.25 14 L 23.25 16.25 L 21 16.25 Z M 23.25 16.25 L 25.5 16.25 L 25.5 18.5 L 23.25 18.5 Z M 21 18.5 L 23.25 18.5 L 23.25 20.75 L 21 20.75 Z M 23.25 20.75 L 25.5 20.75 L 25.5 23 L 23.25 23 Z M 21 23 L 23.25 23 L 23.25 25.25 L 21 25.25 Z M 23.25 25.25 L 25.5 25.25 L 25.5 26.25 L 23.25 26.25 Z M 23.25 25.25 "/>
</g>
</svg>
