<?xml version="1.0" encoding="UTF-8"?>
<svg xmlns="http://www.w3.org/2000/svg" xmlns:xlink="http://www.w3.org/1999/xlink" width="32pt" height="32pt" viewBox="0 0 32 32" version="1.1">
<g id="surface8858">
<path style="fill:none;stroke-width:2;stroke-linecap:butt;stroke-linejoin:miter;stroke:rgb(82.745098%,82.745098%,82.745098%);stroke-opacity:1;stroke-miterlimit:10;" d="M 7 7 L 11 7 L 11 11 L 7 11 Z M 25 7 L 29 7 L 29 11 L 25 11 Z M 7 25 L 11 25 L 11 29 L 7 29 Z M 25 25 L 29 25 L 29 29 L 25 29 Z M 25 25 "/>
<path style="fill-rule:evenodd;fill:rgb(66.27451%,66.27451%,66.27451%);fill-opacity:1;stroke-width:1.5;stroke-linecap:butt;stroke-linejoin:miter;stroke:rgb(82.745098%,82.745098%,82.745098%);stroke-opacity:1;stroke-dasharray:2;stroke-miterlimit:10;" d="M 9 9 L 27 9 L 27 27 L 9 27 Z M 9 9 "/>
<path style="fill:none;stroke-width:2;stroke-linecap:butt;stroke-linejoin:miter;stroke:rgb(82.745098%,82.745098%,82.745098%);stroke-opacity:1;stroke-miterlimit:10;" d="M 4 4 L 8 4 L 8 8 L 4 8 Z M 22 4 L 26 4 L 26 8 L 22 8 Z M 4 22 L 8 22 L 8 26 L 4 26 Z M 22 22 L 26 22 L 26 26 L 22 26 Z M 22 22 "/>
<path style="fill-rule:evenodd;fill:rgb(66.27451%,66.27451%,66.27451%);fill-opacity:1;stroke-width:1.5;stroke-linecap:butt;stroke-linejoin:miter;stroke:rgb(50.196078%,50.196078%,50.196078%);stroke-opacity:1;stroke-dasharray:2;stroke-miterlimit:10;" d="M 6 6 L 24 6 L 24 24 L 6 24 Z M 6 6 "/>
</g>
</svg>
