<?xml version="1.0" encoding="UTF-8"?>
<svg xmlns="http://www.w3.org/2000/svg" xmlns:xlink="http://www.w3.org/1999/xlink" width="32pt" height="32pt" viewBox="0 0 32 32" version="1.1">
<defs>
<linearGradient id="linear0" gradientUnits="userSpaceOnUse" x1="0" y1="0" x2="32" y2="32" >
<stop offset="0" style="stop-color:rgb(94.901961%,94.901961%,89.411765%);stop-opacity:1;"/>
<stop offset="1" style="stop-color:rgb(85.098039%,85.098039%,80%);stop-opacity:1;"/>
</linearGradient>
<linearGradient id="linear1" gradientUnits="userSpaceOnUse" x1="0" y1="0" x2="32" y2="32" >
<stop offset="0" style="stop-color:rgb(100%,100%,94.117647%);stop-opacity:1;"/>
<stop offset="1" style="stop-color:rgb(80%,80%,75.294118%);stop-opacity:1;"/>
</linearGradient>
</defs>
<g id="surface8470">
<path style="fill-rule:evenodd;fill:url(#linear0);stroke-width:1;stroke-linecap:butt;stroke-linejoin:miter;stroke:url(#linear1);stroke-miterlimit:10;" d="M 1 1 L 1 31 L 31 31 L 31 1 Z M 1 1 "/>
<path style="fill:none;stroke-width:2;stroke-linecap:butt;stroke-linejoin:miter;stroke:rgb(75.294118%,75.294118%,75.294118%);stroke-opacity:1;stroke-miterlimit:10;" d="M 14 14 L 22 14 L 22 22 L 14 22 Z M 14 14 "/>
<path style="fill:none;stroke-width:1;stroke-linecap:butt;stroke-linejoin:miter;stroke:rgb(75.294118%,75.294118%,75.294118%);stroke-opacity:1;stroke-miterlimit:10;" d="M 28.164062 13.789062 C 30.328125 19.015625 28.175781 25.035156 23.183594 27.699219 C 18.195312 30.367188 11.996094 28.816406 8.855469 24.109375 C 5.710938 19.40625 6.648438 13.085938 11.023438 9.496094 C 15.394531 5.90625 21.777344 6.222656 25.777344 10.222656 "/>
<path style=" stroke:none;fill-rule:evenodd;fill:rgb(75.294118%,75.294118%,75.294118%);fill-opacity:1;" d="M 27.5 6 L 27.5 12 L 21.5 12 Z M 27.5 6 "/>
<path style="fill:none;stroke-width:2;stroke-linecap:butt;stroke-linejoin:miter;stroke:rgb(0%,0%,0%);stroke-opacity:1;stroke-miterlimit:10;" d="M 11 11 L 19 11 L 19 19 L 11 19 Z M 11 11 "/>
<path style="fill:none;stroke-width:1;stroke-linecap:butt;stroke-linejoin:miter;stroke:rgb(0%,0%,0%);stroke-opacity:1;stroke-miterlimit:10;" d="M 25.164062 10.789062 C 27.328125 16.015625 25.175781 22.035156 20.183594 24.699219 C 15.195312 27.367188 8.996094 25.816406 5.855469 21.109375 C 2.710938 16.40625 3.648438 10.085938 8.023438 6.496094 C 12.394531 2.90625 18.777344 3.222656 22.777344 7.222656 "/>
<path style=" stroke:none;fill-rule:evenodd;fill:rgb(0%,0%,0%);fill-opacity:1;" d="M 24.5 3 L 24.5 9 L 18.5 9 Z M 24.5 3 "/>
</g>
</svg>
