<?xml version="1.0" encoding="UTF-8"?>
<svg xmlns="http://www.w3.org/2000/svg" xmlns:xlink="http://www.w3.org/1999/xlink" width="32pt" height="32pt" viewBox="0 0 32 32" version="1.1">
<g id="surface8942">
<path style="fill-rule:evenodd;fill:rgb(82.745098%,82.745098%,82.745098%);fill-opacity:1;stroke-width:1;stroke-linecap:butt;stroke-linejoin:miter;stroke:rgb(82.745098%,82.745098%,82.745098%);stroke-opacity:1;stroke-miterlimit:10;" d="M 6 22 L 18 14 L 30 22 L 18 30 Z M 6 22 "/>
<path style="fill-rule:evenodd;fill:rgb(82.745098%,82.745098%,82.745098%);fill-opacity:1;stroke-width:1;stroke-linecap:butt;stroke-linejoin:miter;stroke:rgb(82.745098%,82.745098%,82.745098%);stroke-opacity:1;stroke-miterlimit:10;" d="M 6 18 L 18 10 L 30 18 L 18 26 Z M 6 18 "/>
<path style="fill-rule:evenodd;fill:rgb(82.745098%,82.745098%,82.745098%);fill-opacity:1;stroke-width:1;stroke-linecap:butt;stroke-linejoin:miter;stroke:rgb(82.745098%,82.745098%,82.745098%);stroke-opacity:1;stroke-miterlimit:10;" d="M 6 14 L 18 6 L 30 14 L 18 22 Z M 6 14 "/>
<path style="fill-rule:evenodd;fill:rgb(66.27451%,66.27451%,66.27451%);fill-opacity:1;stroke-width:1;stroke-linecap:butt;stroke-linejoin:miter;stroke:rgb(63.137255%,63.137255%,63.137255%);stroke-opacity:1;stroke-miterlimit:10;" d="M 3 19 L 15 11 L 27 19 L 15 27 Z M 3 19 "/>
<path style="fill-rule:evenodd;fill:rgb(82.745098%,82.745098%,82.745098%);fill-opacity:1;stroke-width:1;stroke-linecap:butt;stroke-linejoin:miter;stroke:rgb(78.431373%,78.431373%,78.431373%);stroke-opacity:1;stroke-miterlimit:10;" d="M 3 15 L 15 7 L 27 15 L 15 23 Z M 3 15 "/>
<path style="fill-rule:evenodd;fill:rgb(82.745098%,82.745098%,82.745098%);fill-opacity:1;stroke-width:1;stroke-linecap:butt;stroke-linejoin:miter;stroke:rgb(78.431373%,78.431373%,78.431373%);stroke-opacity:1;stroke-miterlimit:10;" d="M 3 11 L 15 3 L 27 11 L 15 19 Z M 3 11 "/>
</g>
</svg>
