<?xml version="1.0" encoding="UTF-8"?>
<svg xmlns="http://www.w3.org/2000/svg" xmlns:xlink="http://www.w3.org/1999/xlink" width="32pt" height="32pt" viewBox="0 0 32 32" version="1.1">
<defs>
<linearGradient id="linear0" gradientUnits="userSpaceOnUse" x1="1" y1="19" x2="32" y2="31" >
<stop offset="0" style="stop-color:rgb(86.27451%,86.27451%,86.27451%);stop-opacity:1;"/>
<stop offset="1" style="stop-color:rgb(69.019608%,69.019608%,69.019608%);stop-opacity:1;"/>
</linearGradient>
<linearGradient id="linear1" gradientUnits="userSpaceOnUse" x1="0" y1="19" x2="0" y2="31" >
<stop offset="0" style="stop-color:rgb(86.27451%,86.27451%,86.27451%);stop-opacity:1;"/>
<stop offset="1" style="stop-color:rgb(73.333333%,73.333333%,73.333333%);stop-opacity:1;"/>
</linearGradient>
<clipPath id="clip1">
  <path d="M 7 1 L 25 1 L 25 28 L 7 28 Z M 7 1 "/>
</clipPath>
<clipPath id="clip2">
  <path d="M 18 2 L 25 24.5 C 25 26.15625 20.96875 27.5 16 27.5 C 11.03125 27.5 7 26.15625 7 24.5 L 14 2 M 14 2 C 14 1.585938 14.894531 1.25 16 1.25 C 17.105469 1.25 18 1.585938 18 2 Z M 14 2 "/>
</clipPath>
<linearGradient id="linear2" gradientUnits="userSpaceOnUse" x1="9.25" y1="13" x2="30" y2="17" >
<stop offset="0" style="stop-color:rgb(69.019608%,69.019608%,69.019608%);stop-opacity:1;"/>
<stop offset="0.2" style="stop-color:rgb(86.27451%,86.27451%,86.27451%);stop-opacity:1;"/>
<stop offset="0.4" style="stop-color:rgb(69.019608%,69.019608%,69.019608%);stop-opacity:1;"/>
<stop offset="1" style="stop-color:rgb(43.137255%,43.137255%,43.137255%);stop-opacity:1;"/>
</linearGradient>
<clipPath id="clip3">
  <path d="M 14 1 L 18 1 L 18 3 L 14 3 Z M 14 1 "/>
</clipPath>
<clipPath id="clip4">
  <path d="M 18 2 L 25 24.5 C 25 26.15625 20.96875 27.5 16 27.5 C 11.03125 27.5 7 26.15625 7 24.5 L 14 2 M 14 2 C 14 1.585938 14.894531 1.25 16 1.25 C 17.105469 1.25 18 1.585938 18 2 Z M 14 2 "/>
</clipPath>
<clipPath id="clip5">
  <path d="M 7 1 L 25 1 L 25 28 L 7 28 Z M 7 1 "/>
</clipPath>
<clipPath id="clip6">
  <path d="M 18 2 L 25 24.5 C 25 26.15625 20.96875 27.5 16 27.5 C 11.03125 27.5 7 26.15625 7 24.5 L 14 2 M 14 2 C 14 1.585938 14.894531 1.25 16 1.25 C 17.105469 1.25 18 1.585938 18 2 Z M 14 2 "/>
</clipPath>
<linearGradient id="linear3" gradientUnits="userSpaceOnUse" x1="9.25" y1="13" x2="30" y2="17" >
<stop offset="0" style="stop-color:rgb(80%,80%,80%);stop-opacity:1;"/>
<stop offset="0.2" style="stop-color:rgb(100%,100%,100%);stop-opacity:1;"/>
<stop offset="0.4" style="stop-color:rgb(80%,80%,80%);stop-opacity:1;"/>
<stop offset="1" style="stop-color:rgb(50.196078%,50.196078%,50.196078%);stop-opacity:1;"/>
</linearGradient>
</defs>
<g id="surface9074">
<path style="fill:none;stroke-width:2;stroke-linecap:butt;stroke-linejoin:miter;stroke:url(#linear0);stroke-miterlimit:10;" d="M 16 20 L 24.765625 20 C 25.519531 20 26.214844 20.429688 26.554688 21.105469 L 29.554688 27.105469 C 30.21875 28.4375 29.25 30 27.765625 30 L 4.234375 30 C 2.75 30 1.78125 28.433594 2.445312 27.105469 L 5.445312 21.105469 C 5.785156 20.429688 6.476562 20 7.234375 20 Z M 16 20 "/>
<path style=" stroke:none;fill-rule:evenodd;fill:url(#linear1);" d="M 16 20 L 24.765625 20 C 25.519531 20 26.214844 20.429688 26.554688 21.105469 L 29.554688 27.105469 C 30.21875 28.4375 29.25 30 27.765625 30 L 4.234375 30 C 2.75 30 1.78125 28.433594 2.445312 27.105469 L 5.445312 21.105469 C 5.785156 20.429688 6.476562 20 7.234375 20 Z M 16 20 "/>
<g clip-path="url(#clip1)" clip-rule="nonzero">
<g clip-path="url(#clip2)" clip-rule="evenodd">
<path style=" stroke:none;fill-rule:evenodd;fill:url(#linear2);" d="M 18 2 L 25 24.5 C 25 26.15625 20.96875 27.5 16 27.5 C 11.03125 27.5 7 26.15625 7 24.5 L 14 2 M 14 2 C 14 1.585938 14.894531 1.25 16 1.25 C 17.105469 1.25 18 1.585938 18 2 Z M 14 2 "/>
</g>
</g>
<g clip-path="url(#clip3)" clip-rule="nonzero">
<g clip-path="url(#clip4)" clip-rule="evenodd">
<path style=" stroke:none;fill-rule:evenodd;fill:rgb(60.392157%,60.392157%,60.392157%);fill-opacity:1;" d="M 17.5 2 C 17.5 2.667969 14.5 2.667969 14.5 2 C 14.5 1.332031 17.5 1.332031 17.5 2 Z M 17.5 2 "/>
</g>
</g>
<g clip-path="url(#clip5)" clip-rule="nonzero">
<g clip-path="url(#clip6)" clip-rule="evenodd">
<path style="fill:none;stroke-width:3;stroke-linecap:butt;stroke-linejoin:miter;stroke:url(#linear3);stroke-miterlimit:10;" d="M 22 7 C 22 8.65625 19.3125 10 16 10 C 12.6875 10 10 8.65625 10 7 M 23 13 C 23 14.65625 19.867188 16 16 16 C 12.132812 16 9 14.65625 9 13 M 24 19 C 24 20.65625 20.417969 22 16 22 C 11.582031 22 8 20.65625 8 19 "/>
</g>
</g>
</g>
</svg>
