<?xml version="1.0" encoding="UTF-8"?>
<svg xmlns="http://www.w3.org/2000/svg" xmlns:xlink="http://www.w3.org/1999/xlink" width="32pt" height="32pt" viewBox="0 0 32 32" version="1.1">
<defs>
<linearGradient id="linear0" gradientUnits="userSpaceOnUse" x1="0" y1="0" x2="32" y2="0" >
<stop offset="0" style="stop-color:rgb(81.568627%,81.568627%,81.568627%);stop-opacity:1;"/>
<stop offset="0.55" style="stop-color:rgb(96.078431%,96.078431%,96.078431%);stop-opacity:1;"/>
<stop offset="1" style="stop-color:rgb(81.568627%,81.568627%,81.568627%);stop-opacity:1;"/>
</linearGradient>
<linearGradient id="linear1" gradientUnits="userSpaceOnUse" x1="4" y1="4" x2="28" y2="31" >
<stop offset="0" style="stop-color:rgb(75.294118%,75.294118%,75.294118%);stop-opacity:1;"/>
<stop offset="1" style="stop-color:rgb(22.745098%,22.745098%,22.745098%);stop-opacity:1;"/>
</linearGradient>
<linearGradient id="linear2" gradientUnits="userSpaceOnUse" x1="4" y1="2" x2="28" y2="30" >
<stop offset="0" style="stop-color:rgb(75.294118%,75.294118%,75.294118%);stop-opacity:1;"/>
<stop offset="1" style="stop-color:rgb(37.647059%,37.647059%,37.647059%);stop-opacity:1;"/>
</linearGradient>
<linearGradient id="linear3" gradientUnits="userSpaceOnUse" x1="15" y1="10" x2="27" y2="27" >
<stop offset="0" style="stop-color:rgb(75.294118%,75.294118%,75.294118%);stop-opacity:1;"/>
<stop offset="1" style="stop-color:rgb(37.647059%,37.647059%,37.647059%);stop-opacity:1;"/>
</linearGradient>
<linearGradient id="linear4" gradientUnits="userSpaceOnUse" x1="15" y1="10" x2="27" y2="27" >
<stop offset="0" style="stop-color:rgb(75.294118%,75.294118%,75.294118%);stop-opacity:1;"/>
<stop offset="1" style="stop-color:rgb(37.647059%,37.647059%,37.647059%);stop-opacity:1;"/>
</linearGradient>
</defs>
<g id="surface9018">
<path style=" stroke:none;fill-rule:evenodd;fill:rgb(47.843137%,47.843137%,47.843137%);fill-opacity:1;" d="M 5 5 L 29 5 L 29 32 L 5 32 Z M 5 5 "/>
<path style="fill-rule:evenodd;fill:url(#linear0);stroke-width:1;stroke-linecap:butt;stroke-linejoin:miter;stroke:url(#linear1);stroke-miterlimit:10;" d="M 4 4 L 28 4 L 28 31 L 4 31 Z M 4 4 "/>
<path style="fill:none;stroke-width:1;stroke-linecap:butt;stroke-linejoin:miter;stroke:url(#linear2);stroke-miterlimit:10;" d="M 7 9 L 12 9 M 7 13 L 12 13 M 7 17 L 12 17 M 7 21 L 12 21 M 7 25 L 12 25 "/>
<path style=" stroke:none;fill-rule:evenodd;fill:url(#linear3);" d="M 15 18 L 21 10 L 27 18 Z M 15 18 "/>
<path style="fill:none;stroke-width:4;stroke-linecap:butt;stroke-linejoin:miter;stroke:url(#linear4);stroke-miterlimit:10;" d="M 21 18 L 21 26 "/>
</g>
</svg>
