<?xml version="1.0" encoding="UTF-8"?>
<svg xmlns="http://www.w3.org/2000/svg" xmlns:xlink="http://www.w3.org/1999/xlink" width="32pt" height="32pt" viewBox="0 0 32 32" version="1.1">
<defs>
<linearGradient id="linear0" gradientUnits="userSpaceOnUse" x1="15.75" y1="6.25" x2="26" y2="16.5" >
<stop offset="0" style="stop-color:rgb(39.215686%,58.431373%,92.941176%);stop-opacity:1;"/>
<stop offset="1" style="stop-color:rgb(15.686275%,23.529412%,37.254902%);stop-opacity:1;"/>
</linearGradient>
<linearGradient id="linear1" gradientUnits="userSpaceOnUse" x1="4.48" y1="22.4" x2="9.6" y2="27.52" >
<stop offset="0" style="stop-color:rgb(6.666667%,6.666667%,6.666667%);stop-opacity:1;"/>
<stop offset="0.25" style="stop-color:rgb(16.470588%,16.470588%,16.470588%);stop-opacity:1;"/>
<stop offset="0.4" style="stop-color:rgb(66.27451%,66.27451%,66.27451%);stop-opacity:1;"/>
<stop offset="0.55" style="stop-color:rgb(26.666667%,26.666667%,26.666667%);stop-opacity:1;"/>
<stop offset="1" style="stop-color:rgb(6.666667%,6.666667%,6.666667%);stop-opacity:1;"/>
</linearGradient>
<linearGradient id="linear2" gradientUnits="userSpaceOnUse" x1="11.52" y1="1.92" x2="30.08" y2="20.48" >
<stop offset="0" style="stop-color:rgb(37.254902%,37.254902%,40%);stop-opacity:1;"/>
<stop offset="0.45" style="stop-color:rgb(93.333333%,93.333333%,100%);stop-opacity:1;"/>
<stop offset="1" style="stop-color:rgb(18.823529%,18.823529%,20%);stop-opacity:1;"/>
</linearGradient>
<linearGradient id="linear3" gradientUnits="userSpaceOnUse" x1="12.8" y1="3.2" x2="28.8" y2="19.2" >
<stop offset="0" style="stop-color:rgb(69.019608%,87.843137%,90.196078%);stop-opacity:0.34902;"/>
<stop offset="1" style="stop-color:rgb(41.568627%,52.54902%,54.117647%);stop-opacity:0.34902;"/>
</linearGradient>
</defs>
<g id="surface8554">
<path style="fill:none;stroke-width:3;stroke-linecap:butt;stroke-linejoin:miter;stroke:url(#linear0);stroke-miterlimit:10;" d="M 20.75 6.25 L 20.75 16.25 M 15.75 11.25 L 25.75 11.25 "/>
<path style="fill:none;stroke-width:5.12;stroke-linecap:square;stroke-linejoin:miter;stroke:url(#linear1);stroke-miterlimit:10;" d="M 11.839844 20.160156 L 3.519531 28.480469 "/>
<path style="fill:none;stroke-width:1.28;stroke-linecap:butt;stroke-linejoin:miter;stroke:url(#linear2);stroke-miterlimit:10;" d="M 30.078125 11.199219 C 30.078125 16.324219 25.925781 20.480469 20.800781 20.480469 C 15.675781 20.480469 11.519531 16.324219 11.519531 11.199219 C 11.519531 6.074219 15.675781 1.921875 20.800781 1.921875 C 25.925781 1.921875 30.078125 6.074219 30.078125 11.199219 Z M 30.078125 11.199219 "/>
<path style=" stroke:none;fill-rule:evenodd;fill:url(#linear3);" d="M 28.800781 11.199219 C 28.800781 15.617188 25.21875 19.199219 20.800781 19.199219 C 16.382812 19.199219 12.800781 15.617188 12.800781 11.199219 C 12.800781 6.78125 16.382812 3.199219 20.800781 3.199219 C 25.21875 3.199219 28.800781 6.78125 28.800781 11.199219 Z M 28.800781 11.199219 "/>
</g>
</svg>
