<?xml version="1.0" encoding="UTF-8"?>
<svg xmlns="http://www.w3.org/2000/svg" xmlns:xlink="http://www.w3.org/1999/xlink" width="32pt" height="32pt" viewBox="0 0 32 32" version="1.1">
<g id="surface7878">
<path style="fill:none;stroke-width:0.5;stroke-linecap:round;stroke-linejoin:round;stroke:rgb(75.294118%,75.294118%,75.294118%);stroke-opacity:1;stroke-miterlimit:10;" d="M 1.75 6.5 L 4 1.5 L 6.25 6.5 M 2.75 4.832031 L 5.25 4.832031 "/>
<path style="fill:none;stroke-width:0.5;stroke-linecap:round;stroke-linejoin:round;stroke:rgb(75.294118%,75.294118%,75.294118%);stroke-opacity:1;stroke-miterlimit:10;" d="M 12.160156 1.5 L 9.976562 1.5 L 9.976562 6.5 M 12.476562 4 L 9.976562 4 M 12.160156 1.5 C 13.828125 1.5 13.828125 4 12.160156 4 M 12.476562 6.5 L 9.976562 6.5 M 12.476562 4 C 14.140625 4 14.140625 6.5 12.476562 6.5 "/>
<path style="fill:none;stroke-width:0.5;stroke-linecap:round;stroke-linejoin:round;stroke:rgb(75.294118%,75.294118%,75.294118%);stroke-opacity:1;stroke-miterlimit:10;" d="M 17.886719 2.980469 C 18.605469 1.007812 21.394531 1.007812 22.113281 2.980469 M 22.113281 5.019531 C 21.394531 6.992188 18.605469 6.992188 17.886719 5.019531 M 17.863281 3.089844 L 17.863281 4.910156 "/>
<path style="fill:none;stroke-width:0.5;stroke-linecap:round;stroke-linejoin:round;stroke:rgb(75.294118%,75.294118%,75.294118%);stroke-opacity:1;stroke-miterlimit:10;" d="M 27.191406 1.5 L 25.976562 1.5 L 25.976562 6.5 M 27.191406 6.5 L 25.976562 6.5 M 27.191406 1.5 C 30.523438 1.5 30.523438 6.5 27.191406 6.5 "/>
<path style="fill:none;stroke-width:0.5;stroke-linecap:round;stroke-linejoin:round;stroke:rgb(75.294118%,75.294118%,75.294118%);stroke-opacity:1;stroke-miterlimit:10;" d="M 6.023438 9.5 L 1.976562 9.5 L 1.976562 14.5 L 6.023438 14.5 M 1.976562 12 L 5.621094 12 "/>
<path style="fill:none;stroke-width:0.5;stroke-linecap:round;stroke-linejoin:round;stroke:rgb(75.294118%,75.294118%,75.294118%);stroke-opacity:1;stroke-miterlimit:10;" d="M 14.023438 9.5 L 9.976562 9.5 L 9.976562 14.5 M 9.976562 12 L 13.621094 12 "/>
<path style="fill:none;stroke-width:0.5;stroke-linecap:round;stroke-linejoin:round;stroke:rgb(75.294118%,75.294118%,75.294118%);stroke-opacity:1;stroke-miterlimit:10;" d="M 17.886719 10.980469 C 18.605469 9.007812 21.394531 9.007812 22.113281 10.980469 M 22.113281 13.019531 C 21.394531 14.992188 18.605469 14.992188 17.886719 13.019531 M 17.863281 11.089844 L 17.863281 12.910156 M 20.449219 12.5 L 22.136719 12.5 L 22.136719 12.910156 "/>
<path style="fill:none;stroke-width:0.5;stroke-linecap:round;stroke-linejoin:round;stroke:rgb(75.294118%,75.294118%,75.294118%);stroke-opacity:1;stroke-miterlimit:10;" d="M 25.976562 9.5 L 25.976562 14.5 M 30.023438 9.5 L 30.023438 14.5 M 25.976562 12 L 30.023438 12 "/>
<path style="fill:none;stroke-width:0.5;stroke-linecap:round;stroke-linejoin:round;stroke:rgb(75.294118%,75.294118%,75.294118%);stroke-opacity:1;stroke-miterlimit:10;" d="M 4 17.5 L 4 22.5 "/>
<path style="fill:none;stroke-width:0.5;stroke-linecap:round;stroke-linejoin:round;stroke:rgb(75.294118%,75.294118%,75.294118%);stroke-opacity:1;stroke-miterlimit:10;" d="M 12 17.5 L 12 21.375 M 12 21.25 C 12 22.917969 9.5 22.917969 9.5 21.25 "/>
<path style="fill:none;stroke-width:0.5;stroke-linecap:round;stroke-linejoin:round;stroke:rgb(75.294118%,75.294118%,75.294118%);stroke-opacity:1;stroke-miterlimit:10;" d="M 18.5 17.5 L 18.5 22.5 M 18.5 20.832031 L 21.5 17.5 M 19.8125 19.75 L 21.5 22.5 "/>
<path style="fill:none;stroke-width:0.5;stroke-linecap:round;stroke-linejoin:round;stroke:rgb(75.294118%,75.294118%,75.294118%);stroke-opacity:1;stroke-miterlimit:10;" d="M 26.875 17.5 L 26.875 22.5 L 29.125 22.5 "/>
<path style="fill:none;stroke-width:0.5;stroke-linecap:round;stroke-linejoin:round;stroke:rgb(75.294118%,75.294118%,75.294118%);stroke-opacity:1;stroke-miterlimit:10;" d="M 1.75 30.5 L 1.75 25.5 L 4 28.125 L 6.25 25.5 L 6.25 30.5 "/>
</g>
</svg>
