<?xml version="1.0" encoding="UTF-8"?>
<svg xmlns="http://www.w3.org/2000/svg" xmlns:xlink="http://www.w3.org/1999/xlink" width="32pt" height="32pt" viewBox="0 0 32 32" version="1.1">
<g id="surface7478">
<path style=" stroke:none;fill-rule:evenodd;fill:rgb(75.294118%,75.294118%,75.294118%);fill-opacity:1;" d="M 32 16 C 32 24.835938 24.835938 32 16 32 C 7.164062 32 0 24.835938 0 16 C 0 7.164062 7.164062 0 16 0 C 24.835938 0 32 7.164062 32 16 Z M 32 16 "/>
<path style=" stroke:none;fill-rule:evenodd;fill:rgb(96.078431%,96.078431%,96.078431%);fill-opacity:1;" d="M 16 7.679688 L 15.199219 7.679688 L 15.359375 8.640625 C 10.558594 8.640625 12.800781 17.28125 9.921875 18.238281 L 16 18.238281 M 16 20.320312 C 15.117188 20.320312 14.398438 19.605469 14.398438 18.71875 L 16 18.71875 "/>
<path style="fill:none;stroke-width:1.6;stroke-linecap:butt;stroke-linejoin:miter;stroke:rgb(96.078431%,96.078431%,96.078431%);stroke-opacity:1;stroke-miterlimit:10;" d="M 10.550781 22.496094 C 8.628906 20.886719 7.519531 18.507812 7.519531 16 C 7.519531 13.492188 8.628906 11.113281 10.550781 9.503906 M 8.492188 24.949219 C 5.847656 22.726562 4.320312 19.453125 4.320312 16 C 4.320312 12.546875 5.847656 9.273438 8.492188 7.050781 "/>
<path style=" stroke:none;fill-rule:evenodd;fill:rgb(96.078431%,96.078431%,96.078431%);fill-opacity:1;" d="M 16 7.679688 L 16.800781 7.679688 L 16.640625 8.640625 C 21.441406 8.640625 19.199219 17.28125 22.078125 18.238281 L 16 18.238281 M 16 20.320312 C 16.882812 20.320312 17.601562 19.605469 17.601562 18.71875 L 16 18.71875 "/>
<path style="fill:none;stroke-width:1.6;stroke-linecap:butt;stroke-linejoin:miter;stroke:rgb(96.078431%,96.078431%,96.078431%);stroke-opacity:1;stroke-miterlimit:10;" d="M 10.550781 22.496094 C 8.628906 20.886719 7.519531 18.507812 7.519531 16 C 7.519531 13.492188 8.628906 11.113281 10.550781 9.503906 M 8.492188 24.949219 C 5.847656 22.726562 4.320312 19.453125 4.320312 16 C 4.320312 12.546875 5.847656 9.273438 8.492188 7.050781 " transform="matrix(-1,0,0,1,32,0)"/>
</g>
</svg>
