<?xml version="1.0" encoding="UTF-8"?>
<svg xmlns="http://www.w3.org/2000/svg" xmlns:xlink="http://www.w3.org/1999/xlink" width="32pt" height="32pt" viewBox="0 0 32 32" version="1.1">
<g id="surface7870">
<path style=" stroke:none;fill-rule:evenodd;fill:rgb(50.196078%,50.196078%,50.196078%);fill-opacity:1;" d="M 18 5.5 L 18 6 C 18 6.550781 17.550781 7 17 7 L 15 7 C 14.449219 7 14 6.550781 14 6 L 14 5 C 14 4.449219 14.449219 4 15 4 L 17 4 C 17.550781 4 18 4.449219 18 5 Z M 18 5.5 "/>
<path style=" stroke:none;fill-rule:evenodd;fill:rgb(75.294118%,75.294118%,75.294118%);fill-opacity:1;" d="M 23 18 L 23 28 C 23 29.105469 22.105469 30 21 30 L 11 30 C 9.894531 30 9 29.105469 9 28 L 9 8 C 9 6.894531 9.894531 6 11 6 L 21 6 C 22.105469 6 23 6.894531 23 8 Z M 23 18 "/>
<path style=" stroke:none;fill-rule:evenodd;fill:rgb(96.078431%,96.078431%,96.078431%);fill-opacity:1;" d="M 17.6875 10.125 L 12.0625 19.125 L 14.875 19.125 L 14.875 25.875 L 20.5 16.875 L 17.6875 16.875 Z M 17.6875 10.125 "/>
</g>
</svg>
