<?xml version="1.0" encoding="UTF-8"?>
<svg xmlns="http://www.w3.org/2000/svg" xmlns:xlink="http://www.w3.org/1999/xlink" width="32pt" height="32pt" viewBox="0 0 32 32" version="1.1">
<g id="surface7830">
<path style=" stroke:none;fill-rule:evenodd;fill:rgb(75.294118%,75.294118%,75.294118%);fill-opacity:1;" d="M 6.5 21.5 L 25.5 21.5 L 25.5 30.5 L 6.5 30.5 Z M 6.5 21.5 "/>
<path style=" stroke:none;fill-rule:evenodd;fill:rgb(75.294118%,75.294118%,75.294118%);fill-opacity:1;" d="M 5.5 7 C 5.5 10.332031 0.5 10.332031 0.5 7 C 0.5 3.667969 5.5 3.667969 5.5 7 Z M 11.5 5 C 11.5 8.332031 6.5 8.332031 6.5 5 C 6.5 1.667969 11.5 1.667969 11.5 5 Z M 18.5 4 C 18.5 7.332031 13.5 7.332031 13.5 4 C 13.5 0.667969 18.5 0.667969 18.5 4 Z M 25.5 5 C 25.5 8.332031 20.5 8.332031 20.5 5 C 20.5 1.667969 25.5 1.667969 25.5 5 Z M 31.5 7 C 31.5 10.332031 26.5 10.332031 26.5 7 C 26.5 3.667969 31.5 3.667969 31.5 7 Z M 31.5 7 "/>
<path style="fill:none;stroke-width:1;stroke-linecap:butt;stroke-linejoin:miter;stroke:rgb(75.294118%,75.294118%,75.294118%);stroke-opacity:1;stroke-miterlimit:10;" d="M 7.199219 22.300781 L 3.5 8.75 L 8 17 L 9 6.5 L 13 16 L 16 6 L 19 16 L 22.5 7 L 24 17 L 28 9 L 25 22 "/>
<path style=" stroke:none;fill-rule:evenodd;fill:rgb(75.294118%,75.294118%,75.294118%);fill-opacity:1;" d="M 7.199219 22.300781 L 3.5 8.75 L 8 17 L 9 6.5 L 13 16 L 16 6 L 19 16 L 22.5 7 L 24 17 L 28 9 L 25 22 "/>
<path style="fill:none;stroke-width:1.3;stroke-linecap:butt;stroke-linejoin:miter;stroke:rgb(96.078431%,96.078431%,96.078431%);stroke-opacity:1;stroke-miterlimit:10;" d="M 7 20 L 25 20 M 7 29 L 25 29 "/>
<path style=" stroke:none;fill-rule:evenodd;fill:rgb(96.078431%,96.078431%,96.078431%);fill-opacity:1;" d="M 16 24 L 18 25 L 16 26 L 14 25 Z M 10 24 L 12 25 L 10 26 L 8 25 Z M 22 24 L 24 25 L 22 26 L 20 25 Z M 22 24 "/>
</g>
</svg>
