<?xml version="1.0" encoding="UTF-8"?>
<svg xmlns="http://www.w3.org/2000/svg" xmlns:xlink="http://www.w3.org/1999/xlink" width="32pt" height="32pt" viewBox="0 0 32 32" version="1.1">
<g id="surface6982">
<path style="fill:none;stroke-width:0.5;stroke-linecap:butt;stroke-linejoin:miter;stroke:rgb(0%,0%,0%);stroke-opacity:1;stroke-miterlimit:10;" d="M 11 10 L 21 10 L 21 20 L 11 20 Z M 5 28 L 27 28 L 27 31 L 5 31 Z M 11 20 L 8 24 L 8 28 M 21 20 L 24 24 L 24 28 M 8 24 L 24 24 M 11 10 L 7 7 L 7 2 L 11 2 L 11 4 L 14 4 L 14 2 L 18 2 L 18 4 L 21 4 L 21 2 L 25 2 L 25 7 L 21 10 "/>
<path style=" stroke:none;fill-rule:evenodd;fill:rgb(0%,0%,0%);fill-opacity:1;" d="M 11 10 L 21 10 L 21 20 L 11 20 Z M 5 28 L 27 28 L 27 31 L 5 31 Z M 8 24 L 24 24 L 24 28 L 8 28 Z M 8 24 L 11 20 L 21 20 L 24 24 Z M 11 10 L 7 7 L 7 2 L 11 2 L 11 4 L 14 4 L 14 2 L 18 2 L 18 4 L 21 4 L 21 2 L 25 2 L 25 7 L 21 10 "/>
<path style="fill:none;stroke-width:1;stroke-linecap:butt;stroke-linejoin:miter;stroke:rgb(75.294118%,75.294118%,75.294118%);stroke-opacity:1;stroke-miterlimit:10;" d="M 8 27.5 L 24 27.5 M 8.25 23.5 L 23.75 23.5 M 11 19.5 L 21 19.5 M 11 10.5 L 21 10.5 M 7 7 L 25 7 "/>
</g>
</svg>
