<?xml version="1.0" encoding="UTF-8"?>
<svg xmlns="http://www.w3.org/2000/svg" xmlns:xlink="http://www.w3.org/1999/xlink" width="32pt" height="32pt" viewBox="0 0 32 32" version="1.1">
<g id="surface7006">
<path style=" stroke:none;fill-rule:evenodd;fill:rgb(0%,0%,0%);fill-opacity:1;" d="M 25.898438 22.171875 C 22.773438 25.296875 18.660156 26.246094 16.707031 24.292969 C 14.753906 22.339844 15.703125 18.226562 18.828125 15.101562 C 21.953125 11.976562 26.066406 11.027344 28.019531 12.980469 C 29.972656 14.933594 29.023438 19.046875 25.898438 22.171875 Z M 25.898438 22.171875 "/>
<path style="fill:none;stroke-width:1;stroke-linecap:butt;stroke-linejoin:miter;stroke:rgb(96.078431%,96.078431%,96.078431%);stroke-opacity:1;stroke-miterlimit:10;" d="M 18.99968 16.000961 C 18.99968 19.315524 17.657282 22.00032 16 22.00032 C 14.342718 22.00032 13.00032 19.315524 13.00032 16.000961 C 13.00032 12.686398 14.342718 10.001602 16 10.001602 C 17.657282 10.001602 18.99968 12.686398 18.99968 16.000961 Z M 18.99968 16.000961 " transform="matrix(0.707107,0.707107,-0.707107,0.707107,22.363961,-3.991378)"/>
<path style=" stroke:none;fill-rule:evenodd;fill:rgb(0%,0%,0%);fill-opacity:1;" d="M 13.171875 15.101562 C 16.296875 18.226562 17.246094 22.339844 15.292969 24.292969 C 13.339844 26.246094 9.226562 25.296875 6.101562 22.171875 C 2.976562 19.046875 2.027344 14.933594 3.980469 12.980469 C 5.933594 11.027344 10.046875 11.976562 13.171875 15.101562 Z M 13.171875 15.101562 "/>
<path style="fill:none;stroke-width:1;stroke-linecap:butt;stroke-linejoin:miter;stroke:rgb(96.078431%,96.078431%,96.078431%);stroke-opacity:1;stroke-miterlimit:10;" d="M 18.99968 16.000961 C 18.99968 19.315524 17.657282 22.00032 16 22.00032 C 14.342718 22.00032 13.00032 19.315524 13.00032 16.000961 C 13.00032 12.686398 14.342718 10.001602 16 10.001602 C 17.657282 10.001602 18.99968 12.686398 18.99968 16.000961 Z M 18.99968 16.000961 " transform="matrix(0.707107,-0.707107,0.707107,0.707107,-12.991378,18.636039)"/>
<path style="fill-rule:evenodd;fill:rgb(0%,0%,0%);fill-opacity:1;stroke-width:1;stroke-linecap:butt;stroke-linejoin:miter;stroke:rgb(0%,0%,0%);stroke-opacity:1;stroke-miterlimit:10;" d="M 6 22 L 26 22 L 26 30 L 6 30 Z M 6 22 "/>
<path style="fill:none;stroke-width:1;stroke-linecap:butt;stroke-linejoin:miter;stroke:rgb(96.078431%,96.078431%,96.078431%);stroke-opacity:1;stroke-miterlimit:10;" d="M 8 25 L 12 25 M 10 23 L 10 27 "/>
<path style="fill:none;stroke-width:1;stroke-linecap:butt;stroke-linejoin:miter;stroke:rgb(96.078431%,96.078431%,96.078431%);stroke-opacity:1;stroke-miterlimit:10;" d="M 14 25 L 18 25 M 16 23 L 16 27 "/>
<path style="fill:none;stroke-width:1;stroke-linecap:butt;stroke-linejoin:miter;stroke:rgb(96.078431%,96.078431%,96.078431%);stroke-opacity:1;stroke-miterlimit:10;" d="M 20 25 L 24 25 M 22 23 L 22 27 "/>
<path style="fill:none;stroke-width:1;stroke-linecap:butt;stroke-linejoin:miter;stroke:rgb(96.078431%,96.078431%,96.078431%);stroke-opacity:1;stroke-miterlimit:10;" d="M 7 28.5 L 25 28.5 "/>
<path style=" stroke:none;fill-rule:evenodd;fill:rgb(0%,0%,0%);fill-opacity:1;" d="M 20.75 11.5 C 20.75 17.832031 11.25 17.832031 11.25 11.5 C 11.25 5.167969 20.75 5.167969 20.75 11.5 Z M 20.75 11.5 "/>
<path style="fill:none;stroke-width:0.5;stroke-linecap:butt;stroke-linejoin:miter;stroke:rgb(96.078431%,96.078431%,96.078431%);stroke-opacity:1;stroke-miterlimit:10;" d="M 18.5 11.5 C 18.5 14.832031 13.5 14.832031 13.5 11.5 C 13.5 8.167969 18.5 8.167969 18.5 11.5 Z M 18.5 11.5 "/>
<path style="fill:none;stroke-width:1.5;stroke-linecap:butt;stroke-linejoin:miter;stroke:rgb(0%,0%,0%);stroke-opacity:1;stroke-miterlimit:10;" d="M 13.5 5 L 18.5 5 M 16 2.5 L 16 7.5 "/>
</g>
</svg>
