<?xml version="1.0" encoding="UTF-8"?>
<svg xmlns="http://www.w3.org/2000/svg" xmlns:xlink="http://www.w3.org/1999/xlink" width="32pt" height="32pt" viewBox="0 0 32 32" version="1.1">
<g id="surface7858">
<path style="fill:none;stroke-width:3;stroke-linecap:round;stroke-linejoin:miter;stroke:rgb(75.294118%,75.294118%,75.294118%);stroke-opacity:1;stroke-miterlimit:10;" d="M 9 29 L 23 29 "/>
<path style=" stroke:none;fill-rule:evenodd;fill:rgb(75.294118%,75.294118%,75.294118%);fill-opacity:1;" d="M 16 8 L 13 29 L 19 29 Z M 16 8 "/>
<path style=" stroke:none;fill-rule:evenodd;fill:rgb(75.294118%,75.294118%,75.294118%);fill-opacity:1;" d="M 19 8 C 19 12 13 12 13 8 C 13 4 19 4 19 8 Z M 19 8 "/>
<path style="fill:none;stroke-width:2;stroke-linecap:butt;stroke-linejoin:miter;stroke:rgb(75.294118%,75.294118%,75.294118%);stroke-opacity:1;stroke-miterlimit:10;" d="M 10.804688 5 C 9.730469 6.855469 9.730469 9.144531 10.804688 11 M 7.339844 3 C 5.554688 6.09375 5.554688 9.90625 7.339844 13 M 3.875 1 C 1.375 5.332031 1.375 10.667969 3.875 15 M 21.195312 5 C 22.269531 6.855469 22.269531 9.144531 21.195312 11 M 24.660156 3 C 26.445312 6.09375 26.445312 9.90625 24.660156 13 M 28.125 1 C 30.625 5.332031 30.625 10.667969 28.125 15 " transform="matrix(-1,0,0,1,32,0)"/>
</g>
</svg>
