<?xml version="1.0" encoding="UTF-8"?>
<svg xmlns="http://www.w3.org/2000/svg" xmlns:xlink="http://www.w3.org/1999/xlink" width="32pt" height="32pt" viewBox="0 0 32 32" version="1.1">
<g id="surface7298">
<rect x="0" y="0" width="32" height="32" style="fill:rgb(100%,100%,100%);fill-opacity:1;stroke:none;"/>
<path style="fill-rule:evenodd;fill:rgb(60%,60%,0%);fill-opacity:1;stroke-width:1;stroke-linecap:butt;stroke-linejoin:miter;stroke:rgb(60%,60%,0%);stroke-opacity:1;stroke-miterlimit:10;" d="M 30.332031 17 L 30 20 C 30 24.96875 23.730469 29 16 29 L 16 24 Z M 30.332031 17 " transform="matrix(1,0,0,1,0,-1)"/>
<path style="fill-rule:evenodd;fill:rgb(23.529412%,34.901961%,55.686275%);fill-opacity:1;stroke-width:1;stroke-linecap:butt;stroke-linejoin:miter;stroke:rgb(23.529412%,34.901961%,55.686275%);stroke-opacity:1;stroke-miterlimit:10;" d="M 15.5 24 L 15.6875 28.996094 C 8.078125 28.886719 2 24.890625 2 20 L 1.667969 17 Z M 15.5 24 " transform="matrix(1,0,0,1,0,-1)"/>
<path style="fill-rule:evenodd;fill:rgb(60%,32.941176%,0%);fill-opacity:1;stroke-width:1;stroke-linecap:butt;stroke-linejoin:miter;stroke:rgb(60%,32.941176%,0%);stroke-opacity:1;stroke-miterlimit:10;" d="M 7 8 L 9.351562 15.078125 C 13.5 13.640625 18.5 13.640625 22.648438 15.078125 L 25 8 Z M 7 8 " transform="matrix(1,0,0,1,0,-1)"/>
<path style="fill:none;stroke-width:6;stroke-linecap:butt;stroke-linejoin:miter;stroke:rgb(100%,54.901961%,0%);stroke-opacity:1;stroke-miterlimit:10;" d="M 7.472656 10.074219 C 9.726562 8.746094 12.796875 8 16 8 C 19.203125 8 22.273438 8.746094 24.527344 10.074219 " transform="matrix(1,0,0,1,0,-1)"/>
<path style="fill:none;stroke-width:6;stroke-linecap:butt;stroke-linejoin:miter;stroke:rgb(100%,100%,0%);stroke-opacity:1;stroke-miterlimit:10;" d="M 24.527344 10.074219 C 27.933594 12.082031 28.9375 15.089844 27.074219 17.695312 C 25.210938 20.300781 20.84375 22 16 22 " transform="matrix(1,0,0,1,0,-1)"/>
<path style="fill:none;stroke-width:6;stroke-linecap:butt;stroke-linejoin:miter;stroke:rgb(39.215686%,58.431373%,92.941176%);stroke-opacity:1;stroke-miterlimit:10;" d="M 16 22 C 11.15625 22 6.789062 20.300781 4.925781 17.695312 C 3.0625 15.089844 4.066406 12.082031 7.472656 10.074219 " transform="matrix(1,0,0,1,0,-1)"/>
<path style="fill:none;stroke-width:1;stroke-linecap:butt;stroke-linejoin:miter;stroke:rgb(39.607843%,39.607843%,39.607843%);stroke-opacity:1;stroke-miterlimit:10;" d="M 29 10 L 24 13 L 24 16 " transform="matrix(1,0,0,1,0,-1)"/>
<path style="fill:none;stroke-width:1;stroke-linecap:butt;stroke-linejoin:miter;stroke:rgb(39.607843%,39.607843%,39.607843%);stroke-opacity:1;stroke-miterlimit:10;" d="M 3 10 L 8 13 L 8 16 " transform="matrix(1,0,0,1,0,-1)"/>
<path style="fill:none;stroke-width:1;stroke-linecap:butt;stroke-linejoin:miter;stroke:rgb(39.607843%,39.607843%,39.607843%);stroke-opacity:1;stroke-miterlimit:10;" d="M 16 19 L 16 29 " transform="matrix(1,0,0,1,0,-1)"/>
</g>
</svg>
