<?xml version="1.0" encoding="UTF-8"?>
<svg xmlns="http://www.w3.org/2000/svg" xmlns:xlink="http://www.w3.org/1999/xlink" width="32pt" height="32pt" viewBox="0 0 32 32" version="1.1">
<g id="surface8090">
<path style="fill:none;stroke-width:1;stroke-linecap:butt;stroke-linejoin:miter;stroke:rgb(41.176471%,41.176471%,41.176471%);stroke-opacity:1;stroke-miterlimit:10;" d="M 0 0 L 0 32 M 0 0 L 2 0 M 0 8 L 2 8 M 0 16 L 2 16 M 0 24 L 2 24 M 0 32 L 2 32 "/>
<path style="fill:none;stroke-width:1;stroke-linecap:butt;stroke-linejoin:miter;stroke:rgb(41.176471%,41.176471%,41.176471%);stroke-opacity:1;stroke-miterlimit:10;" d="M 0 -0.000000000000003553 L -0.000000000000007105 32 M 0 -0.000000000000003553 L 2 -0.000000000000003185 M 0 8 L 2 8 M 0 16 L 2 16 M -0.000000000000007105 24 L 2 24 M -0.000000000000007105 32 L 2 32 " transform="matrix(-0.000000000000000184,-1,1,-0.000000000000000184,0.000000000000003553,32)"/>
<path style=" stroke:none;fill-rule:evenodd;fill:rgb(75.294118%,75.294118%,75.294118%);fill-opacity:1;" d="M 16 6 L 16 11 L 4 11 L 4 6 Z M 16 6 "/>
<path style=" stroke:none;fill-rule:evenodd;fill:rgb(75.294118%,75.294118%,75.294118%);fill-opacity:1;" d="M 24 6 L 24 11 L 17 11 L 17 6 Z M 24 6 "/>
<path style="fill:none;stroke-width:0.5;stroke-linecap:butt;stroke-linejoin:miter;stroke:rgb(75.294118%,75.294118%,75.294118%);stroke-opacity:1;stroke-miterlimit:10;" d="M 8 8 L 13 8 L 13 28 L 8 28 Z M 8 8 " transform="matrix(0.000000000000000061,1,-1,0.000000000000000061,32,-2)"/>
<path style=" stroke:none;fill-rule:evenodd;fill:rgb(75.294118%,75.294118%,75.294118%);fill-opacity:1;" d="M 12 14 L 12 19 L 4 19 L 4 14 Z M 12 14 "/>
<path style=" stroke:none;fill-rule:evenodd;fill:rgb(75.294118%,75.294118%,75.294118%);fill-opacity:1;" d="M 20 14 L 20 19 L 13 19 L 13 14 Z M 20 14 "/>
<path style=" stroke:none;fill-rule:evenodd;fill:rgb(75.294118%,75.294118%,75.294118%);fill-opacity:1;" d="M 28 14 L 28 19 L 21 19 L 21 14 Z M 28 14 "/>
<path style="fill:none;stroke-width:0.5;stroke-linecap:butt;stroke-linejoin:miter;stroke:rgb(75.294118%,75.294118%,75.294118%);stroke-opacity:1;stroke-miterlimit:10;" d="M 16 4 L 21 4 L 21 28 L 16 28 Z M 16 4 " transform="matrix(0.000000000000000061,1,-1,0.000000000000000061,32,-2)"/>
<path style=" stroke:none;fill-rule:evenodd;fill:rgb(75.294118%,75.294118%,75.294118%);fill-opacity:1;" d="M 8 22 L 8 27 L 4 27 L 4 22 Z M 8 22 "/>
<path style=" stroke:none;fill-rule:evenodd;fill:rgb(75.294118%,75.294118%,75.294118%);fill-opacity:1;" d="M 20 22 L 20 27 L 9 27 L 9 22 Z M 20 22 "/>
<path style="fill:none;stroke-width:0.5;stroke-linecap:butt;stroke-linejoin:miter;stroke:rgb(75.294118%,75.294118%,75.294118%);stroke-opacity:1;stroke-miterlimit:10;" d="M 24 12 L 29 12 L 29 28 L 24 28 Z M 24 12 " transform="matrix(0.000000000000000061,1,-1,0.000000000000000061,32,-2)"/>
</g>
</svg>
