<?xml version="1.0" encoding="UTF-8"?>
<svg xmlns="http://www.w3.org/2000/svg" xmlns:xlink="http://www.w3.org/1999/xlink" width="32pt" height="32pt" viewBox="0 0 32 32" version="1.1">
<defs>
<linearGradient id="linear0" gradientUnits="userSpaceOnUse" x1="8" y1="0" x2="15" y2="0" >
<stop offset="0" style="stop-color:rgb(0%,0%,0%);stop-opacity:1;"/>
<stop offset="0.5" style="stop-color:rgb(52.941176%,80.784314%,98.039216%);stop-opacity:1;"/>
<stop offset="1" style="stop-color:rgb(0%,0%,0%);stop-opacity:1;"/>
</linearGradient>
<linearGradient id="linear1" gradientUnits="userSpaceOnUse" x1="8" y1="0" x2="15" y2="0" >
<stop offset="0" style="stop-color:rgb(0%,0%,0%);stop-opacity:1;"/>
<stop offset="0.5" style="stop-color:rgb(100%,100%,0%);stop-opacity:1;"/>
<stop offset="1" style="stop-color:rgb(0%,0%,0%);stop-opacity:1;"/>
</linearGradient>
<linearGradient id="linear2" gradientUnits="userSpaceOnUse" x1="16" y1="0" x2="23" y2="0" >
<stop offset="0" style="stop-color:rgb(0%,0%,0%);stop-opacity:1;"/>
<stop offset="0.5" style="stop-color:rgb(100%,100%,0%);stop-opacity:1;"/>
<stop offset="1" style="stop-color:rgb(0%,0%,0%);stop-opacity:1;"/>
</linearGradient>
<linearGradient id="linear3" gradientUnits="userSpaceOnUse" x1="16" y1="0" x2="23" y2="0" >
<stop offset="0" style="stop-color:rgb(0%,0%,0%);stop-opacity:1;"/>
<stop offset="0.5" style="stop-color:rgb(0%,100%,0%);stop-opacity:1;"/>
<stop offset="1" style="stop-color:rgb(0%,0%,0%);stop-opacity:1;"/>
</linearGradient>
<linearGradient id="linear4" gradientUnits="userSpaceOnUse" x1="16" y1="0" x2="23" y2="0" >
<stop offset="0" style="stop-color:rgb(0%,0%,0%);stop-opacity:1;"/>
<stop offset="0.5" style="stop-color:rgb(52.941176%,80.784314%,98.039216%);stop-opacity:1;"/>
<stop offset="1" style="stop-color:rgb(0%,0%,0%);stop-opacity:1;"/>
</linearGradient>
<linearGradient id="linear5" gradientUnits="userSpaceOnUse" x1="24" y1="0" x2="31" y2="0" >
<stop offset="0" style="stop-color:rgb(0%,0%,0%);stop-opacity:1;"/>
<stop offset="0.5" style="stop-color:rgb(52.941176%,80.784314%,98.039216%);stop-opacity:1;"/>
<stop offset="1" style="stop-color:rgb(0%,0%,0%);stop-opacity:1;"/>
</linearGradient>
<linearGradient id="linear6" gradientUnits="userSpaceOnUse" x1="24" y1="0" x2="31" y2="0" >
<stop offset="0" style="stop-color:rgb(0%,0%,0%);stop-opacity:1;"/>
<stop offset="0.5" style="stop-color:rgb(100%,100%,0%);stop-opacity:1;"/>
<stop offset="1" style="stop-color:rgb(0%,0%,0%);stop-opacity:1;"/>
</linearGradient>
</defs>
<g id="surface7278">
<path style=" stroke:none;fill-rule:evenodd;fill:rgb(100%,100%,100%);fill-opacity:1;" d="M 1 0 L 32 0 L 32 31 L 1 31 Z M 1 0 "/>
<path style="fill:none;stroke-width:1;stroke-linecap:butt;stroke-linejoin:miter;stroke:rgb(0%,0%,0%);stroke-opacity:1;stroke-miterlimit:10;" d="M 0 0 L 0 32 M 0 0 L 2 0 M 0 8 L 2 8 M 0 16 L 2 16 M 0 24 L 2 24 M 0 32 L 2 32 "/>
<path style="fill:none;stroke-width:1;stroke-linecap:butt;stroke-linejoin:miter;stroke:rgb(0%,0%,0%);stroke-opacity:1;stroke-miterlimit:10;" d="M 0 -0.000000000000003553 L -0.000000000000007105 32 M 0 -0.000000000000003553 L 2 -0.000000000000003185 M 0 8 L 2 8 M 0 16 L 2 16 M -0.000000000000007105 24 L 2 24 M -0.000000000000007105 32 L 2 32 " transform="matrix(-0.000000000000000184,-1,1,-0.000000000000000184,0.000000000000003553,32)"/>
<path style=" stroke:none;fill-rule:evenodd;fill:url(#linear0);" d="M 8 16 L 13 16 L 13 29 L 8 29 Z M 8 16 "/>
<path style=" stroke:none;fill-rule:evenodd;fill:url(#linear1);" d="M 8 8 L 13 8 L 13 15 L 8 15 Z M 8 8 "/>
<path style=" stroke:none;fill-rule:evenodd;fill:url(#linear2);" d="M 16 20 L 21 20 L 21 29 L 16 29 Z M 16 20 "/>
<path style=" stroke:none;fill-rule:evenodd;fill:url(#linear3);" d="M 16 12 L 21 12 L 21 19 L 16 19 Z M 16 12 "/>
<path style=" stroke:none;fill-rule:evenodd;fill:url(#linear4);" d="M 16 4 L 21 4 L 21 11 L 16 11 Z M 16 4 "/>
<path style=" stroke:none;fill-rule:evenodd;fill:url(#linear5);" d="M 24 24 L 29 24 L 29 29 L 24 29 Z M 24 24 "/>
<path style=" stroke:none;fill-rule:evenodd;fill:url(#linear6);" d="M 24 12 L 29 12 L 29 23 L 24 23 Z M 24 12 "/>
</g>
</svg>
