<?xml version="1.0" encoding="UTF-8"?>
<svg xmlns="http://www.w3.org/2000/svg" xmlns:xlink="http://www.w3.org/1999/xlink" width="32pt" height="32pt" viewBox="0 0 32 32" version="1.1">
<g id="surface7074">
<path style="fill-rule:evenodd;fill:rgb(94.117647%,97.254902%,100%);fill-opacity:1;stroke-width:1;stroke-linecap:round;stroke-linejoin:miter;stroke:rgb(94.117647%,97.254902%,100%);stroke-opacity:1;stroke-miterlimit:10;" d="M 28 24 L 4 24 M 3.738281 23.734375 C 1.203125 20.917969 1.328125 16.609375 4.015625 13.941406 L 4.207031 13.695312 C 3.6875 11.601562 4.15625 9.386719 5.484375 7.691406 C 6.808594 5.992188 8.84375 5 11 5 L 11.121094 5.003906 C 12.652344 1.992188 16.210938 0.628906 19.363281 1.839844 C 22.519531 3.050781 24.25 6.445312 23.375 9.707031 L 23.457031 9.976562 C 26.464844 10.507812 28.949219 12.628906 29.941406 15.515625 C 30.9375 18.402344 30.285156 21.601562 28.242188 23.871094 Z M 3.738281 23.734375 "/>
<path style="fill:none;stroke-width:1;stroke-linecap:butt;stroke-linejoin:miter;stroke:rgb(0%,0%,100%);stroke-opacity:1;stroke-miterlimit:10;" d="M 6 13 L 6 19 M 13 16 C 13 19.332031 9 19.332031 9 16 C 9 12.667969 13 12.667969 13 16 Z M 16 13 L 16 19 M 23 16 C 23 19.332031 19 19.332031 19 16 C 19 12.667969 23 12.667969 23 16 Z M 26 13 L 26 19 "/>
</g>
</svg>
