<?xml version="1.0" encoding="UTF-8"?>
<svg xmlns="http://www.w3.org/2000/svg" xmlns:xlink="http://www.w3.org/1999/xlink" width="32pt" height="32pt" viewBox="0 0 32 32" version="1.1">
<g id="surface7586">
<path style="fill:none;stroke-width:3;stroke-linecap:butt;stroke-linejoin:miter;stroke:rgb(75.294118%,75.294118%,75.294118%);stroke-opacity:1;stroke-miterlimit:10;" d="M 18.847762 26.625937 C 14.036121 27.913092 8.962078 25.811107 6.473393 21.499413 C 3.984709 17.187718 4.700102 11.743549 8.221825 8.221825 C 11.743549 4.700102 17.187718 3.984709 21.499413 6.473393 C 25.811107 8.962078 27.913092 14.036121 26.625937 18.847762 M 11.757359 11.757359 L 24.485281 24.485281 M 20.949747 16.707107 L 16.707107 20.949747 L 26.606602 26.606602 Z M 20.949747 6.807612 L 22.363961 6.807612 L 25.192388 5.393398 L 26.606602 6.807612 L 25.192388 9.636039 L 25.192388 11.050253 M 25.998932 13.00032 L 26.998825 14.000214 L 29.998505 15.000107 L 29.998505 16.999893 L 26.998825 17.999786 L 25.998932 18.99968 M 18.99968 25.998932 L 17.999786 26.998825 L 16.999893 29.998505 L 15.000107 29.998505 L 14.000214 26.998825 L 13.00032 25.998932 M 11.050253 25.192388 L 9.636039 25.192388 L 6.807612 26.606602 L 5.393398 25.192388 L 6.807612 22.363961 L 6.807612 20.949747 M 6.001068 18.99968 L 5.001175 17.999786 L 2.001495 16.999893 L 2.001495 15.000107 L 5.001175 14.000214 L 6.001068 13.00032 M 6.807612 11.050253 L 6.807612 9.636039 L 5.393398 6.807612 L 6.807612 5.393398 L 9.636039 6.807612 L 11.050253 6.807612 M 13.00032 6.001068 L 14.000214 5.001175 L 15.000107 2.001495 L 16.999893 2.001495 L 17.999786 5.001175 L 18.99968 6.001068 " transform="matrix(0.707107,-0.707107,0.707107,0.707107,-6.627417,16)"/>
</g>
</svg>
