<?xml version="1.0" encoding="UTF-8"?>
<svg xmlns="http://www.w3.org/2000/svg" xmlns:xlink="http://www.w3.org/1999/xlink" width="32pt" height="32pt" viewBox="0 0 32 32" version="1.1">
<g id="surface8230">
<path style="fill:none;stroke-width:2;stroke-linecap:butt;stroke-linejoin:round;stroke:rgb(66.27451%,66.27451%,66.27451%);stroke-opacity:1;stroke-miterlimit:10;" d="M 6.261719 30.320312 C 12.433594 27.441406 19.566406 27.441406 25.738281 30.320312 Z M 6.261719 30.320312 "/>
<path style=" stroke:none;fill-rule:evenodd;fill:rgb(66.27451%,66.27451%,66.27451%);fill-opacity:1;" d="M 6.261719 30.320312 C 12.433594 27.441406 19.566406 27.441406 25.738281 30.320312 Z M 6.261719 30.320312 "/>
<path style="fill:none;stroke-width:3;stroke-linecap:butt;stroke-linejoin:miter;stroke:rgb(66.27451%,66.27451%,66.27451%);stroke-opacity:1;stroke-miterlimit:10;" d="M 16 27.5 L 16 8.5 "/>
<path style=" stroke:none;fill-rule:evenodd;fill:rgb(46.27451%,46.27451%,46.27451%);fill-opacity:1;" d="M 18 6 C 18 8.667969 14 8.667969 14 6 C 14 3.332031 18 3.332031 18 6 Z M 18 6 "/>
<path style="fill:none;stroke-width:1;stroke-linecap:butt;stroke-linejoin:miter;stroke:rgb(66.27451%,66.27451%,66.27451%);stroke-opacity:1;stroke-miterlimit:10;" d="M 19 6 C 19 10 13 10 13 6 C 13 2 19 2 19 6 Z M 19 6 "/>
<path style="fill:none;stroke-width:1;stroke-linecap:butt;stroke-linejoin:miter;stroke:rgb(66.27451%,66.27451%,66.27451%);stroke-opacity:1;stroke-miterlimit:10;" d="M 13 6 L 7 6 L 2 21 L 12 21 L 7 6 M 19 6 L 25 6 "/>
<path style=" stroke:none;fill-rule:evenodd;fill:rgb(66.27451%,66.27451%,66.27451%);fill-opacity:1;" d="M 13.554688 20.589844 C 12.054688 22.726562 9.609375 24 7 24 C 4.390625 24 1.945312 22.726562 0.445312 20.589844 Z M 13.554688 20.589844 "/>
<path style="fill:none;stroke-width:1;stroke-linecap:butt;stroke-linejoin:miter;stroke:rgb(66.27451%,66.27451%,66.27451%);stroke-opacity:1;stroke-miterlimit:10;" d="M 13 6 L 7 6 L 2 21 L 12 21 L 7 6 M 19 6 L 25 6 " transform="matrix(-1,0,0,1,32,0)"/>
<path style=" stroke:none;fill-rule:evenodd;fill:rgb(66.27451%,66.27451%,66.27451%);fill-opacity:1;" d="M 18.445312 20.589844 C 19.945312 22.726562 22.390625 24 25 24 C 27.609375 24 30.054688 22.726562 31.554688 20.589844 Z M 18.445312 20.589844 "/>
</g>
</svg>
