<?xml version="1.0" encoding="UTF-8"?>
<svg xmlns="http://www.w3.org/2000/svg" xmlns:xlink="http://www.w3.org/1999/xlink" width="32pt" height="32pt" viewBox="0 0 32 32" version="1.1">
<g id="surface7022">
<path style="fill:none;stroke-width:2;stroke-linecap:butt;stroke-linejoin:round;stroke:rgb(0%,0%,0%);stroke-opacity:1;stroke-miterlimit:10;" d="M 9.421875 5.605469 C 10.429688 2.839844 13.058594 1 16 1 C 18.941406 1 21.570312 2.839844 22.578125 5.605469 L 22.578125 12 L 20 15 L 19 17 L 13 17 L 12 15 L 9.5 12 L 9.5 5 "/>
<path style=" stroke:none;fill-rule:evenodd;fill:rgb(0%,0%,0%);fill-opacity:1;" d="M 9.421875 5.605469 C 10.429688 2.839844 13.058594 1 16 1 C 18.941406 1 21.570312 2.839844 22.578125 5.605469 L 22.578125 12 L 20 15 L 19 17 L 13 17 L 12 15 L 9.5 12 L 9.5 5 "/>
<path style=" stroke:none;fill-rule:evenodd;fill:rgb(96.078431%,96.078431%,96.078431%);fill-opacity:1;" d="M 15 9 C 15 11 10 11 10 9 C 10 7 15 7 15 9 Z M 22.5 9 C 22.5 11 17.5 11 17.5 9 C 17.5 7 22.5 7 22.5 9 Z M 17.199219 14 C 17.199219 16.667969 14.800781 16.667969 14.800781 14 C 14.800781 11.332031 17.199219 11.332031 17.199219 14 Z M 17.199219 14 "/>
<path style="fill:none;stroke-width:3;stroke-linecap:butt;stroke-linejoin:miter;stroke:rgb(0%,0%,0%);stroke-opacity:1;stroke-miterlimit:10;" d="M 4.001096 22.00071 L 28.998537 21.998641 " transform="matrix(0.906308,0.422618,-0.422618,0.906308,10.796677,-4.700664)"/>
<path style=" stroke:none;fill-rule:evenodd;fill:rgb(0%,0%,0%);fill-opacity:1;" d="M 7.117188 16.203125 C 6.273438 18.015625 3.554688 16.746094 4.398438 14.933594 C 5.242188 13.121094 7.964844 14.390625 7.117188 16.203125 Z M 29.773438 26.769531 C 28.929688 28.582031 26.210938 27.3125 27.054688 25.5 C 27.902344 23.6875 30.621094 24.957031 29.773438 26.769531 Z M 29.773438 26.769531 "/>
<path style=" stroke:none;fill-rule:evenodd;fill:rgb(0%,0%,0%);fill-opacity:1;" d="M 6.304688 19.132812 C 5.175781 21.550781 1.550781 19.859375 2.679688 17.441406 C 3.804688 15.027344 7.429688 16.714844 6.304688 19.132812 Z M 28.960938 29.699219 C 27.832031 32.117188 24.207031 30.425781 25.335938 28.007812 C 26.460938 25.589844 30.085938 27.28125 28.960938 29.699219 Z M 28.960938 29.699219 "/>
<path style="fill:none;stroke-width:3;stroke-linecap:butt;stroke-linejoin:miter;stroke:rgb(0%,0%,0%);stroke-opacity:1;stroke-miterlimit:10;" d="M 4.001096 21.99929 L 28.998537 22.001359 " transform="matrix(0.906308,-0.422618,0.422618,0.906308,-7.798526,8.823121)"/>
<path style=" stroke:none;fill-rule:evenodd;fill:rgb(0%,0%,0%);fill-opacity:1;" d="M 5.851562 25.078125 C 6.695312 26.890625 3.976562 28.160156 3.132812 26.347656 C 2.285156 24.535156 5.003906 23.265625 5.851562 25.078125 Z M 28.507812 14.511719 C 29.351562 16.324219 26.632812 17.59375 25.789062 15.78125 C 24.945312 13.96875 27.664062 12.699219 28.507812 14.511719 Z M 28.507812 14.511719 "/>
<path style=" stroke:none;fill-rule:evenodd;fill:rgb(0%,0%,0%);fill-opacity:1;" d="M 7.570312 27.585938 C 8.699219 30.003906 5.074219 31.691406 3.945312 29.277344 C 2.820312 26.859375 6.445312 25.167969 7.570312 27.585938 Z M 30.230469 17.019531 C 31.355469 19.4375 27.730469 21.128906 26.601562 18.710938 C 25.476562 16.292969 29.101562 14.601562 30.230469 17.019531 Z M 30.230469 17.019531 "/>
</g>
</svg>
