<?xml version="1.0" encoding="UTF-8"?>
<svg xmlns="http://www.w3.org/2000/svg" xmlns:xlink="http://www.w3.org/1999/xlink" width="32pt" height="32pt" viewBox="0 0 32 32" version="1.1">
<g id="surface7202">
<path style="fill-rule:evenodd;fill:rgb(100%,100%,100%);fill-opacity:1;stroke-width:2;stroke-linecap:butt;stroke-linejoin:miter;stroke:rgb(0%,0%,50.196078%);stroke-opacity:1;stroke-miterlimit:10;" d="M 4 2 L 22 2 L 28 8 L 28 30 L 4 30 Z M 4 2 "/>
<path style="fill:none;stroke-width:1;stroke-linecap:butt;stroke-linejoin:miter;stroke:rgb(0%,0%,50.196078%);stroke-opacity:1;stroke-miterlimit:10;" d="M 22 2 L 22 8 L 28 8 "/>
<path style="fill:none;stroke-width:1;stroke-linecap:butt;stroke-linejoin:miter;stroke:rgb(0%,0%,50.196078%);stroke-opacity:1;stroke-miterlimit:10;" d="M 7 9 L 19 9 M 7 13 L 20 13 M 7 17 L 15 17 M 7 21 L 10 21 M 7 25 L 9 25 "/>
<path style="fill:none;stroke-width:4.5;stroke-linecap:round;stroke-linejoin:miter;stroke:rgb(0%,0%,0%);stroke-opacity:1;stroke-miterlimit:10;" d="M 16.001601 1.998533 L 16.001601 6.497746 " transform="matrix(0.636396,0.636396,-0.636396,0.636396,20.127565,-1.509903)"/>
<path style="fill:none;stroke-width:5;stroke-linecap:butt;stroke-linejoin:miter;stroke:rgb(100%,100%,100%);stroke-opacity:1;stroke-miterlimit:10;" d="M 15.998532 5.500308 L 15.998532 6.997999 " transform="matrix(0.636396,0.636396,-0.636396,0.636396,20.127565,-1.509903)"/>
<path style="fill:none;stroke-width:5;stroke-linecap:butt;stroke-linejoin:miter;stroke:rgb(0%,0%,0%);stroke-opacity:1;stroke-miterlimit:10;" d="M 16.001601 7.001068 L 16.001601 25.998425 " transform="matrix(0.636396,0.636396,-0.636396,0.636396,20.127565,-1.509903)"/>
<path style=" stroke:none;fill-rule:evenodd;fill:rgb(100%,100%,100%);fill-opacity:1;" d="M 12.171875 23.628906 L 9.945312 29.039062 L 15.355469 26.808594 Z M 12.171875 23.628906 "/>
<path style=" stroke:none;fill-rule:evenodd;fill:rgb(0%,0%,0%);fill-opacity:1;" d="M 11.21875 26.109375 L 9.945312 29.039062 L 12.871094 27.765625 Z M 11.21875 26.109375 "/>
</g>
</svg>
