<?xml version="1.0" encoding="UTF-8"?>
<svg xmlns="http://www.w3.org/2000/svg" xmlns:xlink="http://www.w3.org/1999/xlink" width="32pt" height="32pt" viewBox="0 0 32 32" version="1.1">
<g id="surface7554">
<path style=" stroke:none;fill-rule:evenodd;fill:rgb(75.294118%,75.294118%,75.294118%);fill-opacity:1;" d="M 6.5 4 C 6.5 7.332031 1.5 7.332031 1.5 4 C 1.5 0.667969 6.5 0.667969 6.5 4 Z M 22.5 16 C 22.5 19.332031 17.5 19.332031 17.5 16 C 17.5 12.667969 22.5 12.667969 22.5 16 Z M 22.5 28 C 22.5 31.332031 17.5 31.332031 17.5 28 C 17.5 24.667969 22.5 24.667969 22.5 28 Z M 22.5 28 "/>
<path style="fill:none;stroke-width:1;stroke-linecap:butt;stroke-linejoin:miter;stroke:rgb(75.294118%,75.294118%,75.294118%);stroke-opacity:1;stroke-miterlimit:10;" d="M 4 4 L 4 28 M 4 4 L 20 4 M 4 16 L 32 16 M 20 16 L 20 28 M 20 28 L 32 28 "/>
</g>
</svg>
