<?xml version="1.0" encoding="UTF-8"?>
<svg xmlns="http://www.w3.org/2000/svg" xmlns:xlink="http://www.w3.org/1999/xlink" width="32pt" height="32pt" viewBox="0 0 32 32" version="1.1">
<g id="surface7214">
<path style="fill-rule:evenodd;fill:rgb(100%,100%,100%);fill-opacity:1;stroke-width:2;stroke-linecap:butt;stroke-linejoin:miter;stroke:rgb(0%,0%,50.196078%);stroke-opacity:1;stroke-miterlimit:10;" d="M 4 2 L 22 2 L 28 8 L 28 30 L 4 30 Z M 4 2 "/>
<path style="fill:none;stroke-width:1;stroke-linecap:butt;stroke-linejoin:miter;stroke:rgb(0%,0%,50.196078%);stroke-opacity:1;stroke-miterlimit:10;" d="M 22 2 L 22 8 L 28 8 "/>
<path style="fill:none;stroke-width:1;stroke-linecap:butt;stroke-linejoin:miter;stroke:rgb(0%,0%,50.196078%);stroke-opacity:1;stroke-miterlimit:10;" d="M 7 9 L 19 9 M 7 13 L 24 13 M 7 17 L 12 17 M 7 21 L 11 21 M 7 25 L 18 25 "/>
<path style=" stroke:none;fill-rule:evenodd;fill:rgb(0%,0%,0%);fill-opacity:1;" d="M 24 14 L 32 20 L 24 26 Z M 24 14 "/>
<path style="fill:none;stroke-width:4;stroke-linecap:butt;stroke-linejoin:miter;stroke:rgb(0%,0%,0%);stroke-opacity:1;stroke-miterlimit:10;" d="M 16 20 L 24 20 "/>
<path style="fill:none;stroke-width:2;stroke-linecap:butt;stroke-linejoin:miter;stroke:rgb(100%,100%,100%);stroke-opacity:1;stroke-miterlimit:10;" d="M 24.25 12.5 L 29.5 17 M 24.25 27.5 L 29.5 23 "/>
</g>
</svg>
