<?xml version="1.0" encoding="UTF-8"?>
<svg xmlns="http://www.w3.org/2000/svg" xmlns:xlink="http://www.w3.org/1999/xlink" width="32pt" height="32pt" viewBox="0 0 32 32" version="1.1">
<g id="surface7846">
<path style="fill:none;stroke-width:2;stroke-linecap:butt;stroke-linejoin:miter;stroke:rgb(75.294118%,75.294118%,75.294118%);stroke-opacity:1;stroke-miterlimit:10;" d="M 14 16 L 17 31 "/>
<path style=" stroke:none;fill-rule:evenodd;fill:rgb(66.27451%,66.27451%,66.27451%);fill-opacity:1;" d="M 23.648438 11.753906 C 21.574219 15.34375 18.152344 17.242188 16 16 C 13.847656 14.757812 13.78125 10.84375 15.851562 7.253906 C 17.925781 3.667969 21.347656 1.765625 23.5 3.007812 C 25.652344 4.253906 25.71875 8.167969 23.648438 11.753906 Z M 23.648438 11.753906 "/>
<path style=" stroke:none;fill-rule:evenodd;fill:rgb(66.27451%,66.27451%,66.27451%);fill-opacity:1;" d="M 24.746094 16.148438 C 21.15625 18.21875 17.242188 18.152344 16 16 C 14.757812 13.847656 16.65625 10.425781 20.246094 8.351562 C 23.832031 6.28125 27.746094 6.347656 28.992188 8.5 C 30.234375 10.652344 28.332031 14.074219 24.746094 16.148438 Z M 24.746094 16.148438 "/>
<path style=" stroke:none;fill-rule:evenodd;fill:rgb(66.27451%,66.27451%,66.27451%);fill-opacity:1;" d="M 20.246094 23.648438 C 16.65625 21.574219 14.757812 18.152344 16 16 C 17.242188 13.847656 21.15625 13.78125 24.746094 15.851562 C 28.332031 17.925781 30.234375 21.347656 28.992188 23.5 C 27.746094 25.652344 23.832031 25.71875 20.246094 23.648438 Z M 20.246094 23.648438 "/>
<path style=" stroke:none;fill-rule:evenodd;fill:rgb(66.27451%,66.27451%,66.27451%);fill-opacity:1;" d="M 15.851562 24.746094 C 13.78125 21.15625 13.847656 17.242188 16 16 C 18.152344 14.757812 21.574219 16.65625 23.648438 20.246094 C 25.71875 23.832031 25.652344 27.746094 23.5 28.992188 C 21.347656 30.234375 17.925781 28.332031 15.851562 24.746094 Z M 15.851562 24.746094 "/>
<path style=" stroke:none;fill-rule:evenodd;fill:rgb(66.27451%,66.27451%,66.27451%);fill-opacity:1;" d="M 8.351562 20.246094 C 10.425781 16.65625 13.847656 14.757812 16 16 C 18.152344 17.242188 18.21875 21.15625 16.148438 24.746094 C 14.074219 28.332031 10.652344 30.234375 8.5 28.992188 C 6.347656 27.746094 6.28125 23.832031 8.351562 20.246094 Z M 8.351562 20.246094 "/>
<path style=" stroke:none;fill-rule:evenodd;fill:rgb(66.27451%,66.27451%,66.27451%);fill-opacity:1;" d="M 7.253906 15.851562 C 10.84375 13.78125 14.757812 13.847656 16 16 C 17.242188 18.152344 15.34375 21.574219 11.753906 23.648438 C 8.167969 25.71875 4.253906 25.652344 3.007812 23.5 C 1.765625 21.347656 3.667969 17.925781 7.253906 15.851562 Z M 7.253906 15.851562 "/>
<path style=" stroke:none;fill-rule:evenodd;fill:rgb(66.27451%,66.27451%,66.27451%);fill-opacity:1;" d="M 11.753906 8.351562 C 15.34375 10.425781 17.242188 13.847656 16 16 C 14.757812 18.152344 10.84375 18.21875 7.253906 16.148438 C 3.667969 14.074219 1.765625 10.652344 3.007812 8.5 C 4.253906 6.347656 8.167969 6.28125 11.753906 8.351562 Z M 11.753906 8.351562 "/>
<path style=" stroke:none;fill-rule:evenodd;fill:rgb(66.27451%,66.27451%,66.27451%);fill-opacity:1;" d="M 16.148438 7.253906 C 18.21875 10.84375 18.152344 14.757812 16 16 C 13.847656 17.242188 10.425781 15.34375 8.351562 11.753906 C 6.28125 8.167969 6.347656 4.253906 8.5 3.007812 C 10.652344 1.765625 14.074219 3.667969 16.148438 7.253906 Z M 16.148438 7.253906 "/>
</g>
</svg>
