<?xml version="1.0" encoding="UTF-8"?>
<svg xmlns="http://www.w3.org/2000/svg" xmlns:xlink="http://www.w3.org/1999/xlink" width="32pt" height="32pt" viewBox="0 0 32 32" version="1.1">
<g id="surface6802">
<path style="fill:none;stroke-width:2;stroke-linecap:round;stroke-linejoin:round;stroke:rgb(0%,0%,50.196078%);stroke-opacity:1;stroke-miterlimit:10;" d="M 1 14 L 1 30 L 20 30 M 16 26 L 22 26 M 20 26 C 22.667969 26 22.667969 30 20 30 M 16 22 L 26 22 M 22 22 C 24.667969 22 24.667969 26 22 26 M 16 18 L 26 18 M 26 18 C 28.667969 18 28.667969 22 26 22 M 1 14 L 22 14 M 22 14 C 24.667969 14 24.667969 18 22 18 M 14.800781 3.257812 C 13.78125 9.050781 8.996094 13.4375 3.132812 13.949219 M 14.699219 3 L 13.699219 3 L 2 14 "/>
</g>
</svg>
