<?xml version="1.0" encoding="UTF-8"?>
<svg xmlns="http://www.w3.org/2000/svg" xmlns:xlink="http://www.w3.org/1999/xlink" width="32pt" height="32pt" viewBox="0 0 32 32" version="1.1">
<g id="surface7018">
<path style=" stroke:none;fill-rule:evenodd;fill:rgb(96.078431%,96.078431%,96.078431%);fill-opacity:1;" d="M 29 16 C 29 23.179688 23.179688 29 16 29 C 8.820312 29 3 23.179688 3 16 C 3 8.820312 8.820312 3 16 3 C 23.179688 3 29 8.820312 29 16 Z M 29 16 "/>
<path style="fill:none;stroke-width:3;stroke-linecap:butt;stroke-linejoin:miter;stroke:rgb(27.45098%,50.980392%,70.588235%);stroke-opacity:1;stroke-miterlimit:10;" d="M 16 3 C 20.644531 3 24.9375 5.476562 27.257812 9.5 C 29.582031 13.523438 29.582031 18.476562 27.257812 22.5 C 24.9375 26.523438 20.644531 29 16 29 C 11.355469 29 7.0625 26.523438 4.742188 22.5 "/>
<path style=" stroke:none;fill-rule:evenodd;fill:rgb(27.45098%,50.980392%,70.588235%);fill-opacity:1;" d="M 13 17 L 19 17 L 16 6 Z M 13 17 "/>
<path style=" stroke:none;fill-rule:evenodd;fill:rgb(27.45098%,50.980392%,70.588235%);fill-opacity:1;" d="M 13.5 13.5 L 13.5 18.5 L 24 16 Z M 13.5 13.5 "/>
<path style=" stroke:none;fill-rule:evenodd;fill:rgb(27.45098%,50.980392%,70.588235%);fill-opacity:1;" d="M 19.5 16 C 19.5 20.667969 12.5 20.667969 12.5 16 C 12.5 11.332031 19.5 11.332031 19.5 16 Z M 19.5 16 "/>
<path style="fill:none;stroke-width:3;stroke-linecap:butt;stroke-linejoin:miter;stroke:rgb(100%,27.058824%,0%);stroke-opacity:1;stroke-miterlimit:10;" d="M 4.742188 22.5 C 2.417969 18.476562 2.417969 13.523438 4.742188 9.5 C 7.0625 5.476562 11.355469 3 16 3 "/>
<path style=" stroke:none;fill-rule:evenodd;fill:rgb(100%,27.058824%,0%);fill-opacity:1;" d="M 7.5 22 L 2.75 23.5 L 6.25 24.550781 Z M 7.5 22 "/>
<path style="fill:none;stroke-width:1.2;stroke-linecap:butt;stroke-linejoin:miter;stroke:rgb(100%,27.058824%,0%);stroke-opacity:1;stroke-miterlimit:10;" d="M 7.5 21.25 L 2.5 23.5 L 6.25 24.25 Z M 7.5 21.25 "/>
<path style=" stroke:none;fill-rule:evenodd;fill:rgb(0%,0%,0%);fill-opacity:1;" d="M 17.5 16 C 17.5 18 14.5 18 14.5 16 C 14.5 14 17.5 14 17.5 16 Z M 17.5 16 "/>
</g>
</svg>
