<?xml version="1.0" encoding="UTF-8"?>
<svg xmlns="http://www.w3.org/2000/svg" xmlns:xlink="http://www.w3.org/1999/xlink" width="32pt" height="32pt" viewBox="0 0 32 32" version="1.1">
<g id="surface6670">
<path style="fill:none;stroke-width:1.12;stroke-linecap:butt;stroke-linejoin:miter;stroke:rgb(0%,0%,0%);stroke-opacity:1;stroke-miterlimit:10;" d="M 11.199219 0 C 16.640625 4.480469 7.039062 5.121094 12.160156 9.28125 M 15.839844 0 C 21.28125 4.480469 11.679688 5.121094 16.800781 9.28125 M 20.382812 0 C 25.824219 4.480469 16.222656 5.121094 21.34375 9.28125 "/>
<path style=" stroke:none;fill-rule:evenodd;fill:rgb(0%,0%,0%);fill-opacity:1;" d="M 5.121094 11.199219 C 5.761719 16.640625 5.761719 23.039062 8.960938 27.519531 L 22.71875 27.519531 C 26.238281 23.039062 26.238281 16.640625 26.878906 11.199219 Z M 5.121094 11.199219 "/>
<path style="fill:none;stroke-width:2.56;stroke-linecap:butt;stroke-linejoin:miter;stroke:rgb(0%,0%,0%);stroke-opacity:1;stroke-miterlimit:10;" d="M 26.589844 12.847656 C 29.246094 13.21875 31.082031 15.699219 30.660156 18.351562 C 30.242188 21 27.730469 22.792969 25.085938 22.328125 "/>
<path style=" stroke:none;fill-rule:evenodd;fill:rgb(0%,0%,0%);fill-opacity:1;" d="M 0 28.480469 C 0.960938 30.398438 2.878906 31.039062 4.800781 32 L 27.199219 32 C 29.121094 31.039062 31.039062 30.398438 32 28.480469 Z M 0 28.480469 "/>
</g>
</svg>
