<?xml version="1.0" encoding="UTF-8"?>
<svg xmlns="http://www.w3.org/2000/svg" xmlns:xlink="http://www.w3.org/1999/xlink" width="32pt" height="32pt" viewBox="0 0 32 32" version="1.1">
<g id="surface6906">
<path style="fill:none;stroke-width:1;stroke-linecap:butt;stroke-linejoin:miter;stroke:rgb(94.117647%,90.196078%,54.901961%);stroke-opacity:1;stroke-miterlimit:10;" d="M 30.398438 16 C 30.398438 23.953125 23.953125 30.398438 16 30.398438 C 8.046875 30.398438 1.601562 23.953125 1.601562 16 C 1.601562 8.046875 8.046875 1.601562 16 1.601562 C 23.953125 1.601562 30.398438 8.046875 30.398438 16 Z M 30.398438 16 "/>
<path style=" stroke:none;fill-rule:evenodd;fill:rgb(96.078431%,96.078431%,96.078431%);fill-opacity:1;" d="M 30.398438 16 C 30.398438 23.953125 23.953125 30.398438 16 30.398438 C 8.046875 30.398438 1.601562 23.953125 1.601562 16 C 1.601562 8.046875 8.046875 1.601562 16 1.601562 C 23.953125 1.601562 30.398438 8.046875 30.398438 16 Z M 30.398438 16 "/>
<path style=" stroke:none;fill-rule:evenodd;fill:rgb(94.117647%,90.196078%,54.901961%);fill-opacity:1;" d="M 28.800781 16 C 28.800781 23.070312 23.070312 28.800781 16 28.800781 C 8.929688 28.800781 3.199219 23.070312 3.199219 16 C 3.199219 8.929688 8.929688 3.199219 16 3.199219 C 23.070312 3.199219 28.800781 8.929688 28.800781 16 Z M 28.800781 16 "/>
<path style=" stroke:none;fill-rule:evenodd;fill:rgb(96.078431%,96.078431%,96.078431%);fill-opacity:1;" d="M 15.679688 16 L 15.359375 3.199219 L 16.640625 3.199219 L 16.320312 16 Z M 15.792969 15.753906 L 25.394531 7.28125 L 26.214844 8.261719 L 16.207031 16.246094 Z M 16.183594 15.738281 L 26.851562 22.816406 L 26.117188 23.867188 L 15.816406 16.261719 Z M 16.316406 15.945312 L 18.851562 28.496094 L 17.59375 28.714844 L 15.683594 16.054688 Z M 16.183594 16.261719 L 5.882812 23.867188 L 5.148438 22.816406 L 15.816406 15.738281 Z M 15.890625 16.300781 L 3.753906 12.222656 L 4.191406 11.019531 L 16.109375 15.699219 Z M 15.890625 16.300781 "/>
<path style=" stroke:none;fill-rule:evenodd;fill:rgb(96.078431%,96.078431%,96.078431%);fill-opacity:1;" d="M 16.683594 14.121094 C 19.191406 15.03125 17.820312 18.792969 15.316406 17.878906 C 12.808594 16.96875 14.179688 13.207031 16.683594 14.121094 Z M 16.683594 14.121094 "/>
</g>
</svg>
