<?xml version="1.0" encoding="UTF-8"?>
<svg xmlns="http://www.w3.org/2000/svg" xmlns:xlink="http://www.w3.org/1999/xlink" width="32pt" height="32pt" viewBox="0 0 32 32" version="1.1">
<g id="surface7750">
<path style=" stroke:none;fill-rule:evenodd;fill:rgb(75.294118%,75.294118%,75.294118%);fill-opacity:1;" d="M 30 16 L 30 25 C 30 27.761719 27.761719 30 25 30 L 7 30 C 4.238281 30 2 27.761719 2 25 L 2 7 C 2 4.238281 4.238281 2 7 2 L 25 2 C 27.761719 2 30 4.238281 30 7 Z M 30 16 "/>
<path style=" stroke:none;fill-rule:evenodd;fill:rgb(96.078431%,96.078431%,96.078431%);fill-opacity:1;" d="M 27 16 C 27 20.96875 22.074219 25 16 25 C 9.925781 25 5 20.96875 5 16 C 5 11.03125 9.925781 7 16 7 C 22.074219 7 27 11.03125 27 16 Z M 27 16 "/>
<path style=" stroke:none;fill-rule:evenodd;fill:rgb(96.078431%,96.078431%,96.078431%);fill-opacity:1;" d="M 13 24 L 7 27 L 10 22 Z M 13 24 "/>
</g>
</svg>
