<?xml version="1.0" encoding="UTF-8"?>
<svg xmlns="http://www.w3.org/2000/svg" xmlns:xlink="http://www.w3.org/1999/xlink" width="32pt" height="32pt" viewBox="0 0 32 32" version="1.1">
<g id="surface6870">
<path style=" stroke:none;fill-rule:evenodd;fill:rgb(0%,0%,50.196078%);fill-opacity:1;" d="M 14 26 C 14 28.210938 11.3125 30 8 30 C 4.6875 30 2 28.210938 2 26 C 2 23.789062 4.6875 22 8 22 C 11.3125 22 14 23.789062 14 26 Z M 30 22 C 30 24.210938 27.3125 26 24 26 C 20.6875 26 18 24.210938 18 22 C 18 19.789062 20.6875 18 24 18 C 27.3125 18 30 19.789062 30 22 Z M 30 22 "/>
<path style="fill:none;stroke-width:3;stroke-linecap:butt;stroke-linejoin:miter;stroke:rgb(0%,0%,50.196078%);stroke-opacity:1;stroke-miterlimit:10;" d="M 12.5 26 L 12.5 6 L 28.5 2 L 28.5 22 "/>
</g>
</svg>
