<?xml version="1.0" encoding="UTF-8"?>
<svg xmlns="http://www.w3.org/2000/svg" xmlns:xlink="http://www.w3.org/1999/xlink" width="32pt" height="32pt" viewBox="0 0 32 32" version="1.1">
<g id="surface7066">
<path style="fill:none;stroke-width:0.5;stroke-linecap:round;stroke-linejoin:round;stroke:rgb(0%,0%,100%);stroke-opacity:1;stroke-miterlimit:10;" d="M 1.976562 6.5 L 1.976562 1.5 L 6.023438 6.5 L 6.023438 1.5 "/>
<path style="fill:none;stroke-width:0.5;stroke-linecap:round;stroke-linejoin:round;stroke:rgb(0%,0%,100%);stroke-opacity:1;stroke-miterlimit:10;" d="M 9.886719 2.980469 C 10.605469 1.007812 13.394531 1.007812 14.113281 2.980469 M 14.113281 5.019531 C 13.394531 6.992188 10.605469 6.992188 9.886719 5.019531 M 9.863281 3.089844 L 9.863281 4.910156 M 14.136719 3.089844 L 14.136719 4.910156 "/>
<path style="fill:none;stroke-width:0.5;stroke-linecap:round;stroke-linejoin:round;stroke:rgb(0%,0%,100%);stroke-opacity:1;stroke-miterlimit:10;" d="M 20.476562 1.5 L 17.976562 1.5 L 17.976562 6.5 M 20.476562 4 L 17.976562 4 M 20.476562 1.5 C 22.140625 1.5 22.140625 4 20.476562 4 "/>
<path style="fill:none;stroke-width:0.5;stroke-linecap:round;stroke-linejoin:round;stroke:rgb(0%,0%,100%);stroke-opacity:1;stroke-miterlimit:10;" d="M 25.886719 2.980469 C 26.605469 1.007812 29.394531 1.007812 30.113281 2.980469 M 30.113281 5.019531 C 29.394531 6.992188 26.605469 6.992188 25.886719 5.019531 M 25.863281 3.089844 L 25.863281 4.910156 M 30.136719 3.089844 L 30.136719 4.910156 M 28.5625 4.625 L 30.476562 6.75 "/>
<path style="fill:none;stroke-width:0.5;stroke-linecap:round;stroke-linejoin:round;stroke:rgb(0%,0%,100%);stroke-opacity:1;stroke-miterlimit:10;" d="M 4.476562 9.5 L 1.976562 9.5 L 1.976562 14.5 M 4.476562 12 L 1.976562 12 M 4.476562 9.5 C 6.140625 9.5 6.140625 12 4.476562 12 M 4.140625 12 L 5.417969 14.5 "/>
<path style="fill:none;stroke-width:0.5;stroke-linecap:round;stroke-linejoin:round;stroke:rgb(0%,0%,100%);stroke-opacity:1;stroke-miterlimit:10;" d="M 10.835938 9.714844 C 11.898438 9.101562 13.246094 9.339844 14.035156 10.277344 M 10.863281 9.691406 C 9.734375 10.105469 9.953125 11.765625 11.152344 11.871094 L 13 12.375 M 13.097656 12.378906 C 14.296875 12.484375 14.515625 14.144531 13.386719 14.558594 M 13.414062 14.535156 C 12.351562 15.148438 11.003906 14.910156 10.214844 13.972656 "/>
<path style="fill:none;stroke-width:0.5;stroke-linecap:round;stroke-linejoin:round;stroke:rgb(0%,0%,100%);stroke-opacity:1;stroke-miterlimit:10;" d="M 17.976562 9.5 L 22.023438 9.5 M 20 9.5 L 20 14.5 "/>
<path style="fill:none;stroke-width:0.5;stroke-linecap:round;stroke-linejoin:round;stroke:rgb(0%,0%,100%);stroke-opacity:1;stroke-miterlimit:10;" d="M 29.902344 13.167969 C 29.257812 14.945312 26.742188 14.945312 26.097656 13.167969 M 26.078125 9.5 L 26.078125 13.085938 M 29.921875 9.5 L 29.921875 13.085938 "/>
<path style="fill:none;stroke-width:0.5;stroke-linecap:round;stroke-linejoin:round;stroke:rgb(0%,0%,100%);stroke-opacity:1;stroke-miterlimit:10;" d="M 1.75 17.5 L 4 22.5 L 6.25 17.5 "/>
<path style="fill:none;stroke-width:0.5;stroke-linecap:round;stroke-linejoin:round;stroke:rgb(0%,0%,100%);stroke-opacity:1;stroke-miterlimit:10;" d="M 8.25 17.5 L 10.125 22.5 L 12 18.75 L 13.875 22.5 L 15.75 17.5 "/>
<path style="fill:none;stroke-width:0.5;stroke-linecap:round;stroke-linejoin:round;stroke:rgb(0%,0%,100%);stroke-opacity:1;stroke-miterlimit:10;" d="M 17.976562 17.5 L 22.023438 22.5 M 22.023438 17.5 L 17.976562 22.5 "/>
<path style="fill:none;stroke-width:0.5;stroke-linecap:round;stroke-linejoin:round;stroke:rgb(0%,0%,100%);stroke-opacity:1;stroke-miterlimit:10;" d="M 25.75 17.5 L 28 20 L 30.25 17.5 M 28 20 L 28 22.5 "/>
<path style="fill:none;stroke-width:0.5;stroke-linecap:round;stroke-linejoin:round;stroke:rgb(0%,0%,100%);stroke-opacity:1;stroke-miterlimit:10;" d="M 1.976562 25.5 L 6.023438 25.5 L 1.976562 30.5 L 6.023438 30.5 "/>
</g>
</svg>
