<?xml version="1.0" encoding="UTF-8"?>
<svg xmlns="http://www.w3.org/2000/svg" xmlns:xlink="http://www.w3.org/1999/xlink" width="32pt" height="32pt" viewBox="0 0 32 32" version="1.1">
<g id="surface7494">
<rect x="0" y="0" width="32" height="32" style="fill:rgb(75.294118%,75.294118%,75.294118%);fill-opacity:1;stroke:none;"/>
<path style=" stroke:none;fill-rule:evenodd;fill:rgb(96.078431%,96.078431%,96.078431%);fill-opacity:1;" d="M 12.582031 1.191406 C 7.886719 2.273438 3.980469 5.519531 2.0625 9.9375 C 0.140625 14.359375 0.425781 19.425781 2.835938 23.601562 C 5.246094 27.773438 9.492188 30.558594 14.28125 31.101562 C 19.066406 31.648438 23.832031 29.890625 27.117188 26.367188 L 27.058594 26.308594 C 20.617188 27.675781 14.027344 24.742188 10.734375 19.039062 C 7.441406 13.335938 8.195312 6.164062 12.601562 1.269531 "/>
<path style=" stroke:none;fill-rule:evenodd;fill:rgb(96.078431%,96.078431%,96.078431%);fill-opacity:1;" d="M 19.199219 1.601562 L 20.488281 5.109375 L 24 6.398438 L 20.488281 7.691406 L 19.199219 11.199219 L 17.910156 7.691406 L 14.398438 6.398438 L 17.910156 5.109375 Z M 25.601562 9.601562 L 26.460938 11.941406 L 28.800781 12.800781 L 26.460938 13.660156 L 25.601562 16 L 24.738281 13.660156 L 22.398438 12.800781 L 24.738281 11.941406 Z M 25.601562 9.601562 "/>
</g>
</svg>
