<?xml version="1.0" encoding="UTF-8"?>
<svg xmlns="http://www.w3.org/2000/svg" xmlns:xlink="http://www.w3.org/1999/xlink" width="32pt" height="32pt" viewBox="0 0 32 32" version="1.1">
<g id="surface7170">
<path style="fill:none;stroke-width:4;stroke-linecap:butt;stroke-linejoin:round;stroke:rgb(85.490196%,64.705882%,12.54902%);stroke-opacity:1;stroke-miterlimit:10;" d="M 2 12 L 30 12 L 30 27 L 2 27 Z M 2 12 "/>
<path style=" stroke:none;fill-rule:evenodd;fill:rgb(85.490196%,64.705882%,12.54902%);fill-opacity:1;" d="M 2 12 L 30 12 L 30 27 L 2 27 Z M 2 12 "/>
<path style="fill:none;stroke-width:2;stroke-linecap:butt;stroke-linejoin:miter;stroke:rgb(85.490196%,64.705882%,12.54902%);stroke-opacity:1;stroke-miterlimit:10;" d="M 2 16 L 2 6 C 2 4.894531 2.894531 4 4 4 L 10 4 C 11.105469 4 12 4.894531 12 6 "/>
<path style="fill:none;stroke-width:2;stroke-linecap:butt;stroke-linejoin:miter;stroke:rgb(85.490196%,64.705882%,12.54902%);stroke-opacity:1;stroke-miterlimit:10;" d="M 2 16 L 2 6 C 2 4.894531 2.894531 4 4 4 L 10 4 C 11.105469 4 12 4.894531 12 6 C 12 6.550781 12.449219 7 13 7 L 28 7 C 29.105469 7 30 7.894531 30 9 L 30 16 "/>
</g>
</svg>
