<?xml version="1.0" encoding="UTF-8"?>
<svg xmlns="http://www.w3.org/2000/svg" xmlns:xlink="http://www.w3.org/1999/xlink" width="32pt" height="32pt" viewBox="0 0 32 32" version="1.1">
<g id="surface7994">
<path style="fill:none;stroke-width:2;stroke-linecap:butt;stroke-linejoin:miter;stroke:rgb(75.294118%,75.294118%,75.294118%);stroke-opacity:1;stroke-miterlimit:10;" d="M 2 16 L 2 10 C 2 8.894531 2.894531 8 4 8 L 8 8 C 9.105469 8 10 8.894531 10 10 C 10 10.550781 10.449219 11 11 11 L 22 11 C 23.105469 11 24 11.894531 24 13 L 24 16 "/>
<path style="fill:none;stroke-width:4;stroke-linecap:butt;stroke-linejoin:round;stroke:rgb(75.294118%,75.294118%,75.294118%);stroke-opacity:1;stroke-miterlimit:10;" d="M 2 16 L 24 16 L 24 30 L 2 30 Z M 2 16 "/>
<path style=" stroke:none;fill-rule:evenodd;fill:rgb(75.294118%,75.294118%,75.294118%);fill-opacity:1;" d="M 2 16 L 24 16 L 24 30 L 2 30 Z M 2 16 "/>
<path style="fill:none;stroke-width:4;stroke-linecap:butt;stroke-linejoin:miter;stroke:rgb(66.27451%,66.27451%,66.27451%);stroke-opacity:1;stroke-miterlimit:10;" d="M 4.5 27 L 7.859375 24.121094 C 7.949219 24.042969 8.066406 24 8.183594 24 L 28.792969 24 C 29.238281 24 29.460938 24.539062 29.144531 24.855469 L 24.144531 29.855469 C 24.050781 29.949219 23.925781 30 23.792969 30 L 2.351562 30 C 1.886719 30 1.671875 29.421875 2.027344 29.121094 Z M 4.5 27 "/>
<path style=" stroke:none;fill-rule:evenodd;fill:rgb(66.27451%,66.27451%,66.27451%);fill-opacity:1;" d="M 4.5 27 L 7.859375 24.121094 C 7.949219 24.042969 8.066406 24 8.183594 24 L 28.792969 24 C 29.238281 24 29.460938 24.539062 29.144531 24.855469 L 24.144531 29.855469 C 24.050781 29.949219 23.925781 30 23.792969 30 L 2.351562 30 C 1.886719 30 1.671875 29.421875 2.027344 29.121094 Z M 4.5 27 "/>
</g>
</svg>
