<?xml version="1.0" encoding="UTF-8"?>
<svg xmlns="http://www.w3.org/2000/svg" xmlns:xlink="http://www.w3.org/1999/xlink" width="32pt" height="32pt" viewBox="0 0 32 32" version="1.1">
<g id="surface7970">
<path style="fill:none;stroke-width:1.5;stroke-linecap:butt;stroke-linejoin:bevel;stroke:rgb(75.294118%,75.294118%,75.294118%);stroke-opacity:1;stroke-miterlimit:10;" d="M 1 4 L 21 4 L 21 28 L 1 28 Z M 1 4 "/>
<path style="fill:none;stroke-width:1;stroke-linecap:butt;stroke-linejoin:miter;stroke:rgb(75.294118%,75.294118%,75.294118%);stroke-opacity:1;stroke-miterlimit:10;" d="M 9 4 C 9 1.332031 13 1.332031 13 4 "/>
<path style=" stroke:none;fill-rule:evenodd;fill:rgb(75.294118%,75.294118%,75.294118%);fill-opacity:1;" d="M 14.332031 4 L 14.332031 6 L 16.332031 8 L 5.667969 8 L 7.667969 6 L 7.667969 4 Z M 14.332031 4 "/>
<path style="fill:none;stroke-width:2;stroke-linecap:butt;stroke-linejoin:round;stroke:rgb(75.294118%,75.294118%,75.294118%);stroke-opacity:1;stroke-miterlimit:10;" d="M 14 11 L 31 11 L 31 31 L 14 31 Z M 14 11 "/>
<path style=" stroke:none;fill-rule:evenodd;fill:rgb(96.078431%,96.078431%,96.078431%);fill-opacity:1;" d="M 14 11 L 31 11 L 31 31 L 14 31 Z M 14 11 "/>
<path style="fill:none;stroke-width:1;stroke-linecap:butt;stroke-linejoin:miter;stroke:rgb(75.294118%,75.294118%,75.294118%);stroke-opacity:1;stroke-miterlimit:10;" d="M 17 16 L 28 16 M 17 19 L 20 19 M 17 22 L 26 22 M 17 25 L 24 25 "/>
</g>
</svg>
