<?xml version="1.0" encoding="UTF-8"?>
<svg xmlns="http://www.w3.org/2000/svg" xmlns:xlink="http://www.w3.org/1999/xlink" width="32pt" height="32pt" viewBox="0 0 32 32" version="1.1">
<g id="surface7694">
<rect x="0" y="0" width="32" height="32" style="fill:rgb(96.078431%,96.078431%,96.078431%);fill-opacity:1;stroke:none;"/>
<path style=" stroke:none;fill-rule:evenodd;fill:rgb(82.745098%,82.745098%,82.745098%);fill-opacity:1;" d="M 2 2 L 30 2 L 30 30 L 2 30 Z M 2 2 "/>
<path style=" stroke:none;fill-rule:evenodd;fill:rgb(75.294118%,75.294118%,75.294118%);fill-opacity:1;" d="M 2 16 L 30 16 L 30 30 L 2 30 Z M 2 16 "/>
<path style=" stroke:none;fill-rule:evenodd;fill:rgb(66.27451%,66.27451%,66.27451%);fill-opacity:1;" d="M 19 9 C 19 12.3125 17.65625 15 16 15 C 14.34375 15 13 12.3125 13 9 C 13 5.6875 14.34375 3 16 3 C 17.65625 3 19 5.6875 19 9 Z M 19 9 "/>
<path style=" stroke:none;fill-rule:evenodd;fill:rgb(66.27451%,66.27451%,66.27451%);fill-opacity:1;" d="M 22.363281 12.878906 C 20.019531 15.222656 17.171875 16.171875 16 15 C 14.828125 13.828125 15.777344 10.980469 18.121094 8.636719 C 20.464844 6.292969 23.3125 5.34375 24.484375 6.515625 C 25.65625 7.6875 24.707031 10.535156 22.363281 12.878906 Z M 22.363281 12.878906 "/>
<path style=" stroke:none;fill-rule:evenodd;fill:rgb(66.27451%,66.27451%,66.27451%);fill-opacity:1;" d="M 22 18 C 18.6875 18 16 16.65625 16 15 C 16 13.34375 18.6875 12 22 12 C 25.3125 12 28 13.34375 28 15 C 28 16.65625 25.3125 18 22 18 Z M 22 18 "/>
<path style=" stroke:none;fill-rule:evenodd;fill:rgb(66.27451%,66.27451%,66.27451%);fill-opacity:1;" d="M 18.121094 21.363281 C 15.777344 19.019531 14.828125 16.171875 16 15 C 17.171875 13.828125 20.019531 14.777344 22.363281 17.121094 C 24.707031 19.464844 25.65625 22.3125 24.484375 23.484375 C 23.3125 24.65625 20.464844 23.707031 18.121094 21.363281 Z M 18.121094 21.363281 "/>
<path style=" stroke:none;fill-rule:evenodd;fill:rgb(66.27451%,66.27451%,66.27451%);fill-opacity:1;" d="M 9.636719 17.121094 C 11.980469 14.777344 14.828125 13.828125 16 15 C 17.171875 16.171875 16.222656 19.019531 13.878906 21.363281 C 11.535156 23.707031 8.6875 24.65625 7.515625 23.484375 C 6.34375 22.3125 7.292969 19.464844 9.636719 17.121094 Z M 9.636719 17.121094 "/>
<path style=" stroke:none;fill-rule:evenodd;fill:rgb(66.27451%,66.27451%,66.27451%);fill-opacity:1;" d="M 10 12 C 13.3125 12 16 13.34375 16 15 C 16 16.65625 13.3125 18 10 18 C 6.6875 18 4 16.65625 4 15 C 4 13.34375 6.6875 12 10 12 Z M 10 12 "/>
<path style=" stroke:none;fill-rule:evenodd;fill:rgb(66.27451%,66.27451%,66.27451%);fill-opacity:1;" d="M 13.878906 8.636719 C 16.222656 10.980469 17.171875 13.828125 16 15 C 14.828125 16.171875 11.980469 15.222656 9.636719 12.878906 C 7.292969 10.535156 6.34375 7.6875 7.515625 6.515625 C 8.6875 5.34375 11.535156 6.292969 13.878906 8.636719 Z M 13.878906 8.636719 "/>
<path style="fill:none;stroke-width:2;stroke-linecap:butt;stroke-linejoin:miter;stroke:rgb(41.176471%,41.176471%,41.176471%);stroke-opacity:1;stroke-miterlimit:10;" d="M 16 15 L 16 30 " transform="matrix(1,-0.000000000000000666,0.000000000000000666,1,-0.000000000000004441,0.000000000000010658)"/>
<path style=" stroke:none;fill-rule:evenodd;fill:rgb(41.176471%,41.176471%,41.176471%);fill-opacity:1;" d="M 20 15 C 20 20.332031 12 20.332031 12 15 C 12 9.667969 20 9.667969 20 15 Z M 20 15 "/>
</g>
</svg>
