<?xml version="1.0" encoding="UTF-8"?>
<svg xmlns="http://www.w3.org/2000/svg" xmlns:xlink="http://www.w3.org/1999/xlink" width="32pt" height="32pt" viewBox="0 0 32 32" version="1.1">
<g id="surface7886">
<path style="fill:none;stroke-width:1;stroke-linecap:round;stroke-linejoin:miter;stroke:rgb(96.078431%,96.078431%,96.078431%);stroke-opacity:1;stroke-miterlimit:10;" d="M 25.601562 21.601562 L 6.398438 21.601562 M 6.191406 21.386719 C 4.164062 19.136719 4.261719 15.6875 6.414062 13.554688 L 6.566406 13.355469 C 6.148438 11.683594 6.527344 9.910156 7.585938 8.550781 C 8.648438 7.195312 10.277344 6.398438 12 6.398438 L 12.09375 6.402344 C 14.972656 0.753906 23.539062 4.042969 21.898438 10.167969 L 21.96875 10.382812 C 24.371094 10.804688 26.359375 12.503906 27.152344 14.8125 C 27.949219 17.121094 27.429688 19.679688 25.792969 21.496094 Z M 6.191406 21.386719 "/>
<path style="fill:none;stroke-width:0.125;stroke-linecap:round;stroke-linejoin:round;stroke:rgb(75.294118%,75.294118%,75.294118%);stroke-opacity:1;stroke-miterlimit:10;" d="M 24 5.75 C 19.5 1.125 28.5 1.125 24 5.75 " transform="matrix(-1,0.000000000000000122,-0.000000000000000122,-1,32,32)"/>
<path style=" stroke:none;fill-rule:evenodd;fill:rgb(75.294118%,75.294118%,75.294118%);fill-opacity:1;" d="M 8 26.25 C 12.5 30.875 3.5 30.875 8 26.25 "/>
<path style="fill:none;stroke-width:0.111111;stroke-linecap:round;stroke-linejoin:round;stroke:rgb(75.294118%,75.294118%,75.294118%);stroke-opacity:1;stroke-miterlimit:10;" d="M 20 9.554688 C 16 5.445313 24 5.445313 20 9.554688 " transform="matrix(-1,0.000000000000000122,-0.000000000000000122,-1,32,32)"/>
<path style=" stroke:none;fill-rule:evenodd;fill:rgb(75.294118%,75.294118%,75.294118%);fill-opacity:1;" d="M 12 22.445312 C 16 26.554688 8 26.554688 12 22.445312 "/>
<path style="fill:none;stroke-width:0.125;stroke-linecap:round;stroke-linejoin:round;stroke:rgb(75.294118%,75.294118%,75.294118%);stroke-opacity:1;stroke-miterlimit:10;" d="M 16 5.75 C 11.5 1.125 20.5 1.125 16 5.75 " transform="matrix(-1,0.000000000000000122,-0.000000000000000122,-1,32,32)"/>
<path style=" stroke:none;fill-rule:evenodd;fill:rgb(75.294118%,75.294118%,75.294118%);fill-opacity:1;" d="M 16 26.25 C 20.5 30.875 11.5 30.875 16 26.25 "/>
<path style="fill:none;stroke-width:0.111111;stroke-linecap:round;stroke-linejoin:round;stroke:rgb(75.294118%,75.294118%,75.294118%);stroke-opacity:1;stroke-miterlimit:10;" d="M 12 9.554688 C 8 5.445313 16 5.445313 12 9.554688 " transform="matrix(-1,0.000000000000000122,-0.000000000000000122,-1,32,32)"/>
<path style=" stroke:none;fill-rule:evenodd;fill:rgb(75.294118%,75.294118%,75.294118%);fill-opacity:1;" d="M 20 22.445312 C 24 26.554688 16 26.554688 20 22.445312 "/>
<path style="fill:none;stroke-width:0.125;stroke-linecap:round;stroke-linejoin:round;stroke:rgb(75.294118%,75.294118%,75.294118%);stroke-opacity:1;stroke-miterlimit:10;" d="M 8 5.75 C 3.5 1.125 12.5 1.125 8 5.75 " transform="matrix(-1,0.000000000000000122,-0.000000000000000122,-1,32,32)"/>
<path style=" stroke:none;fill-rule:evenodd;fill:rgb(75.294118%,75.294118%,75.294118%);fill-opacity:1;" d="M 24 26.25 C 28.5 30.875 19.5 30.875 24 26.25 "/>
</g>
</svg>
