<?xml version="1.0" encoding="UTF-8"?>
<svg xmlns="http://www.w3.org/2000/svg" xmlns:xlink="http://www.w3.org/1999/xlink" width="32pt" height="32pt" viewBox="0 0 32 32" version="1.1">
<g id="surface7714">
<path style=" stroke:none;fill-rule:evenodd;fill:rgb(75.294118%,75.294118%,75.294118%);fill-opacity:1;" d="M 6 1 L 7.117188 4.460938 L 10.753906 4.453125 L 7.808594 6.585938 L 8.9375 10.046875 L 6 7.898438 L 3.0625 10.046875 L 4.191406 6.585938 L 1.246094 4.453125 L 4.882812 4.460938 Z M 6 11 L 7.117188 14.460938 L 10.753906 14.453125 L 7.808594 16.585938 L 8.9375 20.046875 L 6 17.898438 L 3.0625 20.046875 L 4.191406 16.585938 L 1.246094 14.453125 L 4.882812 14.460938 Z M 16 11 L 17.117188 14.460938 L 20.753906 14.453125 L 17.808594 16.585938 L 18.9375 20.046875 L 16 17.898438 L 13.0625 20.046875 L 14.191406 16.585938 L 11.246094 14.453125 L 14.882812 14.460938 Z M 6 21 L 7.117188 24.460938 L 10.753906 24.453125 L 7.808594 26.585938 L 8.9375 30.046875 L 6 27.898438 L 3.0625 30.046875 L 4.191406 26.585938 L 1.246094 24.453125 L 4.882812 24.460938 Z M 16 21 L 17.117188 24.460938 L 20.753906 24.453125 L 17.808594 26.585938 L 18.9375 30.046875 L 16 27.898438 L 13.0625 30.046875 L 14.191406 26.585938 L 11.246094 24.453125 L 14.882812 24.460938 Z M 26 21 L 27.117188 24.460938 L 30.753906 24.453125 L 27.808594 26.585938 L 28.9375 30.046875 L 26 27.898438 L 23.0625 30.046875 L 24.191406 26.585938 L 21.246094 24.453125 L 24.882812 24.460938 Z M 26 21 "/>
<path style=" stroke:none;fill-rule:evenodd;fill:rgb(96.078431%,96.078431%,96.078431%);fill-opacity:1;" d="M 16 1 L 17.117188 4.460938 L 20.753906 4.453125 L 17.808594 6.585938 L 18.9375 10.046875 L 16 7.898438 L 13.0625 10.046875 L 14.191406 6.585938 L 11.246094 4.453125 L 14.882812 4.460938 Z M 26 1 L 27.117188 4.460938 L 30.753906 4.453125 L 27.808594 6.585938 L 28.9375 10.046875 L 26 7.898438 L 23.0625 10.046875 L 24.191406 6.585938 L 21.246094 4.453125 L 24.882812 4.460938 Z M 26 11 L 27.117188 14.460938 L 30.753906 14.453125 L 27.808594 16.585938 L 28.9375 20.046875 L 26 17.898438 L 23.0625 20.046875 L 24.191406 16.585938 L 21.246094 14.453125 L 24.882812 14.460938 Z M 26 11 "/>
</g>
</svg>
