<?xml version="1.0" encoding="UTF-8"?>
<svg xmlns="http://www.w3.org/2000/svg" xmlns:xlink="http://www.w3.org/1999/xlink" width="32pt" height="32pt" viewBox="0 0 32 32" version="1.1">
<g id="surface7710">
<path style="fill:none;stroke-width:1;stroke-linecap:butt;stroke-linejoin:miter;stroke:rgb(75.294118%,75.294118%,75.294118%);stroke-opacity:1;stroke-miterlimit:10;" d="M 16 26 L 2 26 L 2 2 L 26 2 L 26 16 M 16.5 16.5 L 31.5 16.5 L 31.5 31.5 L 16.5 31.5 Z M 16.5 16.5 "/>
<path style="fill:none;stroke-width:1;stroke-linecap:butt;stroke-linejoin:miter;stroke:rgb(75.294118%,75.294118%,75.294118%);stroke-opacity:1;stroke-miterlimit:10;" d="M 12 6 L 13.140625 10.027344 L 17.195312 9 L 14.28125 12 L 17.195312 15 L 13.140625 13.972656 L 12 18 L 10.859375 13.972656 L 6.804688 15 L 9.71875 12 L 6.804688 9 L 10.859375 10.027344 Z M 12 6 "/>
<path style="fill:none;stroke-width:0.6;stroke-linecap:butt;stroke-linejoin:miter;stroke:rgb(75.294118%,75.294118%,75.294118%);stroke-opacity:1;stroke-miterlimit:10;" d="M 22 18.75 L 22.617188 20.929688 L 24.816406 20.375 L 23.234375 22 L 24.816406 23.625 L 22.617188 23.070312 L 22 25.25 L 21.382812 23.070312 L 19.183594 23.625 L 20.765625 22 L 19.183594 20.375 L 21.382812 20.929688 Z M 22 18.75 "/>
</g>
</svg>
