<?xml version="1.0" encoding="UTF-8"?>
<svg xmlns="http://www.w3.org/2000/svg" xmlns:xlink="http://www.w3.org/1999/xlink" width="32pt" height="32pt" viewBox="0 0 32 32" version="1.1">
<g id="surface7770">
<path style="fill:none;stroke-width:4;stroke-linecap:butt;stroke-linejoin:miter;stroke:rgb(75.294118%,75.294118%,75.294118%);stroke-opacity:1;stroke-miterlimit:10;" d="M 27 18 C 27 24.074219 22.074219 29 16 29 C 9.925781 29 5 24.074219 5 18 "/>
<path style="fill:none;stroke-width:2;stroke-linecap:butt;stroke-linejoin:miter;stroke:rgb(75.294118%,75.294118%,75.294118%);stroke-opacity:1;stroke-miterlimit:10;" d="M 18.5 4.5 C 18.5 7.832031 13.5 7.832031 13.5 4.5 C 13.5 1.167969 18.5 1.167969 18.5 4.5 Z M 18.5 4.5 "/>
<path style=" stroke:none;fill-rule:evenodd;fill:rgb(75.294118%,75.294118%,75.294118%);fill-opacity:1;" d="M 14.5 7.5 L 13 27 L 19 27 L 17.5 7.5 Z M 14.5 7.5 "/>
<path style=" stroke:none;fill-rule:evenodd;fill:rgb(75.294118%,75.294118%,75.294118%);fill-opacity:1;" d="M 0.75 20 L 5 16 L 9.5 20 Z M 0.75 20 "/>
<path style=" stroke:none;fill-rule:evenodd;fill:rgb(75.294118%,75.294118%,75.294118%);fill-opacity:1;" d="M 22.75 20 L 27 16 L 31 20 Z M 22.75 20 "/>
<path style="fill:none;stroke-width:3;stroke-linecap:round;stroke-linejoin:miter;stroke:rgb(75.294118%,75.294118%,75.294118%);stroke-opacity:1;stroke-miterlimit:10;" d="M 11 13 L 21 13 "/>
</g>
</svg>
