<?xml version="1.0" encoding="UTF-8"?>
<svg xmlns="http://www.w3.org/2000/svg" xmlns:xlink="http://www.w3.org/1999/xlink" width="32pt" height="32pt" viewBox="0 0 32 32" version="1.1">
<defs>
<clipPath id="clip1">
  <path d="M 6 2 L 26 2 L 26 29 L 6 29 Z M 6 2 "/>
</clipPath>
<clipPath id="clip2">
  <path d="M 17.5 2 L 25.5 28.5 L 6.5 28.5 L 14.5 2 Z M 17.5 2 "/>
</clipPath>
<clipPath id="clip3">
  <path d="M 6 8 L 26 8 L 26 24 L 6 24 Z M 6 8 "/>
</clipPath>
<clipPath id="clip4">
  <path d="M 17.5 2 L 25.5 28.5 L 6.5 28.5 L 14.5 2 Z M 17.5 2 "/>
</clipPath>
</defs>
<g id="surface7410">
<path style="fill:none;stroke-width:3;stroke-linecap:round;stroke-linejoin:miter;stroke:rgb(94.901961%,52.156863%,0%);stroke-opacity:1;stroke-miterlimit:10;" d="M 3 30 L 29 30 "/>
<g clip-path="url(#clip1)" clip-rule="nonzero">
<g clip-path="url(#clip2)" clip-rule="nonzero">
<path style=" stroke:none;fill-rule:evenodd;fill:rgb(100%,54.901961%,0%);fill-opacity:1;" d="M 17.5 2 L 25.5 28.5 L 6.5 28.5 L 14.5 2 Z M 17.5 2 "/>
</g>
</g>
<g clip-path="url(#clip3)" clip-rule="nonzero">
<g clip-path="url(#clip4)" clip-rule="nonzero">
<path style="fill:none;stroke-width:3;stroke-linecap:butt;stroke-linejoin:miter;stroke:rgb(100%,100%,100%);stroke-opacity:1;stroke-miterlimit:10;" d="M 8 22 L 32 22 M 8 16 L 32 16 M 8 10 L 32 10 "/>
</g>
</g>
</g>
</svg>
