<?xml version="1.0" encoding="UTF-8"?>
<svg xmlns="http://www.w3.org/2000/svg" xmlns:xlink="http://www.w3.org/1999/xlink" width="32pt" height="32pt" viewBox="0 0 32 32" version="1.1">
<g id="surface7034">
<path style="fill-rule:evenodd;fill:rgb(0%,0%,0%);fill-opacity:1;stroke-width:7;stroke-linecap:butt;stroke-linejoin:round;stroke:rgb(0%,0%,0%);stroke-opacity:1;stroke-miterlimit:10;" d="M 4 5 L 28 5 L 28 8 L 26 8 L 26 5 L 7 5 L 7 8 L 4 8 Z M 12 16 L 4 25 L 4 28 L 28 28 L 28 25 L 20 16 Z M 12 16 "/>
<path style="fill:none;stroke-width:3;stroke-linecap:round;stroke-linejoin:miter;stroke:rgb(0%,0%,0%);stroke-opacity:1;stroke-miterlimit:10;" d="M 19 11 L 19 16 M 12 11 L 12 16.5 " transform="matrix(-1,0,0,1,31.5,0)"/>
<path style="fill-rule:evenodd;fill:rgb(87.058824%,72.156863%,52.941176%);fill-opacity:1;stroke-width:2;stroke-linecap:butt;stroke-linejoin:round;stroke:rgb(87.058824%,72.156863%,52.941176%);stroke-opacity:1;stroke-miterlimit:10;" d="M 9 16.5 L 11.5 16.5 L 11.5 17.75 L 9 17.75 Z M 14.5 16.5 L 17 16.5 L 17 17.75 L 14.5 17.75 Z M 20 16.5 L 22.5 16.5 L 22.5 17.75 L 20 17.75 Z M 9 21.5 L 11.5 21.5 L 11.5 22.75 L 9 22.75 Z M 14.5 21.5 L 17 21.5 L 17 22.75 L 14.5 22.75 Z M 20 21.5 L 22.5 21.5 L 22.5 22.75 L 20 22.75 Z M 9 26.5 L 11.5 26.5 L 11.5 27.75 L 9 27.75 Z M 14.5 26.5 L 17 26.5 L 17 27.75 L 14.5 27.75 Z M 20 26.5 L 22.5 26.5 L 22.5 27.75 L 20 27.75 Z M 20 26.5 "/>
</g>
</svg>
