<?xml version="1.0" encoding="UTF-8"?>
<svg xmlns="http://www.w3.org/2000/svg" xmlns:xlink="http://www.w3.org/1999/xlink" width="32pt" height="32pt" viewBox="0 0 32 32" version="1.1">
<g id="surface6842">
<path style="fill:none;stroke-width:3;stroke-linecap:butt;stroke-linejoin:miter;stroke:rgb(41.176471%,41.176471%,41.176471%);stroke-opacity:1;stroke-miterlimit:10;" d="M 19.390625 8.234375 C 18.496094 13.253906 13.503906 13.253906 12.609375 8.234375 M 12.699219 4 L 12.699219 9 M 19.300781 4 L 19.300781 9 "/>
<path style="fill:none;stroke-width:4;stroke-linecap:round;stroke-linejoin:miter;stroke:rgb(41.176471%,41.176471%,41.176471%);stroke-opacity:1;stroke-miterlimit:10;" d="M 16 13 L 16 26 "/>
<path style=" stroke:none;fill-rule:evenodd;fill:rgb(41.176471%,41.176471%,41.176471%);fill-opacity:1;" d="M 28.25 15.523438 L 27.039062 10.671875 L 10.785156 15.753906 L 11.753906 19.636719 Z M 28.25 15.523438 "/>
<path style=" stroke:none;fill-rule:evenodd;fill:rgb(41.176471%,41.176471%,41.176471%);fill-opacity:1;" d="M 8.960938 24.96875 L 12.84375 24 M 11.871094 24.242188 L 11.628906 23.273438 L 12.601562 23.03125 L 9.9375 12.359375 L 8.96875 12.601562 L 8.484375 10.660156 L 9.453125 10.417969 L 8.730469 7.507812 L 4.847656 8.472656 L 5.574219 11.386719 L 6.542969 11.144531 L 7.027344 13.082031 L 6.058594 13.324219 L 8.71875 24 L 9.6875 23.757812 L 9.929688 24.726562 "/>
<path style=" stroke:none;fill-rule:evenodd;fill:rgb(41.176471%,41.176471%,41.176471%);fill-opacity:1;" d="M 12.84375 24 C 14.132812 29.175781 10.25 30.144531 8.960938 24.96875 "/>
</g>
</svg>
