<?xml version="1.0" encoding="UTF-8"?>
<svg xmlns="http://www.w3.org/2000/svg" xmlns:xlink="http://www.w3.org/1999/xlink" width="32pt" height="32pt" viewBox="0 0 32 32" version="1.1">
<g id="surface6858">
<path style=" stroke:none;fill-rule:evenodd;fill:rgb(100%,0%,0%);fill-opacity:1;" d="M 16 28 C 10.476562 28 6 22.628906 6 16 C 6 9.371094 10.476562 4 16 4 Z M 16 28 "/>
<path style=" stroke:none;fill-rule:evenodd;fill:rgb(100%,0%,0%);fill-opacity:1;" d="M 6 16 L 6 6 L 16 2 L 16 16 Z M 6 16 "/>
<path style=" stroke:none;fill-rule:evenodd;fill:rgb(75.294118%,0%,0%);fill-opacity:1;" d="M 16 4 C 21.523438 4 26 9.371094 26 16 C 26 22.628906 21.523438 28 16 28 Z M 16 4 "/>
<path style=" stroke:none;fill-rule:evenodd;fill:rgb(75.294118%,0%,0%);fill-opacity:1;" d="M 26 16 L 26 6 L 16 2 L 16 16 Z M 26 16 "/>
<path style=" stroke:none;fill-rule:evenodd;fill:rgb(0%,0%,0%);fill-opacity:1;" d="M 14 10 L 16 20 L 18 10 Z M 14 10 "/>
<path style=" stroke:none;fill-rule:evenodd;fill:rgb(0%,0%,0%);fill-opacity:1;" d="M 18 10 C 18 12.667969 14 12.667969 14 10 C 14 7.332031 18 7.332031 18 10 Z M 17.5 22 C 17.5 24 14.5 24 14.5 22 C 14.5 20 17.5 20 17.5 22 Z M 17.5 22 "/>
</g>
</svg>
