<?xml version="1.0" encoding="UTF-8"?>
<svg xmlns="http://www.w3.org/2000/svg" xmlns:xlink="http://www.w3.org/1999/xlink" width="32pt" height="32pt" viewBox="0 0 32 32" version="1.1">
<g id="surface7782">
<path style=" stroke:none;fill-rule:evenodd;fill:rgb(75.294118%,75.294118%,75.294118%);fill-opacity:1;" d="M 7 16 C 7 20 1 20 1 16 C 1 12 7 12 7 16 Z M 22 11 C 22 13.667969 18 13.667969 18 11 C 18 8.332031 22 8.332031 22 11 Z M 23 20 L 27 20 L 27 24 L 23 24 Z M 27 13 L 31 16 L 27 19 Z M 27 13 "/>
<path style="fill:none;stroke-width:1;stroke-linecap:butt;stroke-linejoin:round;stroke:rgb(75.294118%,75.294118%,75.294118%);stroke-opacity:1;stroke-miterlimit:10;" d="M 6 16 L 29 16 M 10 16 L 14 11 L 19 11 M 14 16 L 19 22 L 23 22 "/>
</g>
</svg>
