<?xml version="1.0" encoding="UTF-8"?>
<svg xmlns="http://www.w3.org/2000/svg" xmlns:xlink="http://www.w3.org/1999/xlink" width="32pt" height="32pt" viewBox="0 0 32 32" version="1.1">
<g id="surface6674">
<path style=" stroke:none;fill-rule:evenodd;fill:rgb(100%,100%,100%);fill-opacity:1;" d="M 30.933594 15.730469 C 27.871094 20.996094 22.257812 24.261719 16.164062 24.320312 C 10.074219 24.378906 4.398438 21.222656 1.234375 16.015625 L 1.234375 15.984375 C 4.398438 10.777344 10.074219 7.621094 16.164062 7.679688 C 22.257812 7.738281 27.871094 11.003906 30.933594 16.269531 "/>
<path style=" stroke:none;fill-rule:evenodd;fill:rgb(25.490196%,41.176471%,88.235294%);fill-opacity:1;" d="M 24.640625 16 C 24.640625 20.773438 20.773438 24.640625 16 24.640625 C 11.226562 24.640625 7.359375 20.773438 7.359375 16 C 7.359375 11.226562 11.226562 7.359375 16 7.359375 C 20.773438 7.359375 24.640625 11.226562 24.640625 16 Z M 24.640625 16 "/>
<path style=" stroke:none;fill-rule:evenodd;fill:rgb(0%,0%,0%);fill-opacity:1;" d="M 20 16 C 20 21.332031 12 21.332031 12 16 C 12 10.667969 20 10.667969 20 16 Z M 20 16 "/>
<path style=" stroke:none;fill-rule:evenodd;fill:rgb(100%,100%,100%);fill-opacity:1;" d="M 19.199219 14.398438 C 19.199219 16.535156 16 16.535156 16 14.398438 C 16 12.265625 19.199219 12.265625 19.199219 14.398438 Z M 19.199219 14.398438 "/>
<path style="fill:none;stroke-width:1.28;stroke-linecap:butt;stroke-linejoin:miter;stroke:rgb(0%,0%,0%);stroke-opacity:1;stroke-miterlimit:10;" d="M 30.933594 15.730469 C 27.871094 20.996094 22.257812 24.261719 16.164062 24.320312 C 10.074219 24.378906 4.398438 21.222656 1.234375 16.015625 L 1.234375 15.984375 C 4.398438 10.777344 10.074219 7.621094 16.164062 7.679688 C 22.257812 7.738281 27.871094 11.003906 30.933594 16.269531 "/>
</g>
</svg>
