<?xml version="1.0" encoding="UTF-8"?>
<svg xmlns="http://www.w3.org/2000/svg" xmlns:xlink="http://www.w3.org/1999/xlink" width="32pt" height="32pt" viewBox="0 0 32 32" version="1.1">
<g id="surface6986">
<path style="fill:none;stroke-width:1;stroke-linecap:round;stroke-linejoin:round;stroke:rgb(0%,0%,0%);stroke-opacity:1;stroke-miterlimit:10;" d="M 10.28125 30.863281 C 10.539062 25.886719 12.503906 21.148438 15.835938 17.445312 L 15.835938 13 L 12 18 L 6.699219 23 L 6.699219 20 L 6.765625 20.054688 C 6.070312 21.546875 4.152344 21.972656 2.894531 20.914062 C 1.632812 19.859375 1.71875 17.894531 3.066406 16.953125 L 7 12 L 7 8 L 9 7 L 9 3 L 12 5.699219 L 14 2 L 16 5.699219 L 16.414062 5.847656 C 25.164062 11.210938 30.5 20.734375 30.5 31 L 10.25 31 "/>
<path style=" stroke:none;fill-rule:evenodd;fill:rgb(96.078431%,96.078431%,96.078431%);fill-opacity:1;" d="M 10.28125 30.863281 C 10.539062 25.886719 12.503906 21.148438 15.835938 17.445312 L 15.835938 13 L 12 18 L 6.699219 23 L 6.699219 20 L 6.765625 20.054688 C 6.070312 21.546875 4.152344 21.972656 2.894531 20.914062 C 1.632812 19.859375 1.71875 17.894531 3.066406 16.953125 L 7 12 L 7 8 L 9 7 L 9 3 L 12 5.699219 L 14 2 L 16 5.699219 L 16.414062 5.847656 C 25.164062 11.210938 30.5 20.734375 30.5 31 L 10.25 31 "/>
<path style="fill:none;stroke-width:0.5;stroke-linecap:round;stroke-linejoin:miter;stroke:rgb(0%,0%,0%);stroke-opacity:1;stroke-dasharray:1;stroke-miterlimit:10;" d="M 22.066406 13.324219 C 25.167969 17.019531 27.242188 21.472656 28.082031 26.226562 "/>
<path style="fill:none;stroke-width:1.5;stroke-linecap:round;stroke-linejoin:round;stroke:rgb(0%,0%,0%);stroke-opacity:1;stroke-miterlimit:10;" d="M 4 19 L 4 19.5 "/>
<path style=" stroke:none;fill-rule:evenodd;fill:rgb(0%,0%,0%);fill-opacity:1;" d="M 10 11 C 10 12.332031 8 12.332031 8 11 C 8 9.667969 10 9.667969 10 11 Z M 10 11 "/>
</g>
</svg>
