<?xml version="1.0" encoding="UTF-8"?>
<svg xmlns="http://www.w3.org/2000/svg" xmlns:xlink="http://www.w3.org/1999/xlink" width="32pt" height="32pt" viewBox="0 0 32 32" version="1.1">
<g id="surface7810">
<path style="fill:none;stroke-width:2.5;stroke-linecap:round;stroke-linejoin:round;stroke:rgb(75.294118%,75.294118%,75.294118%);stroke-opacity:1;stroke-miterlimit:10;" d="M 15.5 25 C 15.5 27.488281 13.828125 29.667969 11.421875 30.3125 C 9.019531 30.957031 6.480469 29.90625 5.238281 27.75 L 2 27.800781 M 30 27.800781 L 27 27.800781 M 26.761719 27.75 C 25.519531 29.90625 22.980469 30.957031 20.578125 30.3125 C 18.171875 29.667969 16.5 27.488281 16.5 25 "/>
<path style="fill:none;stroke-width:1.5;stroke-linecap:round;stroke-linejoin:round;stroke:rgb(96.078431%,96.078431%,96.078431%);stroke-opacity:1;stroke-miterlimit:10;" d="M 15.417969 24.046875 C 15.878906 26.671875 14.390625 29.253906 11.882812 30.167969 C 9.371094 31.082031 6.570312 30.0625 5.238281 27.75 L 2 27.800781 M 30 27.800781 L 27 27.800781 M 26.761719 27.75 C 25.429688 30.0625 22.628906 31.082031 20.117188 30.167969 C 17.609375 29.253906 16.121094 26.671875 16.582031 24.046875 "/>
<path style="fill:none;stroke-width:1;stroke-linecap:butt;stroke-linejoin:miter;stroke:rgb(75.294118%,75.294118%,75.294118%);stroke-opacity:1;stroke-miterlimit:10;" d="M 10 24 C 10 20.6875 12.6875 18 16 18 C 19.3125 18 22 20.6875 22 24 Z M 10 24 "/>
<path style=" stroke:none;fill-rule:evenodd;fill:rgb(96.078431%,96.078431%,96.078431%);fill-opacity:1;" d="M 10 24 C 10 20.6875 12.6875 18 16 18 C 19.3125 18 22 20.6875 22 24 Z M 10 24 "/>
<path style="fill:none;stroke-width:1;stroke-linecap:butt;stroke-linejoin:miter;stroke:rgb(75.294118%,75.294118%,75.294118%);stroke-opacity:1;stroke-miterlimit:10;" d="M 12.5 19.0625 C 9.757812 17.476562 8.417969 14.25 9.238281 11.1875 C 10.058594 8.128906 12.832031 6 16 6 C 19.167969 6 21.941406 8.128906 22.761719 11.1875 C 23.582031 14.25 22.242188 17.476562 19.5 19.0625 "/>
<path style=" stroke:none;fill-rule:evenodd;fill:rgb(96.078431%,96.078431%,96.078431%);fill-opacity:1;" d="M 12.5 19.0625 C 9.757812 17.476562 8.417969 14.25 9.238281 11.1875 C 10.058594 8.128906 12.832031 6 16 6 C 19.167969 6 21.941406 8.128906 22.761719 11.1875 C 23.582031 14.25 22.242188 17.476562 19.5 19.0625 "/>
<path style="fill:none;stroke-width:1;stroke-linecap:butt;stroke-linejoin:miter;stroke:rgb(75.294118%,75.294118%,75.294118%);stroke-opacity:1;stroke-miterlimit:10;" d="M 18 3.5 C 18 6.832031 14 6.832031 14 3.5 C 14 0.167969 18 0.167969 18 3.5 Z M 18 3.5 "/>
<path style=" stroke:none;fill-rule:evenodd;fill:rgb(96.078431%,96.078431%,96.078431%);fill-opacity:1;" d="M 18 3.5 C 18 6.832031 14 6.832031 14 3.5 C 14 0.167969 18 0.167969 18 3.5 Z M 18 3.5 "/>
<path style="fill:none;stroke-width:1.3;stroke-linecap:butt;stroke-linejoin:miter;stroke:rgb(75.294118%,75.294118%,75.294118%);stroke-opacity:1;stroke-miterlimit:10;" d="M 13 12.5 L 19 12.5 M 16 9.5 L 16 15.5 "/>
</g>
</svg>
