<?xml version="1.0" encoding="UTF-8"?>
<svg xmlns="http://www.w3.org/2000/svg" xmlns:xlink="http://www.w3.org/1999/xlink" width="32pt" height="32pt" viewBox="0 0 32 32" version="1.1">
<g id="surface6970">
<path style="fill:none;stroke-width:1;stroke-linecap:round;stroke-linejoin:round;stroke:rgb(0%,0%,0%);stroke-opacity:1;stroke-miterlimit:10;" d="M 4 31 L 28 31 L 28 22 M 4.019531 21.972656 C 5.820312 19.585938 8.289062 17.789062 11.117188 16.816406 M 20.882812 16.816406 C 23.710938 17.789062 26.179688 19.585938 27.980469 21.972656 M 4 22 L 4 31 L 6 31 M 11.273438 16.695312 C 10.28125 15.425781 9.839844 13.8125 10.050781 12.21875 C 10.261719 10.621094 11.105469 9.175781 12.390625 8.207031 M 19.441406 8.085938 C 20.804688 9.039062 21.710938 10.515625 21.941406 12.164062 C 22.171875 13.8125 21.710938 15.484375 20.664062 16.777344 M 12.535156 8 C 10.996094 5.332031 12.921875 2 16 2 C 19.078125 2 21.003906 5.332031 19.464844 8 "/>
<path style=" stroke:none;fill-rule:evenodd;fill:rgb(96.078431%,96.078431%,96.078431%);fill-opacity:1;" d="M 4 21.898438 L 28 21.898438 L 28 30.898438 L 4 30.898438 Z M 4 21.898438 "/>
<path style=" stroke:none;fill-rule:evenodd;fill:rgb(96.078431%,96.078431%,96.078431%);fill-opacity:1;" d="M 4.019531 21.972656 C 6.855469 18.210938 11.289062 16 16 16 C 20.710938 16 25.144531 18.210938 27.980469 21.972656 Z M 4.019531 21.972656 "/>
<path style=" stroke:none;fill-rule:evenodd;fill:rgb(96.078431%,96.078431%,96.078431%);fill-opacity:1;" d="M 22 13 C 22 16.3125 19.3125 19 16 19 C 12.6875 19 10 16.3125 10 13 C 10 9.6875 12.6875 7 16 7 C 19.3125 7 22 9.6875 22 13 Z M 22 13 "/>
<path style=" stroke:none;fill-rule:evenodd;fill:rgb(96.078431%,96.078431%,96.078431%);fill-opacity:1;" d="M 20 6 C 20 11.332031 12 11.332031 12 6 C 12 0.667969 20 0.667969 20 6 Z M 20 6 "/>
</g>
</svg>
