<?xml version="1.0" encoding="UTF-8"?>
<svg xmlns="http://www.w3.org/2000/svg" xmlns:xlink="http://www.w3.org/1999/xlink" width="32pt" height="32pt" viewBox="0 0 32 32" version="1.1">
<g id="surface7010">
<path style="fill:none;stroke-width:1;stroke-linecap:butt;stroke-linejoin:miter;stroke:rgb(0%,0%,0%);stroke-opacity:1;stroke-miterlimit:10;" d="M 7 22 L 25 22 L 25 30 L 7 30 Z M 7 28 L 25 28 "/>
<path style="fill:none;stroke-width:1;stroke-linecap:butt;stroke-linejoin:miter;stroke:rgb(0%,0%,0%);stroke-opacity:1;stroke-miterlimit:10;" d="M 7.199219 22.300781 L 3.5 8.75 L 8 17 L 9 6.5 L 13 16 L 16 6 L 19 16 L 22.5 7 L 24 17 L 28 9 L 25 22 "/>
<path style=" stroke:none;fill-rule:evenodd;fill:rgb(96.078431%,96.078431%,96.078431%);fill-opacity:1;" d="M 7.199219 22.300781 L 3.5 8.75 L 8 17 L 9 6.5 L 13 16 L 16 6 L 19 16 L 22.5 7 L 24 17 L 28 9 L 25 22 "/>
<path style="fill:none;stroke-width:1;stroke-linecap:butt;stroke-linejoin:miter;stroke:rgb(0%,0%,0%);stroke-opacity:1;stroke-miterlimit:10;" d="M 5 7 C 5 9.667969 1 9.667969 1 7 C 1 4.332031 5 4.332031 5 7 Z M 11 5 C 11 7.667969 7 7.667969 7 5 C 7 2.332031 11 2.332031 11 5 Z M 18 4 C 18 6.667969 14 6.667969 14 4 C 14 1.332031 18 1.332031 18 4 Z M 25 5 C 25 7.667969 21 7.667969 21 5 C 21 2.332031 25 2.332031 25 5 Z M 31 7 C 31 9.667969 27 9.667969 27 7 C 27 4.332031 31 4.332031 31 7 Z M 31 7 "/>
<path style=" stroke:none;fill-rule:evenodd;fill:rgb(96.078431%,96.078431%,96.078431%);fill-opacity:1;" d="M 5 7 C 5 9.667969 1 9.667969 1 7 C 1 4.332031 5 4.332031 5 7 Z M 11 5 C 11 7.667969 7 7.667969 7 5 C 7 2.332031 11 2.332031 11 5 Z M 18 4 C 18 6.667969 14 6.667969 14 4 C 14 1.332031 18 1.332031 18 4 Z M 25 5 C 25 7.667969 21 7.667969 21 5 C 21 2.332031 25 2.332031 25 5 Z M 31 7 C 31 9.667969 27 9.667969 27 7 C 27 4.332031 31 4.332031 31 7 Z M 31 7 "/>
<path style="fill:none;stroke-width:1;stroke-linecap:butt;stroke-linejoin:miter;stroke:rgb(0%,0%,0%);stroke-opacity:1;stroke-miterlimit:10;" d="M 7 20 L 25 20 "/>
<path style=" stroke:none;fill-rule:evenodd;fill:rgb(0%,0%,0%);fill-opacity:1;" d="M 16 24 L 18 25 L 16 26 L 14 25 Z M 10 24 L 12 25 L 10 26 L 8 25 Z M 22 24 L 24 25 L 22 26 L 20 25 Z M 22 24 "/>
</g>
</svg>
